<?xml version="1.0" encoding="iso-8859-1"?>
<!-- Generator: Adobe Illustrator 19.0.0, SVG Export Plug-In . SVG Version: 6.00 Build 0)  -->
<svg version="1.1" id="Capa_1" xmlns="http://www.w3.org/2000/svg" xmlns:xlink="http://www.w3.org/1999/xlink" x="0px" y="0px"
	 viewBox="0 0 384.967 384.967" style="enable-background:new 0 0 384.967 384.967;" xml:space="preserve">
<g>
	<g id="Double_Check">
		<path d="M273.347,94.381L273.347,94.381L273.347,94.381z"/>
		<path d="M381.403,94.381L381.403,94.381L381.403,94.381z"/>
		<path d="M273.347,94.381L273.347,94.381C274.538,95.56,275.717,96.727,273.347,94.381z"/>
		<path d="M273.347,94.381L273.347,94.381c-4.752-4.704-12.439-4.704-17.191,0L84.278,265.127l-63.544-62.473
			c-4.74-4.704-12.439-4.704-17.179,0s-4.74,12.319,0,17.011l72.17,70.967c4.692,4.644,12.499,4.644,17.191,0l180.43-179.239
			C278.099,106.7,278.086,99.085,273.347,94.381z"/>
		<path d="M273.347,94.381L273.347,94.381C270.977,92.035,272.156,93.202,273.347,94.381z"/>
		<path d="M381.403,94.381L381.403,94.381C379.033,92.035,380.224,93.202,381.403,94.381z"/>
		<path d="M381.403,94.381L381.403,94.381C382.594,95.56,383.773,96.727,381.403,94.381z"/>
		<path d="M381.403,94.381L381.403,94.381c-4.752-4.704-12.439-4.704-17.191,0L192.334,265.127l-15.423-14.352
			c-4.74-4.704-12.439-4.704-17.179,0s-4.74,12.319,0,17.011l24.049,22.846c4.692,4.644,12.499,4.644,17.191,0l180.43-179.239
			C386.155,106.7,386.155,99.085,381.403,94.381z"/>
	</g>
	<g>
	</g>
	<g>
	</g>
	<g>
	</g>
	<g>
	</g>
	<g>
	</g>
	<g>
	</g>
</g>
<g>
</g>
<g>
</g>
<g>
</g>
<g>
</g>
<g>
</g>
<g>
</g>
<g>
</g>
<g>
</g>
<g>
</g>
<g>
</g>
<g>
</g>
<g>
</g>
<g>
</g>
<g>
</g>
<g>
</g>
</svg>
