<?xml version="1.0" encoding="iso-8859-1"?><svg version="1.1" id="Capa_1" xmlns="http://www.w3.org/2000/svg" xmlns:xlink="http://www.w3.org/1999/xlink" x="0px" y="0px"
	 viewBox="0 0 512 512" style="enable-background:new 0 0 512 512;" xml:space="preserve"><path style="fill:#FF5F5F;" d="M125.829,125.829L255.999,256l-130.17,130.17l-41.375-41.375l-20.098,20.098
	c-4.094,4.094-10.731,4.094-14.825,0L28.2,343.562c-4.094-4.094-4.094-10.731,0-14.825l20.098-20.098L3.07,263.412
	c-4.094-4.094-4.094-10.731,0-14.825l41.692-41.692l-20.104-20.104c-4.094-4.094-4.094-10.731,0-14.825l21.331-21.331
	c4.094-4.094,10.731-4.094,14.825,0l20.104,20.104L125.829,125.829z"/><path style="fill:#F44D4D;" d="M113.361,138.297l40.171,40.171l-21.071,21.071c-3.56,3.56-3.56,9.332,0,12.892l43.899,43.899
	l-47.103,47.103c-3.56,3.56-3.56,9.332,0,12.892l21.064,21.064l-36.637,36.637l12.144,12.144L255.999,256l-130.17-130.17
	L113.361,138.297z M231.387,256.324l-19.973,19.973l-16.763-16.763l19.973-19.973L231.387,256.324z"/><path style="fill:#00C3FF;" d="M263.411,3.072L386.169,125.83L255.999,256l-41.375-41.375l-27.517,27.517l-36.157-36.157
	l27.517-27.517l-52.639-52.639l49.098-49.098l-20.104-20.104c-4.094-4.094-4.094-10.731,0-14.825l21.331-21.331
	c4.094-4.094,10.731-4.094,14.825,0l20.104,20.104l37.503-37.503C252.68-1.022,259.317-1.022,263.411,3.072z"/><path style="fill:#00AAF0;" d="M374.025,113.685l12.144,12.144L255.999,256l-12.144-12.144l36.63-36.63l-21.064-21.064
	c-3.56-3.56-3.56-9.332,0-12.892l48.201-48.201c3.56-3.56,9.332-3.56,12.892,0l21.064,21.064L374.025,113.685z"/><path style="fill:#FFF082;" d="M255.999,256l130.17,130.17L263.412,508.928c-4.094,4.094-10.731,4.094-14.825,0l-33.956-33.956
	l-20.098,20.098c-4.094,4.094-10.731,4.094-14.825,0l-21.331-21.331c-4.094-4.094-4.094-10.731,0-14.825l20.098-20.098
	l-52.645-52.645l49.105-49.105l-21.679-21.679c-3.221-3.221-3.221-8.442,0-11.663l24.494-24.494c3.221-3.221,8.442-3.221,11.663,0
	l21.679,21.679L255.999,256z"/><path style="fill:#FFDC64;" d="M243.532,268.468L255.999,256l130.17,130.17l-12.468,12.468l-28.9-28.901l-21.071,21.071
	c-3.56,3.56-9.332,3.56-12.892,0l-48.201-48.201c-3.56-3.56-3.56-9.332,0-12.892l21.071-21.071L243.532,268.468z"/><path style="fill:#B4E66E;" d="M508.93,248.59L386.172,125.832l-44.913,44.913l-21.684-21.683c-3.22-3.221-8.442-3.221-11.663,0
	l-24.494,24.494c-3.221,3.221-3.221,8.442,0,11.663l21.684,21.684l-49.1,49.1l52.641,52.641l-21.683,21.683
	c-3.221,3.221-3.221,8.442,0,11.663l24.494,24.494c3.221,3.221,8.442,3.221,11.663,0l21.683-21.683l41.373,41.373L508.93,263.415
	C513.023,259.321,513.023,252.684,508.93,248.59z"/><g></g><g></g><g></g><g></g><g></g><g></g><g></g><g></g><g></g><g></g><g></g><g></g><g></g><g></g><g></g></svg>
