<svg xmlns="http://www.w3.org/2000/svg" viewBox="0 0 512 512" role="img" aria-labelledby="title description">
<title id="title">Zend desabilitar o layout e o renderizador de visões</title>
<desc id="description">Blue Zend logo based on the supplied reference image</desc>
<circle cx="256" cy="256" r="248" fill="#f8f9fa"/>
<g transform="translate(86 86)">
<path fill="#07709d" d="M257,48v1h1v1h2v2v2v2v2v2v2v2v2v2v2v2v2v2v2v1h1v2h-1v2v2v2v2v2v2v2v2v2v2v2v2v2v2v2v2v2v2v2v2v2v2v2v2v2v2v2v2v2v2v2v2v2v2v2v2v2v2v2v2v2v2v2v2v2h1v2v2v2v2v2h1v-2v-2v-2v-2v-2v-2v-2v-2v-2v-2v-2v-2v-2v-2v-2v-2v-2v-2v-2v-2v-2v-2v-2v-2v-2v-2v-2v-2v-2v-2v-2v-2v-2v-2v-2v-2v-2v-2v-2v-2v-2v-2v-2v-2v-2v-2v-2v-2v-2v-2v-2v-2v-2v-2v-2v-2v-2v-2v-2v-2v-2v-2v-2v-2v-2v-2v-2v-2v-2h-1v1h-1v1h1v2h-1v2h-1v-2h1v-2h-1v1h-1v2ZM256,49v1h1v-1ZM138,204v2h1v1h2v-2v-1h1v-1h1v2h-1v2h2v-2h1v-1h1v2h-1v1h2h2h2h2h2h2h2h2h2h2h2h2h2h2h2h2h2h2h2h2h2h2h2h2h2h2h2h2h2h2h2h2h2h2h2h2h2h2h2h2h2h2h2h2h2h2h2v-1h2h1v-1h2h1v-1h1v-1h2h1v-1h1v-2h1v-1h1v1h1v-1h1v-2h2v-2h1v-1h1v-2h-1v1h-1v-1h1v-1h1v-1h2v-2h-1v1h-1v-2h2h1v-2v-2v-1h-1v-2v-2v-2v-2v-2v-1h-2v-1h-1v-2v-2v-2v-2v-2v-2v-2v-2v-2v-2v-2v-2v-2v-2v-2v-2v-2v-2v-2v-2v-2v-2v-2v-2v-2v-2v-2v-2v-2v-2v-2v-2v-2v-2v-2v-2v-2v-2v-2v-2v-2v-2v-2v-2v-2h1v-1h-1v-2v-2v-2v-1h1v-2v-2v-2v-2v-2v-2v-2v-2v-2h-1v-2v-1h-1v-1h-1v2h1v1h-1v-1h-1v2v1h-1v-1h-1v1h-1v2h-1v1h-1v2h1v1h-1v-1h-1v1h-1v1h-1v1h-1v2h1v2h-2v-1h-1v2h1v1h-1v-1h-1v1h-1v1h-1v1h1v2h-1v-1h-1v1h-1v1h-1v1h1v1h-1v-1h-1v2h1v1h1v2h-1v-2h-1v-1h-1v2h1v1h-2h-1v2h1v2h1v1h-1v-1h-2v-2h-1v2h-1v1h1v1h-1v-1h-1v1h-1v1h-1v2h-1v1h2v1h-1v1h-1v1h-1v2h-2v2h-1v-2h-1v2h-1v1h-1v2h-1v1h1v2h-1v1h1v2h-1v-2h-1v1h-1v-2h-1v2h-1v1h1v1h-1v2h-2v-1h-1v2v2v1h-1v-1h-2v2h1v1h-1v-1h-1v1h-1v2h-1v1h-1v1h1v2h-1v1h-2v2v1h-1v1h-1v1h-1v-1h-1v1h-1v1h-1v2h1v2h-2v2h-1v1h1v2h-1v-2h-1v-1h-2v2h1v2h-1v1h-1v2v2h2h1v2v1h-2h-1v-2v-1h-1v-2h-1v-1h-1v2h-1v1h-1v1h-1v2h-1v2v1h-1v-1h-1v2h1v1h-1v-1h-1v1h-1v1h-1v2h1v1h-1v1h-1v-1h-1v1h-1v1h-1v2h1v-1h2v2v2h-1v1h1v2h-1v-2h-1v1h-1v1h-1v-2h1v-1h-2v-1h-1v2h1v1h-1v-1h-1v1h-1v2v1h1v2h-1v2h1v1h-1v1h-1v2h-1v1h1v1h-2h-2v-1h2v-1h1v-1h-2h-1v-2h-1v1h-1v2h-2v2v1h2v1h-2v1h-1v1h-1v-1h-1v1h-1v1h-1v2h1v1h-1v-1h-1v1h-1v1h1v1h-1v-1h-1v2h-1v1h1v1h1v1h-1v-1h-1v-1h-1v2h-2v1h1v2h-1v1h-1v-1h-1v2v2h-1v2h-1v2h-1v-2h-1v1h-1v1h-1v1h-1v1ZM145,201h1v1h-1ZM150,192h1v1h-1ZM152,198h1v-1h2h2h1v2v2h-2h-2h-2v-2ZM154,188h1v1h-1ZM154,191h1v1h-1ZM154,193h1v2h-1ZM156,186h1v2h2v1h-2v-1h-1ZM157,182h1v1h-1ZM157,185h2v1h-2ZM159,182h1v1h-1ZM161,176h1v1h-1ZM161,180h1v2h-1ZM163,178h2v1h-2ZM165,180h1v-1h1v1h1v2h-2v-1h-1ZM179,153h2v1h-2ZM179,157h1v1h-1ZM180,156h1v-1h1v2h1v1h-1v-1h-2ZM182,152h1v1h-1ZM192,139h1v1h-1ZM194,140h1v1h-1ZM197,133h2v1h-2ZM198,146h2h1v2v2v2h-2h-1v-2v-2ZM200,132h1v2h-1ZM202,126h1v-1h1v1h1v2h-1v2v2v2h-2v-2v-2v-2ZM206,118h1v1h-1ZM206,120h1v2h-1ZM207,116h1v1h-1ZM207,195h2h1v2v2v2h-2h-1v-2v-2ZM211,114h2v1h-2ZM212,111h1v1h-1ZM224,96h1v1h-1ZM228,88h1v2h-1ZM229,87h2h1v1h-2h-1ZM230,96h1v1h-1ZM234,81h2h1v1h-2h-1ZM236,83h1v1h1v1h-2ZM237,205h2v1h-2ZM239,79h1v1h1v1h-1v-1h-1ZM239,195h2h2v1h-2h-2ZM240,203h1v-2h2v1h1v2h-2v1h-2ZM241,78h2v2h-2ZM242,70h1v2v1h-1v-2ZM244,70h1v1h-1ZM244,195h1v1h-1ZM245,68h1v2h-1ZM245,202h1v1h-1ZM246,73h2h1v-2v-2v-2h-2v-1h2v-2v-1h1v-1h2v1h1v2v1h1v2v2v2v1h1v2v2v2h-2h-2h-2h-2h-1v-2v-2ZM247,200h1v1h1v1h-1v-1h-1ZM248,199h1v1h-1ZM249,198h1v1h-1ZM251,196h1v1h1v1h-1v-1h-1ZM252,58h1v1h-1ZM252,195h1v1h-1ZM254,58h2v1h-1v1h-1ZM255,183h1v1h-1ZM255,190h1v2h-1ZM255,194h1v1h-1ZM257,183h1v2v2h-1v-2ZM259,184h1v2h-1ZM250,63v1h1v-1ZM244,65v1h1v-1ZM249,66v1h1v-1ZM59,92v2v2v2v2v2v2v2v2v2v2v2v2v2v2v2v2v2v2v2v2v2v2v2v2v2v2v2v2v2v2v2v2v2v2v2v2v2v2v2v2v2v2v2v2v2v2v2v2v2v2v2v2v2v2v2v2v2v2v2v2v2v2v2v2v2v2v2v2v2v2h2v-2v-1h2v-1h1v-2h1v-2h1v-1h-2v1h-2v-2h-1v-2h1v-1h1v2h2h2v-1h1v-1h1v-2v-1h1v2h1v-1h1v-2h-2v-1h-1v-1h2h2v1h1v-1h1v-1h-1v-2h1v-2h1v-2h-1v1h-1v-1h1v-1h1v-1h2v2h1v1h1v-2h1v-1h-1v-1h1v-1h1v1h1v-2v-2h2h1v-2v-2h-1v-2v-2v-1h1v-2h2v-2v-2v-1h2v2v1h1v1h-1v1h2v-1h1v1h1v-1h1v-2h1v-2v-1h2h1v-1h1v-2h1v-1h1v-1h1v-2h-1v-1h1v-1h1v1h1v-1h1v-2v-2h1v1h1v-1h1v-2h1v-1h-1v-2h-1v1h-2v-1h-1v-1h2v-1h1v1h1v-2h2v-1h2v-1h1v1h1v-1h1v-1h1v-2h-1v-1h1v-2h1v2h1v-1h1v-2h1v-1h1v-1h1v-1h1v-1h1v-1h-1v-1h-1v-1h-1v1h-1v-1h1v-1h1v-2h1v1h1v-1h2v2h1v-2h1v-1h1v-1h-2v-1h2h1v-1h1v-1h-1v-2h1v-1h1v-1h1v1h1v-1h1v-1h1v-2h1v-1h1v-1h1v-2h1v-1h-1v-2v-1h-1v2h-1v-2h1v-1h2v1h1v-2v-1h1v-1h1v-1h2v-1h1v-2h1v-2h-1v-1h2v1h1v-2h-1v-1h2v1h1v1h1v-2h1v-1h-1v-2h1v1h2v-2h1v-1h1v-1h1v-2h1v-1h1v-1h-2v-1h-1v2v1h-2v-1h-1v-1h-2v-1h2h1v-1h2v-2v-2h1v2h2v-1h1v-1h2v-1h-2v-1h1v-1h1v-1h1v1h2v1h1v-1h1v-1h1v-2h1v-1h-2v2h-1v-2h1v-1h2v-2h-1v-2h1v1h1v2h1v-1h1v-1h1v-2h-1v1h-1v-1h1v-1h1v-1h-1v-2h-1v-2v-1h1v-1h1v-1h1v2v1h1v2h1v1h1v-2v-1h2v-2h1v-1h1v-1h-1v-1h-1v-1h-2h-2h-1v1h-2h-1v-1h-2h-2h-2h-1v1h-2h-1v-1h-2h-1v1h-2h-2h-2h-2v1h-1v-1h1v-1h-2h-1v1h-2v-1h-2h-1v1h-2h-1v-1h-2h-2h-2h-2h-2v1h-2h-2h-2h-2h-2h-2h-2h-2h-2h-2h-2h-1v-1h-2h-2h-1v2h-1v-2h-2h-1v1h-2v-1h-2h-2v1h-1v-1h-2h-2v1h-2h-2h-2h-2h-1v1h-1v1h-2v2h-1v-2h-1v2v1h-1v-2h-1v1h-2v1h-1v1h2v1h1v2h1v1h-2v-1h-1v2h-1v-1h-2v1h-1v2v1h-1v-2v-1h1v-2h-1v1h-1v2h-1v1h1v2h-1v2h-1v-2h-1v2h-1v2v2v2ZM60,94h1v2h-1ZM60,101h1v2h-1ZM60,105h1v1h-1ZM60,109h1v2v2v2v1h-1v-2v-2v-2ZM60,118h1v1h-1ZM60,132h1v2h-1ZM60,146h1v1h-1ZM60,149h1v1h-1ZM60,168h1v1h-1ZM60,189h1v1h-1ZM60,191h1v1h-1ZM60,217h1v1h-1ZM63,225h1v1h-1ZM65,84h2v1h-2ZM65,219h1v1h-1ZM67,163h2h2h2v2h-2h-2h-2ZM70,183h2v-1h2v-2v-2v-1h2h2v2v2v1h1v2v2h-2h-2h-2h-2v-1h-1ZM72,75h2v1h-2ZM73,208h1v2h-1ZM74,128h2h2v2v2v2h-2h-2v-2v-2ZM76,195h2h1v1h-1v2h-2v-2ZM81,70h2h2v1h1v1h-1v1h-2h-2v-1h1v-1h-1ZM83,196h2v2h-2ZM85,146h2h2h2v1h1v2v1h-1v1h1v1h-2h-2h-2h-1v-2v-2ZM91,184h1v2h-1ZM97,85h1v-1h2h2h1v2h-2h-2h-2ZM97,175h1v1h1v1h1v2h-1v1h-1v-1h-1v-2h1v-1h-1ZM98,71h1v1h-1ZM98,159h1v1h-1ZM100,170h1v-1h1v2h1v1h-1v1h-1v-1h-1ZM103,134h1v-1h2h2h1v1h-2v1h-1v1h-1v1h-1v-2h-1ZM103,170h1v1h-1ZM104,165h1v1h1v1h-1v2h-1v-2ZM108,72h1v1h-1ZM110,158h1v2h-1ZM114,147h1v-1h2h2v1h2v1h1v2h-2v-1h-1v-1h-2h-2h-1ZM115,157h1v1h-1ZM122,115h2h2h2v1h-1v1h-2h-2h-1ZM122,141h1v1h-1ZM122,147h1v1h-1ZM124,71h2h2v1h-2h-2ZM124,140h2v1h-2ZM126,138h1v1h-1ZM128,136h2v2h-1v-1h-1ZM130,134h1v1h-1ZM134,71h2h2h2v1h1v1h-1v-1h-2h-2h-2ZM134,110h2v2h-1v-1h-1ZM134,127h1v-1h2v1h-1v2h1v1h-1v1h-1v1h-1v-1h1v-2h-1ZM141,117h1v2h-1ZM142,115h2v1h-1v1h-1ZM145,71h1v1h-1ZM146,109h1v1h-1ZM147,70h2v2h-2ZM152,105h1v1h-1ZM155,103h1v2h-1ZM159,92h2v1h-2ZM166,72h2v1h-2ZM167,85h1v1h-1ZM171,71h1v1h-1ZM171,79h1v1h-1ZM173,71h1v1h-1ZM178,70h2v2h-2ZM182,68v1h1v-1ZM67,76v1h2v-2h-1v1ZM66,77v1h1v-1ZM69,77v1h1v-1ZM176,78v1h1v-1ZM175,79v1h1v-1ZM62,82v2h1v-2ZM171,85v1h1v-1ZM225,90v2h1v-2ZM164,91v1h1v-1ZM166,91v1h1v-1ZM165,92v2h1v-2ZM223,92v2h1v-1h1v-1ZM161,97v2h1v-1h1v-2h1v-1h-1v-1h-1v2v1ZM164,94v1h1v-1ZM159,97v1h1v-1ZM217,101v1h1v-1ZM216,102v1h1v-1ZM213,106v1h1v-1ZM212,107v1h1v-1ZM149,113v1h1v-1ZM148,114v2h1v-2ZM147,116v1h1v-1ZM143,120v2h1v-1h1v-1h1v-1h1v-1h-2v1h-1v1ZM203,119v1h1v-1ZM200,123v1h1v-1ZM141,124v1h1v-1ZM199,124v2h1v-2ZM195,130v1h1v-1ZM194,131v1h1v-1ZM193,132v2h1v-2ZM132,135v2h1v-1h1v-1ZM188,138v2h1v-1h1v-1h1v-2h-1v1h-1v1ZM125,144v2h1v-2ZM177,154v1h1v-1ZM117,155v1h1v-1ZM173,159v1h1v-1ZM111,161v2v2h1v-2v-1h2v-2h-1v1ZM172,160v1h1v-1ZM174,161v1h1v-1ZM109,163v1h1v-1ZM167,166v2h1v1h1v-2h-1v-1ZM166,168v2h1v1h1v-2h-1v-1ZM164,171v1h2v-1ZM103,174v1h1v-1ZM98,177v2h1v-2ZM158,178v2h1v-1h1v-1ZM86,190v2v2v1h1v-1h1v1h1v-2h1v-1h1v-1h1v-1h-2v1h-1v-2v-1h-1v1h-1v1ZM92,188v1h1v-1ZM147,193v1h1v-1ZM87,195v1h1v-1ZM144,197v1h1v-1ZM143,198v2h1v-2ZM81,203v1h1v-1ZM78,207v1h1v-1ZM77,208v1h1v-1ZM76,209v1h1v-1ZM75,210v2h1v-2ZM68,220v1h1v-1ZM66,222v1h1v-1ZM236,294v1h1v1h2v-1h2v-1h1v-1h2v1h2v1h2v1h-2h-2v-1h-2v1h-1v1h2h2h2h2h2v-1h-1v-1h2h2h2h2v-1h1v-1h2v2v1h-2h-2h-2h-2v1h2h2h2h2h1v-2v-2v-2v-2v-2v-2v-2v-2v-2v-2v-2v-2v-2v-2v-2v-2v-2v-2v-2v-2v-2v-2v-2v-2v-2v-2v-2v-2v-2v-2v-2h-1v2v2v2v2v2v2v2v2v2h-1v1h1v2v2v2h-2v2h-1v-2v-1h1v-1h1v-2h-1v1h-1v1h-1v2v2v2v2v2v2v2v2v2v2v2v2v2v2v2v2v1h-1v2h-1v1h-1v-2h-2h-1v1h1v1h-1v-1h-1v-1h-2v1h-2h-1v-1h-2h-2h-1v1h-1v1h-2ZM248,294h1v1h-1ZM258,263h1v2v2v2v2v2v2v2v2v2v2v2v2h-1v-2v-2v-2v-2v-2v-2v-2v-2v-2v-2v-2ZM258,289h1v-1h1v-1h1v2v1h-2v2h-1v-2ZM260,261h1v2v2v2v2v2v2v2v2v2v2v2v2v1h-1v-2v-2v-2v-2v-2v-2v-2v-2v-2v-2v-2v-2ZM260,291h1v1h-1ZM259,236v2v1h1v-2v-1ZM258,239v1h1v-1ZM258,242v1h1v-1ZM258,244v1h1v-1ZM258,247v1h2v-1ZM116,253v1h2v2h1v1h2v-1h2v-1h2h2h1v-1h1v1h2h2h2v-1h-2h-1v-1h-2h-1v-1h1v-1h2h2h1v-1h-2h-1v-1h-1v1h-2h-1v1h-1v-2h-2v1h-2v1h-1v-1h-1v1h-2h-1v1h-1v1ZM118,253h1v1h-1ZM119,255h1v1h-1ZM120,254h1v1h-1ZM122,253h2v-1h2h2v1h-2h-1v1h-2h-1ZM61,250v2v2h1v1h2h1v1h2h2h2h2h2h2h2h2h2h2h2h2v2v1h-1v1h-1v2v2h1v1h-2v2h1v2h1v-1h1v-2h1v-1h1v-2h1v-1h-1v-1h1v-2h-1v-2v-2h2v1h-1v2h1v-1h1v-1h1v2h1v-1h1v-1h1v-1h1v-2h-1v1h-1v-2h-2h-2h-2h-2h-2h-2v1h-2h-2h-2v1h-2h-2h-2v1h-2h-1v-1h2h1v-1h-2h-2h-2v1h-1v-1h1v-1h2h2h2v-1h2h2h2h2h2h2h2h2h2h2h2h2v-1h-2h-2h-2h-2h-2h-2h-2h-2h-2h-2h-2h-2h-2h-2h-1v1h-1v-1h-2v1h1v1h-2v1h-2v-2h1v1h1v-2h-2ZM87,266h1v1h-1ZM88,261h1v2h-1ZM95,255h1v1h-1ZM98,250v1h1v-1ZM100,250v1h1v-1ZM163,256v2h2v1h1v2v2v1h1v-2h1v2v2v2h-2h-1v-1h-2v1h1v2v2v2v2v2v2v2v2v2v2v2v2h1v1h1v2h1v1h-1v1h2h1v-2v-2v-2v-2v-2v-2v-2v-2v-2v-2v-2v-2v-2v-2v-2v-2v-2v-2v-2v-2v-1h2h2h2h2h2h2h2h2h2h2h1v1h2h1v-1h-1v-1h1v-1h2v-1h1v-1h-2h-1v-1h-2h-2v-1h-2h-2h-2h-2h-2h-2h-2h-2h-2h-2h-2h-2h-1v2v2v1h1v2h-1v-1ZM165,274h1v2v2v2h-1v-2v-2ZM165,283h1v2h-1ZM166,255h2v2h-1v2h1v2h-1v-2h-1v-2ZM167,253h2h2v1h-1v1h-2v-1h-1ZM167,293h1v1h-1ZM171,251h2h2h2h2h2h2h1v1h-2v2h-2h-2h-1v-2h-2h-2h-2ZM187,252h1v1h1v1h-2ZM190,255h1v1h-1ZM191,252h1v1h1v1h-1v-1h-1ZM224,259v1h1v1h1v1h1v-1h1v-1h-1v-1h1v-1h1v-1h2v1h2v-1h2h1v-1h2h2h2h2h2h2h2h2h2h2v-1h-1v-1h2h1v-1h-2v-1h-2h-2h-2h-1v-1h-1v1h-2h-2v-1h2h2v-1h-2h-2h-2h-2h-2h-1v1h-2h-2v1h-2h-1v1h-1v1h2v-1h1v1h1v1h2v1h-2v-1h-2v1h-1v-1h-1v1h-2v2h-1v1ZM234,252h2v1h-2ZM235,254h2v1h-2ZM244,253h2h2h2h2h2h1v1h-2h-2h-2h-2h-2h-1ZM249,250v1h2h2h2v-1h-2h-2ZM257,251v1h2v-1h1v-1h-2v1ZM99,251v2h1v-2ZM136,251v1h2h2v-1h-2ZM132,252v1h2h1v1h2v1h-2v1h2v1h2h1v-1h2v-1h-2h-1v-1h1v-1h-2h-2v-1h-2ZM140,252v1h1v1h1v1h2v-1h-1v-1h-1v-1ZM197,253v1h1v-1ZM114,254v1h1v-1ZM195,254v1h1v-1ZM198,254v1h1v1h2v-1h-1v-1ZM227,254v1h1v-1ZM112,255v2h1v-1h1v-1ZM105,266v2v2v1h2v-1h1v2h-1v2h1v2v2v2v1h-1v2h-1v1h1v2h1v1h1v2h1v1h1v1h1v1h1v1h1v-1h2h1v1h2v-2h-1v-1h-2v-1h-1v-2h-1v-1h-1v-1h-1v2h-1v-2h-1v-2h-1v-2v-1h1v-2v-1h2h2h2h2h2h2v-1h1v1h2h2h2h2h2h2h2h2h2h2h2h2h2h2h1v-1h-1v-1h2v1h1v-2v-2v-2v-1h-1v1h-2h-1v-1h-1v2v1h1v-1h1v1h1v1h-2v1h-2v-2h-1v-1h-2h-2h-2h-2h-2h-2h-2h-2h-2h-2h-2h-2h-2h-2h-2h-2h-2h-2h-1v-2h-1v-1h-1v1h-2v-2h1v1h1v-2h1v-1h2v1h1v-2h1v-2h1v-1h1v-1h1v-1h-1v-2h1v-2h-1v1h-1v2h-1v1h-1v1h-1v-1h1v-2h-1v1h-1v2h-2v1h2v1h-2h-1v2h-1v2ZM109,263h1v1h-1ZM109,274h1v2h-1ZM110,288h1v1h-1ZM111,261h2v1h-2ZM111,274h1v1h-1ZM112,272h1v1h1v1h1v1h-1v-1h-2ZM112,288h2v1h-1v1h-1ZM115,272h1v1h2h2h1v-1h1v1h1v-1h2v1h2h2h2h2h1v1h-1v1h-2h-2h-2h-2h-2h-2h-1v1h-2h-2v-2h-1ZM139,272h2v1h-2ZM146,273h1v1h-1ZM144,255v1h1v1h2v-1h-1v-1ZM226,255v1h1v-1ZM141,257v1h2h1v1h1v1h-1v2h1v-1h1v-2v-1h-1v-1h-1v-1h-2v1ZM194,257v1h1v1h2v-2h1v-1h-2h-1v1ZM201,256v1h1v-1ZM225,256v1h1v-1ZM117,257v1h1v-1ZM147,257v1h1v-1ZM198,258v1h2v-2h-1v1ZM202,257v1h1v-1ZM94,258v1h1v-1ZM116,258v1h1v-1ZM201,258v2h1v-2ZM201,263v2h1v1h1v2v2v2h1v2h-1v1h1v2v1h-1v1h1v2v2v2v2v2v2v1h1v1h-1v1h1v2h-1v1h2h2v-1h1v-2v-2v-2v-2v-2v-2v-2v-2v-2v-2v-2v-2v-2v-1h-1v2v2v1h-1v-2h-1v2h-1v-2v-2v-1h-1v-1h1v-2v-1h2v2v2h1v-2v-2v-1h-1v-2h-1v-1h-1v-1h-1v-2h-1v2h-1v1h1v2h1v2h-1v-1h-1v-1ZM204,262h1v1h-1ZM205,280h1v1h-1ZM206,288h1v1h1v2v1h-1v-2h-1ZM206,293h1v1h-1ZM207,275h1v2v2v2v2v2v1h-1v-2v-2v-2v-2v-2ZM207,295h1v1h-1ZM223,258v1h1v-1ZM228,259v1h2v-1h1v-1h-2v1ZM93,259v2h1v-2ZM142,259v1h2v-1ZM148,259v1h1v-1ZM197,259v1h1v-1ZM222,259v2h1v-2ZM147,260v1h1v-1ZM198,260v1h1v1h1v-1h1v-1h-2ZM92,261v1h1v-1ZM148,262v2h2h1v1h1v-2h-1v-1h-1v-1h-1v1ZM220,262v2h2v1h1v-2v-1h-1v-1h-1v1ZM223,261v1h1v-1ZM145,262v1h1v2h1v2h1v2h1v-2h1v-2h-1v1h-1v-2h-1v-2ZM200,262v1h1v-1ZM224,263v1h2v-2h-1v1ZM85,263v2h1v-2ZM163,264v1h1v-1ZM219,264v1h1v-1ZM151,267v1h1v1h1v-2v-2h-1v2ZM217,269v2v2v2v2v2v1h1v-2v-1h2h1v1h1v-2v-2v-2v-2v-1h1v-2h-2v1h-2v-1h2v-2h-1v1h-2v2v1h2v2v1h1v2h-1v1h-1v-2v-2h-1v-2ZM223,265v2h1v-2ZM79,272v1h1v2h1v-2h1v2h1v-1h1v-1h1v-1h1v-2h1v-1h-1v-2h-1v1h-1v-2h-1v2h-1v1h2v1h1v1h-1v-1h-2h-2v2ZM110,266v2h1v-2ZM78,273v1h1v-1ZM76,275v2h1v2h1v-2v-1h1v1h1v-2h-2v-1h-1v1ZM105,274v1h1v1h-1v2v2h1v1h1v-2v-2v-2v-1ZM81,275v1h1v-1ZM73,279v2h1v1h1v-1h1v-1h1v-1h-1v-2h-1v1h-1v1h1v1h-1v-1ZM80,277v1h1v-1ZM219,282v2h1v2h1v-2h1v2h1v-1h1v-1h1v-2h-1v-1h-1v-2v-1h-1v2h-1v-2h-1v2v2ZM78,279v1h2v-1ZM77,280v2h1v-2ZM110,280v2v1h1v2h1v-2v-1h-1v-2ZM218,280v1h1v-1ZM70,288v2v1h1v-2h1v-1h1v-2v-1h1v1h1v-1h1v-2h1v-1h-2v2h-2v-2h-2v1h1v1h-1v1h1v1h-1v2ZM147,284v1h1v2h1v2h1v-1h1v-1h1v-2v-1h-2h-2ZM150,285h1v2h-1ZM225,284v1h1v-1ZM61,296v1h2h2h2h2h2h2h2h2h2v-1h-2h-2h-2v-1h2h2h2h2h2h1v1h-2v1h2h2h2h2h2h2h2h2h2v-1h1v-1h-1v-1h-1v-1h-1v2h1v1h-1v-1h-1v1h-2h-2h-2v-2h2h2h2v-2v-1h-2h-2h-1v1h-2h-2h-2h-2h-2h-1v-1h-1v1h-1v-1h-1v1h-1v-1h-2h-1v1h-2h-2v1h2h1v1h-2h-1v-1h-1v-2v-2v-1h1v-2v-1h-1v1h-1v1h-1v1h1v1h-1v-1h-1v2h1v1h-1v2h1v2h1v1h-1v-1h-1v-2h-1v1h-1v-2h-1v2h-1v2ZM67,292h1v1h-1ZM83,293h2v1h-2ZM146,285v2h1v-2ZM224,285v1h1v-1ZM225,286v2h1v2h1v1h1v1h1v1h1v-2h-1v-1h-1v-1h-1v-2h1v-1h-1v-1h-1v1ZM221,286v2h1v-2ZM144,288v1h1v1h1v1h1v1h1v-1h1v-2h-1v1h-1v-1h1v-2h-1v1h-2ZM223,287v1h1v-1ZM228,287v2h2v-1h-1v-1ZM222,288v1h1v-1ZM223,289v1h1v1h1v1h1v1h1v1h2v-1h-1v-1h-1v-1h-1v-1h-1v-2h-1v1ZM138,292v1h1v2h1v1h2h1v-1h1v-1h2v-1h-1v-1h1v-1h-2v-2h-1v1h-1v1h1v1h-1v-1h-2v1ZM141,294h1v1h-1ZM143,293h1v1h-1ZM230,289v1h2v-1ZM65,290v1h1v-1ZM232,290v2h1v2h2h1v-1h2h1v-1h-1v-1h-2h-2v-1ZM64,291v1h1v-1ZM114,293v1h1v1h2v1h1v-2h-2v-1ZM121,293v1h1v1h2h1v-1h-2v-1ZM136,293v2v1h1v2h1v-1h1v-1h-1v-2v-1ZM132,294v1h2v1h1v-2h-2ZM164,294v1h1v-1ZM229,294v1h2h1v1h2h1v1h2v-1h-1v-1h-2h-1v-1h-2ZM126,295v1h2h2h2v-1h-2h-2ZM119,296v1h1v-1ZM123,297v1h2h1v1h2h2h2v-1h-2v-1h-1v1h-1v-1h-2v-1h-1v1ZM164,296v1h1v-1ZM134,297v1h2v-1Z"/>
<path fill="#0b72a0" d="M260,45v2h1v-2ZM259,47v2h1v-2ZM256,50v1h1v2v1h1v2v2v2v2v2v2v2v2v2h-1v2v2v2v1h1v1h-1v2v2v2v2v2v2v2v2v2v2v2v2v2v2v2v2v2v2v2v2v2v2v2v2v2v2v2v2v2v2v2v2v2v2v2v2v2v2v2v2v2v2v2v2v2h1v1h2v-2v-2v-2v-2v-2v-2v-2v-2v-2v-2v-2v-2v-2v-2v-2v-2v-2v-2v-2v-2v-2v-2v-2v-2v-2v-2v-2v-2v-2v-2v-2v-2v-2v-2v-2v-2v-2v-2v-2v-2v-2v-2v-2v-2v-2h1v-2h-1v-2v-2v-2v-2v-2v-2v-2v-2v-2v-2v-2v-2v-2v-2v-1h-2v-1h-1v1ZM254,51v1h1v-1ZM255,52v1h1v-1ZM253,53v2h1v-2ZM252,58v1h1v-1ZM254,58v2h1v-1h1v-1ZM249,60v1h1v-1ZM246,73v2v2v2h2h2h2h2h1v-2v-2v-2h-1v-2v-2v-2v-1h-1v-2v-1h-1v-1h-2v1h1v1h-1v-1h-1v2v1h1v1h-1v2v2v2h-2ZM244,66v1h2v-2h-1v1ZM247,66v1h2v-1ZM242,67v1h1v-1ZM83,68v1h2h2h1v-1h-2h-2ZM92,68v1h1v-1ZM97,68v1h2v-1ZM102,68v2h1v-2ZM108,68v1h2h2h2h2h2h2h2h2h2h2h2h1v-1h-2h-2h-2h-2h-2h-2h-2h-2h-2h-2h-2ZM141,68v1h2h1v-1h-2ZM147,68v1h2v-1ZM152,68v1h2h2h2h2v-1h-2h-2h-2ZM163,68v1h2h1v-1h-2ZM173,68v1h2h1v-1h-2ZM181,68v1h1v-1ZM243,68v1h1v-1ZM245,68v2h1v-2ZM151,69v1h1v-1ZM182,69v1h1v-1ZM81,70v1h1v1h-1v1h2h2v-1h1v-1h-1v-1h-2ZM147,70v2h2v-2ZM178,70v2h2v-2ZM242,70v2v1h1v-2v-1ZM244,70v1h1v-1ZM73,71v2v1h1v-2v-1ZM75,71v2h1v-2ZM98,71v1h1v-1ZM124,71v1h2h2v-1h-2ZM134,71v1h2h2h2v-1h-2h-2ZM145,71v1h1v-1ZM171,71v1h1v-1ZM173,71v1h1v-1ZM173,73v2v1h1v2h1v1h1v-1h2v-2h-1v-2h-1v-2v-1h-1v1h-1v1ZM182,71v1h1v-1ZM239,71v1h1v1h1v-2ZM108,72v1h1v-1ZM140,72v1h1v-1ZM166,72v1h2v-1ZM181,72v1h1v-1ZM237,73v1h1v-1ZM179,74v2h1v-2ZM69,75v2h1v1h1v1h2v-1h-1v-2h-1v-1ZM72,75v1h2v-1ZM237,75v1h1v-1ZM235,76v1h1v-1ZM66,78v2h1v-1h2v1h1v-2h-1v-1h-2v1ZM236,77v1h1v-1ZM233,79v1h2h1v-1h-1v-1h-1v1ZM237,78v2h1v-2ZM241,78v2h2v-2ZM171,79v1h1v-1ZM174,79v1h1v-1ZM176,79v1h1v-1ZM239,79v1h1v-1ZM65,80v2v1h1v-2v-1ZM173,80v1h1v-1ZM175,80v1h1v-1ZM232,80v2v2h2v-2h-1v-2ZM240,80v1h1v-1ZM62,81v1h1v-1ZM170,81v2h1v2h2v-1h-1v-2h-1v-1ZM234,81v1h2h1v-1h-2ZM63,82v2h1v-2ZM61,83v1h1v-1ZM236,83v2h2v-1h-1v-1ZM62,84v2h1v-2ZM65,84v1h2v-1ZM97,85v1h2h2h2v-2h-2h-2h-1v1ZM234,84v1h1v-1ZM167,85v1h1v-1ZM169,85v1h2v-1ZM230,85v1h1v-1ZM168,86v2h1v-2ZM170,87v1h1v-1ZM229,87v1h2h1v-1h-2ZM228,88v2h1v-2ZM59,89v2v1h1v-2v-1ZM162,91v1h2v-1h1v1h1v-1h1v-1h-2v-1h-1v1h-1v1ZM226,90v2h1v-1h1v-1ZM224,91v1h1v-1ZM159,92v1h2v-1ZM162,93v1h1v1h1v-1h1v-2h-1v1ZM166,92v1h1v-1ZM225,92v1h1v-1ZM153,98v1h2v1h1v1h2v-2v-1h1v1h2v-2h1v-2v-1h-1v1h-2v-2h-1v2v2h-2v1h-2ZM159,97h1v1h-1ZM223,94v1h2v-2h-1v1ZM60,94v2h1v-2ZM222,95v2h1v-2ZM220,96v1h1v-1ZM224,96v1h1v-1ZM230,96v1h1v-1ZM219,97v1h1v-1ZM160,100v1h1v-1ZM217,100v1h1v-1ZM60,101v2h1v-2ZM159,101v1h1v-1ZM216,101v1h1v-1ZM216,103v2h1v-1h1v-1h1v-2h-1v1h-1v1ZM155,103v2h1v-2ZM218,104v2h1v-2ZM60,105v1h1v-1ZM152,105v1h1v-1ZM156,105v1h1v-1ZM153,106v2h1v-2ZM214,106v1h1v-1ZM212,108v1h2v-2h-1v1ZM60,109v2v2v2v1h1v-2v-2v-2v-1ZM146,109v1h1v-1ZM147,111v1h1v2h1v-1h1v1h1v-2h1v-2h-1v-1h-2v1h1v2h-1v-1ZM58,110v2v2v2v2v2v2h1v-2v-2v-2v-2v-2v-2ZM134,110v1h1v1h1v-2ZM209,111v1h1v1h1v-2ZM212,111v1h1v-1ZM207,113v1h1v-1ZM147,114v2h1v-2ZM149,114v1h1v-1ZM208,114v1h1v-1ZM211,114v1h2v-1ZM122,115v2h2h2h1v-1h1v-1h-2h-2ZM142,115v2h1v-1h1v-1ZM139,121v1h1v2v1h1v-1h1v-1h1v-2v-1h1v-1h1v-1h2h1v-1h-1v-1h-1v1h-2v1h-1v1h-1v2v1h-1v-1ZM205,116v1h1v-1ZM207,116v1h1v-1ZM141,117v2h1v-2ZM204,117v1h1v-1ZM60,118v1h1v-1ZM206,118v1h1v-1ZM200,122v1h1v1h-1v2h1v-1h1v-2v-1h2v-1h1v-2h-1v1h-2v1h-1v1ZM206,120v2h1v-2ZM144,121v1h1v-1ZM138,122v2h1v-2ZM141,125v1h1v-1ZM202,126v2v2v2v2h2v-2v-2v-2h1v-2h-1v-1h-1v1ZM134,127v2h1v2h1v-1h1v-1h-1v-2h1v-1h-2v1ZM140,126v1h1v-1ZM199,126v1h1v-1ZM74,128v2v2v2h2h2v-2v-2v-2h-2ZM195,129v1h1v-1ZM194,130v1h1v-1ZM195,131v1h2v-2h-1v1ZM134,131v1h1v-1ZM60,132v2h1v-2ZM194,132v2h1v-2ZM200,132v2h1v-2ZM103,134v1h1v2h1v-1h1v-1h1v-1h2v-1h-2h-2h-1v1ZM132,134v1h2v-2h-1v1ZM192,133v1h1v-1ZM197,133v1h2v-1ZM130,134v1h1v-1ZM193,134v1h1v-1ZM131,135v2h1v-2ZM194,135v2h1v-2ZM128,136v1h1v1h1v-2ZM191,136v2h1v-2ZM126,138v1h1v-1ZM190,138v1h1v-1ZM128,139v1h2h1v-1h-2ZM188,140v1h1v2h1v-2v-2h-1v1ZM192,139v1h1v-1ZM124,140v1h2v-1ZM194,140v1h1v-1ZM122,141v1h1v-1ZM186,141v1h1v-1ZM122,144v1h1v1h1v1h1v-2v-1h1v1h1v-2v-1h-2v1h-1v-1h-1v2ZM185,142v1h1v-1ZM190,143v2v1h2h1v-2v-1h-2ZM121,145v1h1v-1ZM183,145v1h1v-1ZM60,146v1h1v-1ZM85,146v2v2v2h2h2h2h1v-1h-1v-1h1v-2v-1h-1v-1h-2h-2ZM114,147v1h2h2h1v1h1v1h2v-2h-1v-1h-2v-1h-2h-2v1ZM182,146v2v1h1v-2v-1ZM198,146v2v2v2h2h1v-2v-2v-2h-2ZM122,147v1h1v-1ZM60,149v1h1v-1ZM180,149v1h1v-1ZM58,150v1h1v-1ZM179,150v1h1v-1ZM181,150v1h1v-1ZM121,151v1h1v-1ZM120,152v1h1v-1ZM182,152v1h1v-1ZM117,153v2h1v-2ZM177,153v1h1v-1ZM179,153v1h2v-1ZM176,154v1h1v-1ZM178,154v1h1v-1ZM58,155v2h1v-2ZM116,155v1h1v-1ZM118,155v1h1v-1ZM177,155v1h1v-1ZM180,156v1h2v-2h-1v1ZM117,156v1h1v-1ZM115,157v1h1v-1ZM179,157v1h1v-1ZM182,157v1h1v-1ZM110,158v2h1v-2ZM173,158v1h1v-1ZM172,161v1h2v1h-1v2h1v-1h1v-1h1v-1h1v-2v-2h-2v1h-1v1h-1v1ZM174,161h1v1h-1ZM98,159v1h1v-1ZM113,159v1h1v-1ZM111,160v1h2v-1ZM114,160v1h1v-1ZM109,161v2h1v1h-1v2h2v-2v-2v-1ZM105,163v1h1v1h2v-1h1v-1h-1v-1h-1v1ZM112,162v2h1v-2ZM170,162v1h1v-1ZM67,163v2h2h2h2v-2h-2h-2ZM171,163v1h1v-1ZM176,163v2h1v-2ZM104,165v2v2h1v-2h1v-1h-1v-1ZM168,165v2h1v-2ZM169,167v2h1v-2ZM60,168v1h1v-1ZM167,168v1h1v-1ZM100,170v2h1v1h1v-1h1v-1h-1v-2h-1v1ZM106,169v1h1v-1ZM164,170v1h2v1h-2v2h2h1v1h1v-2h1v-1h1v-1h-1v-2h-1v2h-1v-1h-1v-1h-1v1ZM103,170v1h1v-1ZM163,171v1h1v-1ZM260,171v2v2v2v2v2v1h1v2h1v-2v-1h-1v-2v-2v-2v-2v-2ZM58,173v1h1v-1ZM103,173v1h1v-1ZM102,174v1h1v-1ZM97,175v1h1v-1ZM164,176v1h2h2v-1h-1v-1h-1v1ZM98,176v1h1v-1ZM161,176v1h1v-1ZM70,183v2h1v1h2h2h2h2v-2v-2h-1v-2v-2v-1h-2h-2v2v2v1h-2v1ZM97,177v2h1v-2ZM99,177v2h1v-2ZM159,177v1h1v-1ZM160,178v1h2v-1ZM163,178v1h2v-1ZM98,179v1h1v-1ZM157,179v1h1v-1ZM159,179v1h1v-1ZM165,180v1h1v1h2v-2h-1v-1h-1v1ZM158,180v1h1v-1ZM161,180v2h1v-2ZM96,182v2h1v-2ZM157,182v1h1v-1ZM159,182v1h1v-1ZM88,183v2v2v1h1v2v1h1v-1h2h1v-1h-1v-1h-2v-1h1v-1h-1v-2v-1ZM154,183v1h1v-1ZM255,183v1h1v-1ZM257,183v2v2h1v-2v-2ZM91,184v2h1v-2ZM155,184v1h1v-1ZM259,184v2h1v-2ZM95,185v1h1v-1ZM157,185v1h2v-1ZM153,186v1h1v-1ZM156,186v2h1v-2ZM92,187v1h1v-1ZM151,187v1h1v-1ZM258,187v2h1v-1h2v-1h-2ZM86,188v2h1v-1h1v-1ZM150,188v1h1v-1ZM154,188v1h1v-1ZM157,188v1h2v-1ZM60,189v1h1v-1ZM151,189v1h1v-1ZM85,190v2v2v1h1v-2v-2v-1ZM149,190v1h1v-1ZM152,190v1h1v-1ZM255,190v2h1v-2ZM257,191v1h2v-2h-1v1ZM60,191v1h1v-1ZM154,191v1h1v-1ZM147,192v1h1v1h1v-2ZM150,192v1h1v-1ZM256,192v1h1v-1ZM89,193v1h1v-1ZM154,193v2h1v-2ZM87,194v1h1v-1ZM147,194v1h1v-1ZM255,194v1h1v-1ZM76,195v2v1h2v-2h1v-1h-2ZM86,195v2v1h1v-1h1v-1h-1v-1ZM145,195v2v1h1v-2v-1ZM207,195v2v2v2h2h1v-2v-2v-2h-2ZM239,195v1h2h2v-1h-2ZM244,195v1h1v-1ZM252,195v1h1v-1ZM83,196v2h2v-2ZM251,196v1h1v-1ZM152,198v2v1h2h2h2v-2v-2h-2h-2h-1v1ZM252,197v1h1v-1ZM254,197v1h1v-1ZM144,198v2h1v-2ZM249,198v1h1v-1ZM83,199v2v1h1v-2h1v-1ZM142,199v1h1v-1ZM248,199v1h1v-1ZM250,200v2h1v-1h1v-2h-1v1ZM143,200v2h1v-2ZM247,200v1h1v-1ZM145,201v1h1v-1ZM240,203v2h2v-1h2v-2h-1v-1h-2v2ZM248,201v1h1v-1ZM81,202v1h1v-1ZM245,202v1h1v-1ZM80,203v1h1v-1ZM141,204v2v1h1v-2h1v-2h-1v1ZM246,203v1h1v-1ZM75,205v1h1v2h-1v2h1v-1h1v-1h1v-1h1v-1h-1v-2h-2v1ZM144,205v2h1v-1h1v-2h-1v1ZM245,204v1h1v-1ZM80,205v1h1v-1ZM237,205v1h2v-1ZM242,205v1h2v-1ZM74,206v1h1v-1ZM138,206v1h1v-1ZM239,206v1h1v-1ZM73,208v2h1v-2ZM74,210v2h1v-2ZM76,210v1h1v-1ZM69,213v1h1v1h2v1h1v-1h1v-1h-1v-1h-2ZM74,213v1h1v-1ZM69,216v2v1h2v-1h-1v-2ZM60,217v1h1v-1ZM61,220v2h1v2h2v-1h2v-1h2v-2h-1v1h-2h-2v-2h-1v1ZM65,219v1h1v-1ZM68,219v1h1v-1ZM65,224v1h1v-1ZM63,225v1h1v-1ZM61,229v1h1v-1ZM249,251v1h2h2h2h1v1h2v1h-2h-1v1h1v2v2v2v2v2v2v2v2v2v2v2v2v2v2v2v2v2v2h1v-2v-2v-2v-2v-2v-2v-2v-2v-2v-2v-2v-2v-2v-2v-2v-2v-1h1v-1h1v-1h1v2h-1v1h-1v2v1h1v-2h2v-2v-2v-2h-1v-1h1v-2v-2v-2v-2v-2v-2v-2v-2v-2h-1v2v2h-1v1h-1v2h1v1h-1v1h1v1h-1v2h2v1h-2v2h2v1h-1v1h-2v-1h1v-1h-2h-1v1h-2h-2ZM258,237v2h1v-2ZM123,249v1h2v-1ZM127,249v2h1v-1h2h1v-1h-2ZM132,249v1h2v-1ZM64,250v2h2v-1h-1v-1ZM67,250v1h1v-1ZM67,252v1h2h2h2v1h2h2h2v-1h2h2h2v-1h2h2h2h2h2h2v2h1v-1h1v-2h-1v-1h-1v1h-2h-2h-2h-2h-2h-2h-2h-2h-2h-2h-2h-2v1h-2h-2ZM99,250v1h1v-1ZM120,250v1h1v-1ZM122,250v1h1v-1ZM129,252v1h2h1v-1h2h2v-1h2v-1h-2h-1v1h-2h-2h-1v1ZM236,250v1h1v-1ZM248,250v1h1v-1ZM62,251v2h2v-1h-1v-1ZM100,251v1h1v-1ZM163,251v2v2v1h1v1h1v-2h-1v-2v-2ZM171,251v1h2h2h2v2h2h2h1v-2h2v-1h-2h-2h-2h-2h-2h-2ZM193,251v1h1v-1ZM232,251v1h1v-1ZM244,251v1h2h2v-1h-2ZM122,253v1h2h1v-1h2h1v-1h-2h-2v1ZM136,252v1h2h2v-1h-2ZM187,252v2h2v-1h-1v-1ZM191,252v1h1v-1ZM234,252v1h2v-1ZM66,253v1h1v-1ZM115,253v2h1v2h-1v2h1v-1h1v-1h1v1h1v-2h-1v-2h-2v-1ZM118,253v1h1v-1ZM132,253v1h2h1v-1h-2ZM139,254v1h2h1v-1h-1v-1h-1v1ZM167,253v1h1v1h2v-1h1v-1h-2ZM192,253v1h1v-1ZM192,255v1h1v2h1v-1h1v-1h2h1v1h-1v2h1v1h2h1v-2h1v-1h-1v-1h-2v-1h-1v-1h-1v-1h-2v1h1v1h-1v-1h-2v1ZM198,258h1v-1h1v2h-2ZM198,253v1h1v-1ZM227,255v1h2v-1h1v1h1v-1h2v-1h-1v-1h-1v1h-2v-1h-1v2ZM244,253v1h2h2h2h2h2h1v-1h-2h-2h-2h-2h-2ZM278,253v1h1v-1ZM70,254v1h2h1v-1h-2ZM120,254v1h1v-1ZM128,254v1h1v-1ZM135,254v1h2v-1ZM144,254v1h1v-1ZM235,254v1h2v-1ZM62,255v1h1v-1ZM64,255v1h1v-1ZM91,255v2v2h1v2h1v-2h1v-1h1v-2h-1v1h-1v1h-1v-2h1v-1ZM95,255v1h1v-1ZM114,255v1h1v-1ZM119,255v1h1v-1ZM123,255v1h1v-1ZM134,255v1h1v-1ZM142,255v1h2v-1ZM166,255v2v2h1v-2h1v-2ZM190,255v1h1v-1ZM233,255v1h2v-1ZM112,257v2h1v-1h1v-2h-1v1ZM139,257v1h2v-1h1v-1h-2v1ZM144,256v1h1v-1ZM189,256v1h1v-1ZM202,256v1h1v-1ZM223,257v1h1v1h2v-1h1v-2h-1v1h-1v-1h-1v1ZM236,256v1h1v-1ZM96,257v1h1v-1ZM145,257v1h1v2v1h-1v1h2v2h1v-2h1v-1h1v-1h-2v1h-1v-1h1v-2h-1v-1ZM203,257v1h1v-1ZM229,257v1h2v-1ZM117,258v1h1v-1ZM141,258v1h2h1v-1h-2ZM163,258v2v2v2h1v1h-1v2h2v1h2h1v-2v-2v-2h-1v2h-1v-2v-2v-1h-1v-1ZM202,258v2h1v-2ZM228,258v1h1v-1ZM111,259v1h1v-1ZM144,259v1h1v-1ZM167,259v2h1v-2ZM196,259v1h1v-1ZM223,259v2h1v1h-1v2v1h2v-1h-1v-1h1v-1h1v-1h-1v-1h-1v-1ZM227,259v1h1v-1ZM143,260v1h1v-1ZM200,261v1h1v1h1v1h1v1h1v-2h-1v-2h-1v-1h-1v1ZM205,260v1h1v-1ZM221,260v1h1v-1ZM88,261v2h1v-2ZM91,261v1h1v-1ZM109,261v1h1v-1ZM111,261v1h2v-1ZM150,261v1h1v-1ZM222,261v1h1v-1ZM260,261v2v2v2v2v2v2v2v2v2v2v2v2v1h1v-2v-2v-2v-2v-2v-2v-2v-2v-2v-2v-2v-2v-1ZM92,262v1h1v-1ZM113,262v1h1v-1ZM151,262v1h1v-1ZM204,262v1h1v-1ZM86,263v2h2v-1h-1v-1ZM109,263v1h1v-1ZM219,263v1h1v-1ZM258,263v2v2v2v2v2v2v2v2v2v2v2v2h1v-2v-2v-2v-2v-2v-2v-2v-2v-2v-2v-2v-2ZM148,264v2h1v-1h1v2h-1v2h1v1h2h1v-1h-1v-1h-1v-1h1v-2h-1v-1h-2ZM220,264v1h1v2h2v-2h-1v-1ZM84,265v2v1h1v-1h1v-2ZM108,266v2h1v1h1v-2v-1h1v-1h-2v1ZM204,268v1h1v2v2v1h1v-2h1v2h1v-2v-2v-1h-1v-2v-2h-2v2v1ZM219,265v1h1v-1ZM87,266v1h1v-1ZM86,267v2h1v-2ZM106,267v2h2v-1h-1v-1ZM208,267v2h1v-2ZM219,267v1h2v-1ZM81,268v1h1v-1ZM153,268v1h1v-1ZM163,268v2v2v2v2v2v2v2v2v2v2v2v2v2v2v1h1v-1h1v1h1v-1h1v-1h-1v-2h-1v-1h-1v-2v-2v-2v-2v-2v-2v-2v-2v-2v-2v-2v-2ZM164,294h1v1h-1ZM217,268v1h1v-1ZM82,269v1h2v-1ZM147,271v1h1v2h2v-1h2v-1h-1v-1h-1v1h-1v-2v-1h-1v2ZM218,269v2h1v2v2h1v-1h1v-2h-1v-2v-1ZM222,269v2v2v2v2v1h1v-2v-2v-2v-2v-1ZM84,270v1h1v-1ZM86,270v1h1v-1ZM104,271v2v2v2v1h1v-2h1v-1h-1v-1h2v-2h1v-2h-1v1h-2ZM110,270v1h1v-1ZM78,272v1h1v-1ZM112,272v2h2v-1h-1v-1ZM115,272v2h1v2h2h2v-1h2h2h2h2h2h2h1v-1h1v-1h-2h-2h-2h-2h-1v-1h-2v1h-1v-1h-1v1h-2h-2h-1v-1ZM139,272v1h2v-1ZM203,272v2h1v-2ZM78,274v1h2v-2h-1v1ZM81,273v2h1v-2ZM146,273v1h1v-1ZM83,274v1h1v-1ZM107,274v2v2v2v1h1v-2v-2v-2v-1ZM109,274v2h1v-2ZM111,274v1h1v-1ZM114,274v1h1v-1ZM165,274v2v2v2h1v-2v-2v-2ZM80,275v2h2v-1h-1v-1ZM151,275v1h1v1h1v-2ZM203,275v2v1h1v-2v-1ZM207,275v2v2v2v2v2v1h1v-2v-2v-2v-2v-2v-1ZM78,276v2v1h2v-2h-1v-1ZM122,276v1h1v-1ZM76,277v2h1v-2ZM110,277v1h1v-1ZM218,277v2v1h1v1h-1v2h1v-1h1v-2v-2h1v-1h-2ZM221,278v2h1v-2ZM74,279v1h1v-1ZM77,279v1h1v-1ZM203,279v2v2v2v2v2v2v2v1h1v-1h1v-1h-1v-2v-2v-2v-2v-2v-2v-1ZM71,281v1h2v2h2v-2h-1v-1h-1v-1h-1v1ZM75,281v1h2v-2h-1v1ZM78,280v1h1v-1ZM105,280v1h1v-1ZM109,280v2v1h1v-2v-1ZM205,280v1h1v-1ZM217,280v1h1v-1ZM106,281v2h1v-2ZM70,283v2v2v1h1v-2h1v-1h-1v-1h1v-1ZM110,283v2h1v-2ZM165,283v2h1v-2ZM112,284v1h1v-1ZM219,284v1h1v-1ZM221,284v2h1v-2ZM224,284v1h1v-1ZM73,285v2h1v-2ZM111,285v2h1v-2ZM147,285v2h1v-2ZM150,285v2h1v-2ZM222,286v2h1v-1h1v1h1v-2h-1v-1h-1v1ZM225,285v1h1v-1ZM144,287v1h2h1v-1h-1v-1h-1v1ZM220,286v1h1v-1ZM148,287v2h1v-2ZM227,287v2h1v-2ZM258,289v2v1h1v-2h2v-2v-1h-1v1h-1v1ZM67,288v1h1v-1ZM69,288v2v2v1h1v-1h2h2v-1h-2v-2h-1v2h-1v-2v-1ZM72,288v1h1v-1ZM110,288v1h1v-1ZM112,288v2h1v-1h1v-1ZM115,288v1h1v-1ZM150,288v1h1v-1ZM206,288v2h1v2h1v-2v-1h-1v-1ZM223,288v1h1v-1ZM225,288v2h1v-2ZM65,289v1h1v-1ZM116,289v1h1v-1ZM142,289v1h1v-1ZM144,289v2h2v-1h-1v-1ZM147,289v1h1v-1ZM149,289v1h1v-1ZM228,289v1h1v1h1v2h-1v1h2h2v-2h-1v-2h-2v-1ZM66,290v1h1v-1ZM110,290v1h1v-1ZM141,290v1h1v-1ZM223,290v1h1v-1ZM226,290v1h1v-1ZM234,290v1h1v-1ZM64,292v2h1v-1h1v-2h-1v1ZM77,291v1h1v-1ZM79,291v1h1v-1ZM81,291v1h2h2h2h2h2h1v-1h-2h-2h-2h-2h-2ZM111,291v1h1v-1ZM142,291v1h1v-1ZM145,292v1h2v-2h-1v1ZM227,291v1h1v-1ZM238,291v1h1v1h1v-1h2h2h1v1h2h1v-2h-2h-2h-2h-2ZM249,291v1h1v-1ZM251,291v1h2h1v2h1v-1h1v-2h-2h-2ZM260,291v1h1v-1ZM67,292v1h1v-1ZM112,292v1h1v-1ZM114,292v1h2v1h2v2v1h1v-1h1v2h2h1v-1h2v-1h1v-1h1v-1h-2v1h-2h-1v-1h-1v-2h-2v1h-2v-1h-2ZM137,292v1h1v-1ZM228,292v1h1v-1ZM250,292v1h1v-1ZM62,293v1h1v-1ZM66,293v2h1v-2ZM70,293v1h2h1v-1h-2ZM83,293v1h2v-1ZM91,294v2h2h2h2v-1h1v-2h-1v1h-2h-2ZM123,293v1h1v-1ZM126,296v1h2v1h1v-1h1v1h2v1h2h1v-1h-1v-1h2v1h1v-2h-1v-2v-1h-1v2v1h-1v-1h-2v1h-2h-2ZM138,293v2v1h1v1h2v-1h-1v-1h-1v-2ZM143,293v1h1v-1ZM167,293v1h1v-1ZM206,293v1h1v-1ZM236,293v1h2h1v-1h-2ZM237,296v1h2h2v-1h1v-1h2v1h2h2v-1h-2v-1h-2v-1h-2v1h-1v1h-2v1ZM251,293v1h1v-1ZM250,295v1h1v1h2v-1h2h2h2h2v-2v-1h-2v1h-1v1h-2h-2h-2ZM61,294v2h1v-2ZM129,294v1h2h1v-1h-2ZM141,294v1h1v-1ZM144,294v1h1v-1ZM204,294v2h1v-2ZM233,294v1h2h1v-1h-2ZM248,294v1h1v-1ZM67,295v1h1v-1ZM73,295v1h2h2h2v1h2h1v-1h2v-1h-2h-2h-2h-2h-2ZM98,295v1h1v-1ZM116,295v1h1v-1ZM207,295v1h1v-1ZM231,295v1h1v-1ZM236,295v1h1v-1ZM234,296v1h1v-1ZM138,297v1h1v-1ZM124,298v1h2v-1Z"/>
<path fill="#1f647b" d="M183,68v2h1v-1h1v-1ZM76,70v1h2v-1ZM230,83v1h1v-1ZM222,94v1h1v-1ZM218,99v1h1v-1ZM154,107v1h1v-1ZM210,110v1h1v-1ZM142,123v1h1v-1ZM198,125v1h1v-1ZM106,170v1h1v-1ZM161,174v1h1v-1ZM97,182v1h1v-1ZM137,206v1h1v-1ZM69,219v1h1v-1ZM59,232v1h1v-1ZM261,234v1h1v-1ZM59,250v1h2v-1ZM101,250v1h1v-1ZM270,250v1h2v-1ZM275,250v2h1v-2ZM280,250v1h1v-1ZM277,254v1h1v-1ZM63,255v1h1v-1ZM148,258v1h1v-1ZM94,259v1h1v-1ZM109,259v1h1v-1ZM204,259v1h1v-1ZM108,261v1h1v-1ZM86,262v1h1v-1ZM91,263v1h1v-1ZM202,266v1h1v-1ZM82,267v1h1v-1ZM81,269v1h1v-1ZM79,271v1h1v-1ZM82,275v1h1v-1ZM153,276v1h1v-1ZM223,280v1h1v-1ZM105,281v1h1v-1ZM152,284v1h1v-1ZM108,287v1h1v-1ZM97,291v2h1v-2ZM60,296v1h1v-1ZM100,296v1h1v-1ZM203,296v1h1v-1ZM208,296v1h1v-1Z"/>
<path fill="#477b93" d="M261,42v1h2v-2h-1v1ZM260,43v1h1v-1ZM259,44v1h1v-1ZM262,44v2v2v2h1v-2v-2v-2ZM258,45v1h1v-1ZM257,47v1h1v-1ZM256,48v1h1v-1ZM253,52v1h1v-1ZM262,52v2v2h1v-2v-2ZM252,53v1h1v-1ZM250,56v1h1v-1ZM262,58v2h1v-2ZM248,59v1h1v-1ZM247,60v1h1v-1ZM246,61v1h1v-1ZM262,61v2h1v-2ZM244,64v1h1v-1ZM262,64v2h1v-2ZM243,65v1h1v-1ZM262,67v2v2v2h1v-2v-2v-2ZM82,68v1h1v-1ZM185,68v1h1v-1ZM241,68v1h1v-1ZM78,69v1h1v-1ZM184,69v1h1v-1ZM240,69v1h1v-1ZM75,70v1h1v-1ZM183,70v1h1v-1ZM71,72v1h1v-1ZM238,72v1h1v-1ZM68,74v1h1v-1ZM180,74v1h1v-1ZM67,75v1h1v-1ZM262,75v2v2v2v1h1v-2v-2v-2v-1ZM66,76v1h1v-1ZM65,77v1h1v-1ZM178,77v1h1v-1ZM234,77v1h1v-1ZM64,78v1h1v-1ZM177,78v1h1v-1ZM63,79v2h1v-2ZM231,81v1h1v-1ZM174,82v1h1v-1ZM230,82v1h1v-1ZM173,83v1h1v-1ZM229,84v1h1v-1ZM60,85v1h1v-1ZM228,85v1h1v-1ZM171,86v1h1v-1ZM59,88v1h1v-1ZM226,88v1h1v-1ZM262,88v2v2v2v2v2v2h1v-2v-2v-2v-2v-2v-2ZM225,89v1h1v-1ZM168,90v1h1v-1ZM224,90v1h1v-1ZM167,91v1h1v-1ZM58,92v2v2v2v2v2v2v2v2v2h1v-2v-2v-2v-2v-2v-2v-2v-2v-2ZM222,93v1h1v-1ZM221,94v1h1v-1ZM164,95v1h1v-1ZM163,96v1h1v-1ZM218,98v1h1v-1ZM161,99v1h1v-1ZM215,102v1h1v-1ZM158,103v1h1v-1ZM157,104v1h1v-1ZM214,104v1h1v-1ZM262,104v2h1v-2ZM213,105v1h1v-1ZM212,106v1h1v-1ZM155,107v1h1v-1ZM154,108v1h1v-1ZM262,108v2v2v2v2h1v-2v-2v-2v-2ZM153,109v1h1v-1ZM210,109v1h1v-1ZM209,110v1h1v-1ZM152,111v1h1v-1ZM208,111v1h1v-1ZM151,112v1h1v-1ZM206,114v1h1v-1ZM148,116v1h1v-1ZM203,118v1h1v-1ZM262,118v2h1v-2ZM202,119v1h1v-1ZM145,120v1h1v-1ZM58,122v2v2v2v2v2v2v2v2v2v2v2v2v2v2h1v-2v-2v-2v-2v-2v-2v-2v-2v-2v-2v-2v-2v-2v-2ZM143,122v1h1v-1ZM199,123v1h1v-1ZM142,124v1h1v-1ZM262,124v2v2h1v-2v-2ZM197,126v1h1v-1ZM196,127v1h1v-1ZM139,128v1h1v-1ZM138,129v1h1v-1ZM137,130v1h1v-1ZM262,130v2v1h1v-2v-1ZM193,131v1h1v-1ZM136,132v1h1v-1ZM135,133v1h1v-1ZM134,134v1h1v-1ZM262,134v2v2v1h1v-2v-2v-1ZM190,135v1h1v-1ZM133,136v1h1v-1ZM132,137v1h1v-1ZM131,138v1h1v-1ZM187,139v1h1v-1ZM186,140v1h1v-1ZM129,141v1h1v-1ZM262,141v2v1h1v-2v-1ZM128,142v1h1v-1ZM184,143v1h1v-1ZM126,145v1h1v-1ZM262,145v1h1v-1ZM125,146v1h1v-1ZM181,147v1h1v-1ZM262,147v2v1h1v-2v-1ZM180,148v1h1v-1ZM123,149v1h1v-1ZM122,150v1h1v-1ZM58,151v2v2h1v-2v-2ZM178,151v1h1v-1ZM177,152v1h1v-1ZM262,153v2h1v-2ZM119,154v1h1v-1ZM175,155v1h1v-1ZM174,156v1h1v-1ZM58,157v2v2v2v2v2v2v2v2h1v-2v-2v-2v-2v-2v-2v-2v-2ZM117,157v1h1v-1ZM262,157v2v2v2v2v1h1v-2v-2v-2v-2v-1ZM116,158v1h1v-1ZM115,159v1h1v-1ZM172,159v1h1v-1ZM171,160v1h1v-1ZM114,161v1h1v-1ZM113,162v1h1v-1ZM169,163v1h1v-1ZM168,164v1h1v-1ZM110,166v1h1v-1ZM109,167v1h1v-1ZM166,167v1h1v-1ZM262,167v2h1v-2ZM165,168v1h1v-1ZM107,170v1h1v-1ZM262,170v1h1v-1ZM106,171v1h1v-1ZM162,172v1h1v-1ZM262,173v1h1v-1ZM58,174v2v2v2v2v2v2v2v2v2v2v2v2v2v2v2v2v2v2v2v2v2v2v2v2v2v2v2v2v2v2v1h1v-1h1v-1h-1v-2v-2v-2v-2v-2v-2v-2v-2v-2v-2v-2v-2v-2v-2v-2v-2v-2v-2v-2v-2v-2v-2v-2v-2v-2v-2v-2v-2v-2v-1ZM104,174v1h1v-1ZM103,175v1h1v-1ZM262,175v2v2h1v-2v-2ZM159,176v1h1v-1ZM158,177v1h1v-1ZM101,178v1h1v-1ZM100,179v1h1v-1ZM156,180v1h1v-1ZM155,181v1h1v-1ZM97,183v1h1v-1ZM96,184v1h1v-1ZM153,184v1h1v-1ZM261,184v2h1v-2ZM152,185v1h1v-1ZM94,187v1h1v-1ZM93,188v1h1v-1ZM260,188v1h1v-1ZM149,189v1h1v-1ZM259,190v1h1v-1ZM91,191v1h1v-1ZM90,192v1h1v-1ZM258,192v1h1v-1ZM146,193v1h1v-1ZM257,194v1h1v-1ZM88,195v1h1v-1ZM256,195v1h1v-1ZM144,196v1h1v-1ZM143,197v1h1v-1ZM142,198v1h1v-1ZM85,199v1h1v-1ZM253,199v1h1v-1ZM84,200v1h1v-1ZM141,200v1h1v-1ZM252,200v1h1v-1ZM140,201v1h1v-1ZM249,202v1h1v-1ZM82,203v1h1v-1ZM247,203v1h1v-1ZM81,204v1h1v-1ZM137,205v1h1v-1ZM136,206v2h2h2h2h2h2h2h2h2h2h2v-1h-2h-2h-2h-2h-2h-2h-2h-2h-2h-1v-1ZM240,206v1h2v-1ZM157,207v1h2h2h2h2h2h2h2h2v-1h-2h-2h-2h-2h-2h-2h-2ZM174,207v1h2h2h2h2h2h2h2h2h2h2h2h2h2h2h2h2h2h2h2h2h2h2h2v-1h-2h-2h-2h-2h-2h-2h-2h-2h-2h-2h-2h-2h-2h-2h-2h-2h-2h-2h-2h-2h-2h-2ZM221,207v1h2h2h2h2h2h2h2h1v-1h-2h-2h-2h-2h-2h-2h-2ZM78,208v1h1v-1ZM77,209v1h1v-1ZM75,212v1h1v-1ZM72,216v1h1v-1ZM71,217v1h1v-1ZM69,220v1h1v-1ZM68,221v1h1v-1ZM67,222v1h1v-1ZM66,223v2h1v-2ZM65,225v1h1v-1ZM64,226v1h1v-1ZM62,229v1h1v-1ZM61,230v1h1v-1ZM261,233v1h2v-1ZM260,234v1h1v-1ZM259,235v1h1v-1ZM258,236v1h1v-1ZM262,240v2v2v1h1v-2v-2v-1ZM262,246v2v1h1v-2v-1ZM127,248v1h2h2v-1h-2ZM122,249v1h1v-1ZM134,249v1h2v-1ZM257,249v1h1v-1ZM138,250v1h1v-1ZM163,250v1h1v-1ZM189,250v1h2v-1ZM235,250v1h1v-1ZM269,250v1h1v-1ZM272,250v1h1v-1ZM274,250v2h1v-2ZM279,250v2h2v2v2h1v-2v-2v-2h-1v1h-1v-1ZM60,251v2h1v-2ZM117,251v1h1v-1ZM140,251v1h1v-1ZM194,251v1h1v-1ZM262,251v2v2h1v-2v-2ZM270,251v2v1h1v1h-1v1h2v-2v-2v-1ZM276,251v1h1v-1ZM100,252v1h1v-1ZM116,252v1h1v-1ZM142,252v1h1v-1ZM196,252v1h1v-1ZM99,253v1h1v-1ZM114,253v1h1v-1ZM143,253v1h1v-1ZM274,253v2v1h1v-2v-1ZM277,253v1h1v-1ZM61,254v1h1v-1ZM113,254v1h1v-1ZM145,254v1h1v-1ZM200,254v1h1v-1ZM226,254v1h1v-1ZM124,255v1h1v-1ZM133,255v1h1v-1ZM146,255v1h1v-1ZM201,255v1h1v-1ZM225,255v1h1v-1ZM277,255v1h1v-1ZM88,256v1h1v-1ZM97,256v1h1v-1ZM111,256v1h1v-1ZM121,256v1h1v-1ZM136,256v1h1v-1ZM169,256v1h1v-1ZM187,256v1h2v-1ZM237,256v1h1v-1ZM255,256v1h1v-1ZM110,257v1h1v-1ZM119,257v1h1v-1ZM148,257v1h1v-1ZM192,257v1h1v-1ZM233,257v1h1v-1ZM262,257v2v2h1v-2v-2ZM88,258v1h1v-1ZM95,258v1h1v-1ZM109,258v1h1v-1ZM140,258v1h1v-1ZM194,258v1h1v-1ZM204,258v1h1v-1ZM222,258v1h1v-1ZM231,258v1h1v-1ZM87,259v1h1v-1ZM116,259v1h1v-1ZM141,259v1h1v-1ZM149,259v1h1v-1ZM169,259v1h1v-1ZM205,259v1h1v-1ZM94,260v1h1v-1ZM115,260v1h1v-1ZM142,260v1h1v-1ZM150,260v1h1v-1ZM197,260v1h1v-1ZM228,260v1h1v-1ZM86,261v1h1v-1ZM93,261v1h1v-1ZM107,261v1h1v-1ZM114,261v1h1v-1ZM198,261v1h1v-1ZM206,261v1h1v-1ZM220,261v1h1v-1ZM227,261v1h1v-1ZM85,262v1h1v-1ZM144,262v1h1v-1ZM199,262v1h1v-1ZM226,262v1h1v-1ZM106,263v1h1v-1ZM145,263v1h1v-1ZM200,263v1h1v-1ZM207,263v1h1v-1ZM262,263v2h1v-2ZM84,264v1h1v-1ZM91,264v1h1v-1ZM112,264v1h1v-1ZM152,264v1h1v-1ZM169,264v2v2v2v2v2v2v2v1h1v-2v-2v-2v-2v-2v-2v-2v-1ZM83,265v1h1v-1ZM90,265v1h1v-1ZM105,265v1h1v-1ZM146,265v1h1v-1ZM201,265v1h1v-1ZM218,265v1h1v-1ZM224,265v1h1v-1ZM82,266v1h1v-1ZM89,266v1h1v-1ZM111,266v1h1v-1ZM153,266v2h1v-2ZM208,266v1h1v-1ZM147,267v1h1v-1ZM202,267v2h1v-2ZM217,267v1h1v-1ZM223,267v1h1v-1ZM88,268v1h1v-1ZM110,268v2h1v-2ZM80,269v1h1v-1ZM87,269v1h1v-1ZM104,269v2h1v-2ZM79,270v1h1v-1ZM216,270v2v2v2v2v2h1v-2v-2v-2v-2v-2ZM154,271v2v2v2h1v-2v-2v-2ZM85,272v1h1v-1ZM203,297v1h2h2h2h1v-2v-2v-2v-2v-2v-2v-2v-2v-2v-2v-2v-2v-2h-1v2v2v2v2v2v2v2v2v2v2v2v2v1h-2h-2ZM77,273v1h1v-1ZM84,273v1h1v-1ZM76,274v1h1v-1ZM75,276v1h1v-1ZM74,277v1h1v-1ZM81,277v1h1v-1ZM73,278v1h1v-1ZM80,278v1h1v-1ZM104,278v2h1v-2ZM110,278v2h1v-2ZM223,279v1h1v-1ZM262,279v2h1v-2ZM78,281v1h1v-1ZM111,281v1h1v-1ZM217,281v1h1v-1ZM224,281v1h1v-1ZM70,282v1h1v-1ZM77,282v1h1v-1ZM105,282v1h1v-1ZM169,282v2v2h1v-2v-2ZM262,282v1h1v-1ZM76,283v1h1v-1ZM112,283v1h1v-1ZM218,283v1h1v-1ZM225,283v1h1v-1ZM69,284v1h1v-1ZM106,284v1h1v-1ZM146,284v1h1v-1ZM226,284v1h1v-1ZM68,285v1h1v-1ZM75,285v1h1v-1ZM113,285v1h1v-1ZM152,285v1h1v-1ZM219,285v1h1v-1ZM227,285v1h1v-1ZM67,286v1h1v-1ZM74,286v1h1v-1ZM107,286v1h1v-1ZM114,286v1h1v-1ZM228,286v1h1v-1ZM262,286v1h1v-1ZM73,287v1h1v-1ZM151,287v1h1v-1ZM220,287v1h1v-1ZM229,287v1h1v-1ZM108,288v1h1v-1ZM143,288v1h1v-1ZM221,288v1h1v-1ZM230,288v1h1v-1ZM109,289v1h1v-1ZM169,289v2v1h1v-2v-1ZM222,289v1h1v-1ZM232,289v1h1v-1ZM64,290v1h1v-1ZM118,290v1h1v-1ZM140,290v1h1v-1ZM149,290v1h1v-1ZM63,291v1h1v-1ZM119,291v1h1v-1ZM139,291v1h1v-1ZM148,291v1h1v-1ZM224,291v1h1v-1ZM248,291v1h1v-1ZM250,291v1h1v-1ZM262,291v1h1v-1ZM98,292v1h1v-1ZM121,292v1h1v-1ZM136,292v1h1v-1ZM147,292v1h1v-1ZM225,292v1h1v-1ZM99,293v1h1v-1ZM113,293v1h1v-1ZM133,293v1h2v-1ZM146,293v1h1v-1ZM262,293v2h1v-2ZM114,294v1h1v-1ZM127,294v1h2v-1ZM145,294v1h1v-1ZM203,294v2h1v-2ZM228,294v1h1v-1ZM60,295v1h1v-1ZM143,295v1h1v-1ZM230,295v1h1v-1ZM59,296v2h2h2h2h2h2h2h2h2h2h2h2h2h2h2h2h2h2h2h2h2h2h1v-2h-1v1h-2h-2h-2h-2h-2h-2h-2h-2h-2h-2h-2h-2h-2h-2h-2h-2h-2h-2h-2h-2h-1v-1ZM141,296v1h1v-1ZM169,296v1h1v-1ZM233,296v1h1v-1ZM262,296v1h1v-1ZM163,297v1h2h2h2v-1h-2h-2ZM239,297v1h2h2h2h2h2h2h2h2h2h2h2h1v-1h-2h-2h-2h-2h-2h-2h-2h-2h-2h-2h-2ZM122,298v1h2v-1ZM135,298v1h2v-1ZM128,299v1h1v-1Z"/>
<path fill="#5999b1" d="M262,40v1h1v-1ZM261,41v1h1v-1ZM260,42v1h1v-1ZM262,43v1h1v-1ZM257,46v1h1v-1ZM255,49v1h1v-1ZM254,50v1h1v-1ZM262,50v2h1v-2ZM253,51v1h1v-1ZM251,54v1h1v-1ZM250,55v1h1v-1ZM262,56v2h1v-2ZM249,57v1h1v-1ZM248,58v1h1v-1ZM247,59v1h1v-1ZM262,60v1h1v-1ZM245,62v1h1v-1ZM244,63v1h1v-1ZM262,63v1h1v-1ZM242,66v1h1v-1ZM262,66v1h1v-1ZM86,67v1h2h2h1v-1h-2h-2ZM99,67v1h2h2h2h1v-1h-2h-2h-2ZM116,67v1h2h2h2h1v-1h-2h-2h-2ZM134,67v1h2h2h2v-1h-2h-2ZM150,67v1h1v-1ZM152,67v1h2h2h2v-1h-2h-2ZM167,67v1h2h2h1v-1h-2h-2ZM182,67v1h2v-1ZM241,67v1h1v-1ZM80,68v1h2v-1ZM76,69v1h2v-1ZM74,70v1h1v-1ZM239,70v1h1v-1ZM72,71v1h1v-1ZM183,71v1h1v-1ZM238,71v1h1v-1ZM70,72v1h1v-1ZM182,72v1h1v-1ZM69,73v1h1v-1ZM181,73v1h1v-1ZM262,73v2h1v-2ZM236,74v1h1v-1ZM180,75v1h1v-1ZM235,75v1h1v-1ZM179,76v1h1v-1ZM233,78v1h1v-1ZM232,79v1h1v-1ZM62,80v1h1v-1ZM176,80v1h1v-1ZM231,80v1h1v-1ZM175,81v1h1v-1ZM61,82v1h1v-1ZM262,82v2v2v2h1v-2v-2v-2ZM229,83v1h1v-1ZM60,84v1h1v-1ZM173,84v1h1v-1ZM172,85v1h1v-1ZM227,86v1h1v-1ZM59,87v1h1v-1ZM226,87v1h1v-1ZM170,88v1h1v-1ZM225,88v1h1v-1ZM169,89v1h1v-1ZM58,90v2h1v-2ZM223,91v1h1v-1ZM167,92v1h1v-1ZM222,92v1h1v-1ZM166,93v1h1v-1ZM165,94v1h1v-1ZM220,95v1h1v-1ZM164,96v1h1v-1ZM219,96v1h1v-1ZM163,97v1h1v-1ZM162,98v1h1v-1ZM217,99v1h1v-1ZM216,100v1h1v-1ZM262,100v2v2h1v-2v-2ZM160,101v1h1v-1ZM159,102v1h1v-1ZM214,103v1h1v-1ZM213,104v1h1v-1ZM157,105v1h1v-1ZM156,106v1h1v-1ZM262,106v2h1v-2ZM211,107v1h1v-1ZM210,108v1h1v-1ZM154,109v1h1v-1ZM209,109v1h1v-1ZM153,110v1h1v-1ZM207,112v1h1v-1ZM151,113v1h1v-1ZM150,114v1h1v-1ZM149,115v1h1v-1ZM205,115v1h1v-1ZM204,116v1h1v-1ZM262,116v2h1v-2ZM148,117v1h1v-1ZM203,117v1h1v-1ZM147,118v1h1v-1ZM146,119v1h1v-1ZM201,120v1h1v-1ZM262,120v2v2h1v-2v-2ZM200,121v1h1v-1ZM144,122v1h1v-1ZM143,123v1h1v-1ZM198,124v1h1v-1ZM197,125v1h1v-1ZM141,126v1h1v-1ZM140,127v1h1v-1ZM195,128v1h1v-1ZM262,128v2h1v-2ZM194,129v1h1v-1ZM138,130v1h1v-1ZM137,131v1h1v-1ZM192,132v1h1v-1ZM191,133v1h1v-1ZM262,133v1h1v-1ZM135,134v1h1v-1ZM190,134v1h1v-1ZM134,135v1h1v-1ZM189,136v1h1v-1ZM188,137v1h1v-1ZM132,138v1h1v-1ZM187,138v1h1v-1ZM131,139v1h1v-1ZM262,139v2h1v-2ZM130,140v1h1v-1ZM185,141v1h1v-1ZM129,142v1h1v-1ZM128,143v1h1v-1ZM127,144v1h1v-1ZM183,144v1h1v-1ZM262,144v1h1v-1ZM182,145v1h1v-1ZM181,146v1h1v-1ZM262,146v1h1v-1ZM125,147v1h1v-1ZM124,148v1h1v-1ZM179,149v1h1v-1ZM178,150v1h1v-1ZM262,150v2v1h1v-2v-1ZM122,151v1h1v-1ZM121,152v1h1v-1ZM120,153v1h1v-1ZM176,153v1h1v-1ZM175,154v1h1v-1ZM119,155v1h1v-1ZM262,155v2h1v-2ZM118,156v1h1v-1ZM173,157v1h1v-1ZM172,158v1h1v-1ZM115,160v1h1v-1ZM170,161v1h1v-1ZM169,162v1h1v-1ZM112,164v1h1v-1ZM111,165v1h1v-1ZM167,165v1h1v-1ZM166,166v1h1v-1ZM262,166v1h1v-1ZM165,167v1h1v-1ZM109,168v1h1v-1ZM108,169v1h1v-1ZM164,169v1h1v-1ZM262,169v1h1v-1ZM163,170v1h1v-1ZM262,171v2h1v-2ZM106,172v1h1v-1ZM105,173v1h1v-1ZM161,173v1h1v-1ZM160,174v1h1v-1ZM262,174v1h1v-1ZM159,175v1h1v-1ZM103,176v1h1v-1ZM102,177v1h1v-1ZM157,178v1h1v-1ZM262,179v2v2h1v-2v-2ZM99,181v1h1v-1ZM98,182v1h1v-1ZM154,182v1h1v-1ZM153,183v1h1v-1ZM96,185v1h1v-1ZM95,186v1h1v-1ZM151,186v1h1v-1ZM261,186v1h1v-1ZM150,187v1h1v-1ZM93,189v1h1v-1ZM260,189v1h1v-1ZM92,190v1h1v-1ZM148,190v1h1v-1ZM147,191v1h1v-1ZM259,191v1h1v-1ZM90,193v1h1v-1ZM258,193v1h1v-1ZM89,194v1h1v-1ZM145,194v1h1v-1ZM144,195v1h1v-1ZM257,195v1h1v-1ZM256,196v1h1v-1ZM87,197v1h1v-1ZM255,197v1h1v-1ZM86,198v1h1v-1ZM254,198v1h1v-1ZM141,199v1h1v-1ZM140,200v1h1v-1ZM84,201v1h1v-1ZM251,201v1h1v-1ZM83,202v1h1v-1ZM139,202v1h1v-1ZM250,202v1h1v-1ZM138,203v1h1v-1ZM248,203v1h1v-1ZM137,204v1h1v-1ZM246,204v1h1v-1ZM244,205v1h1v-1ZM80,206v1h1v-1ZM242,206v1h1v-1ZM79,207v1h1v-1ZM135,207v1h1v-1ZM156,207v1h1v-1ZM173,207v1h1v-1ZM220,207v1h1v-1ZM236,207v1h2h1v-1h-2ZM77,210v1h1v-1ZM76,211v1h1v-1ZM74,214v1h1v-1ZM73,215v1h1v-1ZM71,218v1h1v-1ZM70,219v1h1v-1ZM68,222v1h1v-1ZM67,223v1h1v-1ZM65,226v1h1v-1ZM64,227v1h1v-1ZM63,228v1h1v-1ZM61,231v1h1v-1ZM60,232v1h1v-1ZM262,232v1h1v-1ZM262,234v2v2v2h1v-2v-2v-2ZM58,235v1h1v-1ZM258,235v1h1v-1ZM257,237v2v2v2v2v2v2h1v-2v-2v-2v-2v-2v-2ZM262,245v1h1v-1ZM125,248v1h2v-1ZM131,248v1h2h1v-1h-2ZM59,249v1h2h2h2h2h2h2h2h2h2h2h2h2h2h2h2h2h2h2h2h2h2h1v1h1v-2h-2h-2h-2h-2h-2h-2h-2h-2h-2h-2h-2h-2h-2h-2h-2h-2h-2h-2h-2h-2h-2ZM121,249v1h1v-1ZM136,249v1h1v-1ZM163,249v1h2h2h2h2h2h2h2h2h2h2h2h2h1v-1h-2h-2h-2h-2h-2h-2h-2h-2h-2h-2h-2h-2ZM237,249v1h2h2h2h2h2h2h2h2h2h2v-1h-2h-2h-2h-2h-2h-2h-2h-2h-2ZM262,249v2h1v-2ZM269,249v1h2h2v-1h-2ZM275,249v1h1v-1ZM280,249v1h2v-1ZM58,250v1h1v-1ZM118,250v1h2v-1ZM139,250v1h1v-1ZM191,250v1h2v-1ZM233,250v1h2v-1ZM273,250v1h1v-1ZM276,250v1h1v-1ZM59,251v1h1v-1ZM101,251v1h1v-1ZM141,251v1h1v-1ZM162,251v1h1v-1ZM195,251v1h1v-1ZM230,251v1h2v-1ZM115,252v1h1v-1ZM197,252v1h1v-1ZM229,252v1h1v-1ZM274,252v1h2v1h1v-2h-2ZM278,252v1h2h1v-1h-2ZM60,253v1h1v-1ZM144,253v1h1v-1ZM162,253v2v2v2v2v2v2v2v2v2v2v2v2v2v2v2v2v2v1h1v-2v-2v-2v-2v-2v-2v-2v-2v-2v-2v-2v-2v-2v-2v-2v-2v-2v-1ZM199,253v1h1v-1ZM227,253v1h1v-1ZM99,254v1h1v-1ZM201,254v1h1v-1ZM270,254v1h1v-1ZM278,254v1h1v-1ZM61,255v1h1v-1ZM98,255v1h1v-1ZM125,255v1h2h1v-1h-2ZM130,255v1h2h1v-1h-2ZM202,255v1h1v-1ZM262,255v2h1v-2ZM62,256v1h2h2h2h2h2h2h2h2h2h2h2h2h2v-1h-2h-2h-2h-2h-2h-2h-2h-2h-2h-2h-2h-2ZM122,256v1h1v-1ZM135,256v1h1v-1ZM147,256v1h1v-1ZM170,256v1h2h2h2h2h2h2h2h2h1v-1h-2h-2h-2h-2h-2h-2h-2h-2ZM203,256v1h1v-1ZM238,256v1h2h2h2h2h2h2h2h2h1v-1h-2h-2h-2h-2h-2h-2h-2h-2ZM270,256v1h2v-1ZM274,256v1h1v-1ZM281,256v1h1v-1ZM88,257v1h1v-1ZM120,257v1h1v-1ZM138,257v1h1v-1ZM169,257v2h1v-2ZM190,257v1h2v-1ZM234,257v1h1v-1ZM255,257v1h1v-1ZM96,258v1h1v-1ZM118,258v1h1v-1ZM139,258v1h1v-1ZM149,258v1h1v-1ZM193,258v1h1v-1ZM232,258v1h1v-1ZM95,259v1h1v-1ZM108,259v1h1v-1ZM117,259v1h1v-1ZM150,259v1h1v-1ZM195,259v1h1v-1ZM221,259v1h1v-1ZM230,259v1h1v-1ZM255,259v2v2v2v2v2v2v2v2v2v2v2v2v2v2v2v2h1v-2v-2v-2v-2v-2v-2v-2v-2v-2v-2v-2v-2v-2v-2v-2v-2ZM86,260v1h1v-1ZM107,260v1h1v-1ZM169,260v2v2h1v-2v-2ZM206,260v1h1v-1ZM220,260v1h1v-1ZM229,260v1h1v-1ZM143,261v1h1v-1ZM151,261v1h1v-1ZM228,261v1h1v-1ZM262,261v2h1v-2ZM93,262v1h1v-1ZM106,262v1h1v-1ZM114,262v1h1v-1ZM207,262v1h1v-1ZM219,262v1h1v-1ZM227,262v1h1v-1ZM84,263v1h1v-1ZM92,263v1h1v-1ZM113,263v1h1v-1ZM152,263v1h1v-1ZM226,263v1h1v-1ZM83,264v1h1v-1ZM105,264v1h1v-1ZM145,264v1h1v-1ZM200,264v1h1v-1ZM208,264v2h1v-2ZM218,264v1h1v-1ZM225,264v1h1v-1ZM112,265v1h1v-1ZM153,265v1h1v-1ZM262,265v2v2v2v2v2v2v2h1v-2v-2v-2v-2v-2v-2v-2ZM90,266v1h1v-1ZM146,266v1h1v-1ZM201,266v1h1v-1ZM217,266v1h1v-1ZM224,266v1h1v-1ZM81,267v1h1v-1ZM89,267v1h1v-1ZM104,267v2h1v-2ZM111,267v1h1v-1ZM80,268v1h1v-1ZM111,270v1h2h2h2h2h2h2h2h2h2h2h2h2h2h2h2h2h2h2h1v-2v-1h-1v2h-2h-2h-2h-2h-2h-2h-2h-2h-2h-2h-2h-2h-2h-2h-2h-2h-2ZM209,268v2v2h1v-2v-2ZM216,268v2h1v-2ZM223,268v2v1h1v-2v-1ZM154,269v2h1v-2ZM202,269v2v2h1v-2v-2ZM87,270v1h1v-1ZM78,271v1h1v-1ZM86,271v1h1v-1ZM77,272v1h1v-1ZM223,272v1h1v-1ZM103,273v2h1v-2ZM75,275v1h1v-1ZM83,275v1h1v-1ZM74,276v1h1v-1ZM82,276v1h1v-1ZM111,277v1h2h2h2h2h2h2h2h2h2h2h2h2h2h2h2h2h2h2h2h2h2h2v-1h-2h-2h-2h-2h-2h-2h-2h-2h-2h-2h-2h-2h-2h-2h-2h-2h-2h-2h-2h-2h-2ZM223,277v2h1v-2ZM81,278v1h1v-1ZM72,279v1h1v-1ZM80,279v1h1v-1ZM169,279v2v1h1v-2v-1ZM71,280v1h1v-1ZM79,280v1h1v-1ZM104,280v2h1v-2ZM111,280v1h1v-1ZM224,280v1h1v-1ZM262,281v1h1v-1ZM217,282v1h1v-1ZM225,282v1h1v-1ZM69,283v1h1v-1ZM105,283v1h1v-1ZM147,283v1h2h2h2v-1h-2h-2ZM202,283v2v1h1v-2v-1ZM262,283v2v1h1v-2v-1ZM68,284v1h1v-1ZM76,284v1h1v-1ZM113,284v1h1v-1ZM153,284v1h1v-1ZM218,284v1h1v-1ZM106,285v1h1v-1ZM145,285v1h1v-1ZM144,286v1h1v-1ZM152,286v1h1v-1ZM169,286v2v1h1v-2v-1ZM219,286v1h1v-1ZM66,287v1h1v-1ZM107,287v1h1v-1ZM115,287v1h1v-1ZM143,287v1h1v-1ZM262,287v2v2h1v-2v-2ZM65,288v1h1v-1ZM73,288v1h1v-1ZM116,288v1h1v-1ZM142,288v1h1v-1ZM151,288v1h1v-1ZM231,288v1h1v-1ZM72,289v2h1v-2ZM117,289v1h1v-1ZM141,289v1h1v-1ZM150,289v1h1v-1ZM162,289v2v2v2v2v1h1v-2v-2v-2v-2v-1ZM233,289v1h1v-1ZM109,290v1h1v-1ZM222,290v1h1v-1ZM235,290v1h2h1v-1h-2ZM98,291v1h1v-1ZM110,291v1h1v-1ZM120,291v1h1v-1ZM138,291v1h1v-1ZM62,292v1h1v-1ZM111,292v1h1v-1ZM122,292v1h1v-1ZM169,292v2v2h1v-2v-2ZM262,292v1h1v-1ZM61,293v1h1v-1ZM112,293v1h1v-1ZM124,293v1h2v-1ZM131,293v1h2v-1ZM226,293v1h1v-1ZM100,294v1h1v-1ZM101,295v1h1v-1ZM115,295v1h1v-1ZM144,295v1h1v-1ZM229,295v1h1v-1ZM262,295v1h1v-1ZM117,296v1h1v-1ZM142,296v1h1v-1ZM232,296v1h1v-1ZM58,297v1h1v-1ZM102,297v1h1v-1ZM119,297v1h1v-1ZM139,297v1h2v-1ZM169,297v1h1v-1ZM235,297v1h2h2v-1h-2ZM262,297v1h1v-1ZM121,298v1h1v-1ZM137,298v1h1v-1ZM125,299v1h2h1v-1h-2ZM129,299v1h2h2h1v-1h-2h-2Z"/>
<path fill="#a4d2e3" d="M261,40v1h1v-1ZM260,41v1h1v-1ZM259,43v1h1v-1ZM258,44v1h1v-1ZM257,45v1h1v-1ZM256,47v1h1v-1ZM255,48v1h1v-1ZM254,49v1h1v-1ZM252,52v1h1v-1ZM251,53v1h1v-1ZM249,56v1h1v-1ZM248,57v1h1v-1ZM246,60v1h1v-1ZM245,61v1h1v-1ZM244,62v1h1v-1ZM243,64v1h1v-1ZM242,65v1h1v-1ZM82,67v1h2h2v-1h-2ZM91,67v1h2h2h2h2v-1h-2h-2h-2ZM106,67v1h2h2h2h2h2v-1h-2h-2h-2h-2ZM123,67v1h2h2h2h2h2h1v-1h-2h-2h-2h-2h-2ZM140,67v1h2h2h2h2h2v-1h-2h-2h-2h-2ZM151,67v1h1v-1ZM158,67v1h2h2h2h2h1v-1h-2h-2h-2h-2ZM172,67v1h2h2h2h2h2v-1h-2h-2h-2h-2ZM184,67v1h2v1h1v-2h-2ZM78,68v1h2v-1ZM240,68v1h1v-1ZM75,69v1h1v-1ZM185,69v1h1v-1ZM239,69v1h1v-1ZM73,70v1h1v-1ZM184,70v1h1v-1ZM238,70v1h1v-1ZM71,71v1h1v-1ZM183,72v1h1v-1ZM237,72v1h1v-1ZM68,73v1h1v-1ZM182,73v1h1v-1ZM236,73v1h1v-1ZM67,74v1h1v-1ZM181,74v1h1v-1ZM235,74v1h1v-1ZM66,75v1h1v-1ZM65,76v1h1v-1ZM234,76v1h1v-1ZM64,77v1h1v-1ZM179,77v1h1v-1ZM233,77v1h1v-1ZM63,78v1h1v-1ZM178,78v1h1v-1ZM232,78v1h1v-1ZM62,79v1h1v-1ZM177,79v1h1v-1ZM61,81v1h1v-1ZM176,81v1h1v-1ZM230,81v1h1v-1ZM175,82v1h1v-1ZM229,82v1h1v-1ZM60,83v1h1v-1ZM174,83v1h1v-1ZM228,84v1h1v-1ZM59,85v2h1v-2ZM173,85v1h1v-1ZM227,85v1h1v-1ZM172,86v1h1v-1ZM226,86v1h1v-1ZM171,87v1h1v-1ZM58,88v2h1v-2ZM170,89v1h1v-1ZM224,89v1h1v-1ZM169,90v1h1v-1ZM223,90v1h1v-1ZM168,91v1h1v-1ZM221,93v1h1v-1ZM166,94v1h1v-1ZM220,94v1h1v-1ZM165,95v1h1v-1ZM164,97v1h1v-1ZM218,97v1h1v-1ZM163,98v1h1v-1ZM217,98v1h1v-1ZM162,99v1h1v-1ZM216,99v1h1v-1ZM161,100v1h1v-1ZM215,101v1h1v-1ZM160,102v1h1v-1ZM214,102v1h1v-1ZM159,103v1h1v-1ZM158,104v1h1v-1ZM212,105v1h1v-1ZM211,106v1h1v-1ZM156,107v1h1v-1ZM210,107v1h1v-1ZM155,108v1h1v-1ZM208,110v1h1v-1ZM153,111v1h1v-1ZM207,111v1h1v-1ZM152,112v1h1v-1ZM206,113v1h1v-1ZM205,114v1h1v-1ZM150,115v1h1v-1ZM204,115v1h1v-1ZM149,116v1h1v-1ZM202,118v1h1v-1ZM147,119v1h1v-1ZM201,119v1h1v-1ZM146,120v1h1v-1ZM200,120v1h1v-1ZM145,121v1h1v-1ZM199,122v1h1v-1ZM198,123v1h1v-1ZM143,124v1h1v-1ZM142,125v1h1v-1ZM196,126v1h1v-1ZM195,127v1h1v-1ZM140,128v1h1v-1ZM194,128v1h1v-1ZM139,129v1h1v-1ZM193,130v1h1v-1ZM192,131v1h1v-1ZM137,132v1h1v-1ZM191,132v1h1v-1ZM136,133v1h1v-1ZM189,135v1h1v-1ZM134,136v1h1v-1ZM188,136v1h1v-1ZM133,137v1h1v-1ZM186,139v1h1v-1ZM131,140v1h1v-1ZM185,140v1h1v-1ZM130,141v1h1v-1ZM184,142v1h1v-1ZM183,143v1h1v-1ZM128,144v1h1v-1ZM182,144v1h1v-1ZM127,145v1h1v-1ZM126,146v1h1v-1ZM180,147v1h1v-1ZM125,148v1h1v-1ZM179,148v1h1v-1ZM124,149v1h1v-1ZM57,150v1h1v-1ZM123,150v1h1v-1ZM177,151v1h1v-1ZM176,152v1h1v-1ZM121,153v1h1v-1ZM120,154v1h1v-1ZM57,155v1h1v-1ZM174,155v1h1v-1ZM173,156v1h1v-1ZM118,157v1h1v-1ZM117,158v1h1v-1ZM116,159v1h1v-1ZM171,159v1h1v-1ZM170,160v1h1v-1ZM115,161v1h1v-1ZM114,162v1h1v-1ZM113,163v1h1v-1ZM168,163v1h1v-1ZM167,164v1h1v-1ZM112,165v1h1v-1ZM166,165v1h1v-1ZM111,166v1h1v-1ZM110,167v1h1v-1ZM164,168v1h1v-1ZM163,169v1h1v-1ZM57,170v1h1v-1ZM108,170v1h1v-1ZM107,171v1h1v-1ZM162,171v1h1v-1ZM161,172v1h1v-1ZM57,173v1h1v-1ZM160,173v1h1v-1ZM105,174v1h1v-1ZM104,175v1h1v-1ZM158,176v1h1v-1ZM157,177v1h1v-1ZM102,178v1h1v-1ZM101,179v1h1v-1ZM156,179v1h1v-1ZM100,180v1h1v-1ZM155,180v1h1v-1ZM154,181v1h1v-1ZM57,183v1h1v-1ZM98,183v1h1v-1ZM262,183v2h1v-2ZM97,184v1h1v-1ZM152,184v1h1v-1ZM151,185v1h1v-1ZM95,187v1h1v-1ZM261,187v2h1v-2ZM94,188v1h1v-1ZM149,188v1h1v-1ZM148,189v1h1v-1ZM260,190v1h1v-1ZM92,191v1h1v-1ZM91,192v1h1v-1ZM146,192v1h1v-1ZM259,192v1h1v-1ZM145,193v1h1v-1ZM144,194v1h1v-1ZM258,194v1h1v-1ZM89,195v1h1v-1ZM88,196v1h1v-1ZM143,196v1h1v-1ZM142,197v1h1v-1ZM141,198v1h1v-1ZM255,198v1h1v-1ZM86,199v1h1v-1ZM254,199v1h1v-1ZM85,200v1h1v-1ZM253,200v1h1v-1ZM139,201v1h1v-1ZM252,201v1h1v-1ZM138,202v1h1v-1ZM83,203v1h1v-1ZM137,203v1h1v-1ZM249,203v1h1v-1ZM82,204v1h1v-1ZM247,204v1h1v-1ZM81,205v1h1v-1ZM136,205v1h1v-1ZM245,205v1h1v-1ZM135,206v1h1v-1ZM243,206v1h1v-1ZM80,207v1h1v-1ZM239,207v1h2v-1ZM79,208v1h1v-1ZM140,208v1h2h2h2h2h1v-1h-2h-2h-2h-2ZM154,208v1h2v-1ZM157,208v1h2h2h2h2h1v-1h-2h-2h-2h-2ZM174,208v1h2h2h2h2h2h2v-1h-2h-2h-2h-2h-2ZM187,208v1h1v-1ZM190,208v1h2h2h2h2h1v-1h-2h-2h-2h-2ZM207,208v1h2h2h2h2h1v-1h-2h-2h-2h-2ZM219,208v1h1v-1ZM224,208v1h2h2h2h2h1v-1h-2h-2h-2h-2ZM78,209v1h1v-1ZM77,211v1h1v-1ZM76,212v1h1v-1ZM75,213v1h1v-1ZM73,216v1h1v-1ZM72,217v1h1v-1ZM57,220v1h1v-1ZM70,220v1h1v-1ZM69,221v1h1v-1ZM66,225v1h1v-1ZM64,228v1h1v-1ZM63,229v1h1v-1ZM62,230v1h1v-1ZM262,231v1h1v-1ZM57,232v2v1h1v-2v-1ZM261,232v1h1v-1ZM60,233v1h1v-1ZM260,233v1h1v-1ZM59,234v1h1v-1ZM259,234v1h1v-1ZM257,236v1h1v-1ZM128,247v1h1v-1ZM122,248v1h2h1v-1h-2ZM134,248v1h2v-1ZM58,249v1h1v-1ZM103,249v1h1v-1ZM119,249v1h2v-1ZM137,249v1h2v-1ZM162,249v2h1v-2ZM188,249v1h2h1v-1h-2ZM235,249v1h2v-1ZM273,249v1h2v-1ZM276,249v1h1v-1ZM279,249v1h1v-1ZM117,250v1h1v-1ZM140,250v1h1v-1ZM193,250v1h1v-1ZM232,250v1h1v-1ZM268,250v1h1v-1ZM278,250v2h1v-2ZM282,250v2v2h1v-2v-2ZM116,251v1h1v-1ZM142,251v1h1v-1ZM196,251v1h1v-1ZM269,251v1h1v-1ZM272,251v2v2v2h1v-1h1v-2v-2v-1ZM59,252v1h1v-1ZM101,252v1h1v-1ZM114,252v1h1v-1ZM143,252v1h1v-1ZM162,252v1h1v-1ZM198,252v1h1v-1ZM228,252v1h1v-1ZM277,252v1h1v-1ZM100,253v1h1v-1ZM113,253v1h1v-1ZM145,253v1h1v-1ZM200,253v1h1v-1ZM226,253v1h1v-1ZM275,253v2v2h1v-2h1v-1h-1v-1ZM279,253v1h1v2v1h1v-2v-2ZM60,254v1h1v-1ZM112,254v1h1v-1ZM146,254v1h1v-1ZM225,254v1h1v-1ZM111,255v1h1v-1ZM128,255v1h2v-1ZM147,255v1h1v-1ZM224,255v1h1v-1ZM278,255v1h1v-1ZM98,256v1h1v-1ZM110,256v1h1v-1ZM123,256v1h2v-1ZM133,256v1h2v-1ZM148,256v1h1v-1ZM223,256v1h1v-1ZM277,256v1h1v-1ZM97,257v1h1v-1ZM109,257v1h1v-1ZM121,257v1h1v-1ZM136,257v1h2v-1ZM149,257v1h1v-1ZM170,257v1h1v-1ZM188,257v1h2v-1ZM204,257v1h1v-1ZM222,257v1h1v-1ZM235,257v1h2h1v-1h-2ZM87,258v1h1v-1ZM108,258v1h1v-1ZM119,258v1h1v-1ZM191,258v1h2v-1ZM205,258v1h1v-1ZM221,258v1h1v-1ZM233,258v1h1v-1ZM255,258v1h1v-1ZM140,259v1h1v-1ZM194,259v1h1v-1ZM206,259v1h1v-1ZM231,259v1h1v-1ZM95,260v1h1v-1ZM116,260v1h1v-1ZM141,260v1h1v-1ZM151,260v1h1v-1ZM196,260v1h1v-1ZM85,261v1h1v-1ZM94,261v1h1v-1ZM106,261v1h1v-1ZM115,261v1h1v-1ZM142,261v1h1v-1ZM197,261v1h1v-1ZM207,261v1h1v-1ZM219,261v1h1v-1ZM84,262v1h1v-1ZM143,262v1h1v-1ZM152,262v1h1v-1ZM198,262v1h1v-1ZM93,263v1h1v-1ZM105,263v1h1v-1ZM144,263v1h1v-1ZM199,263v1h1v-1ZM208,263v1h1v-1ZM218,263v1h1v-1ZM92,264v1h1v-1ZM113,264v1h1v-1ZM153,264v1h1v-1ZM82,265v1h1v-1ZM91,265v1h1v-1ZM104,265v2h1v-2ZM145,265v1h1v-1ZM200,265v1h1v-1ZM217,265v1h1v-1ZM225,265v1h1v-1ZM81,266v1h1v-1ZM112,266v1h1v-1ZM154,266v2v1h1v-2v-1ZM209,266v2h1v-2ZM146,267v1h1v-1ZM201,267v2h1v-2ZM216,267v1h1v-1ZM224,267v1h1v-1ZM89,268v1h1v-1ZM111,268v2h1v-2ZM79,269v1h1v-1ZM88,269v1h1v-1ZM103,269v2v2h1v-2v-2ZM78,270v1h1v-1ZM155,271v2v2v2h1v-2v-2v-2ZM223,271v1h1v-1ZM86,272v1h1v-1ZM76,273v1h1v-1ZM85,273v1h1v-1ZM202,273v2v2v2v2v2h1v-2v-2v-2v-2v-2ZM223,273v2v2h1v-2v-2ZM75,274v1h1v-1ZM84,274v1h1v-1ZM103,275v2v2v1h1v-2v-2v-1ZM73,277v1h1v-1ZM82,277v1h1v-1ZM72,278v1h1v-1ZM111,278v2h1v-2ZM224,279v1h1v-1ZM80,280v1h1v-1ZM216,280v2h1v-2ZM70,281v1h1v-1ZM79,281v1h1v-1ZM112,281v2h1v-2ZM225,281v1h1v-1ZM69,282v1h1v-1ZM78,282v1h1v-1ZM104,282v1h1v-1ZM68,283v1h1v-1ZM77,283v1h1v-1ZM113,283v1h1v-1ZM146,283v1h1v-1ZM153,283v1h1v-1ZM217,283v1h1v-1ZM226,283v1h1v-1ZM105,284v2h1v-2ZM145,284v1h1v-1ZM227,284v1h1v-1ZM67,285v1h1v-1ZM76,285v1h1v-1ZM114,285v1h1v-1ZM153,285v1h1v-1ZM218,285v1h1v-1ZM228,285v1h1v-1ZM66,286v1h1v-1ZM75,286v1h1v-1ZM106,286v1h1v-1ZM115,286v1h1v-1ZM202,286v2v2v2v2v2v2h1v-2v-2v-2v-2v-2v-2ZM229,286v1h1v-1ZM65,287v1h1v-1ZM74,287v1h1v-1ZM116,287v1h1v-1ZM152,287v1h1v-1ZM219,287v1h1v-1ZM230,287v1h1v-1ZM107,288v1h1v-1ZM117,288v1h1v-1ZM162,288v1h1v-1ZM220,288v1h1v-1ZM232,288v1h1v-1ZM64,289v1h1v-1ZM108,289v1h1v-1ZM118,289v1h1v-1ZM140,289v1h1v-1ZM221,289v1h1v-1ZM234,289v1h2v-1ZM63,290v1h1v-1ZM73,290v1h2h2h2h2h2h2h2h2h2h2h2h2h1v-1h-2h-2h-2h-2h-2h-2h-2h-2h-2h-2h-2h-2ZM119,290v1h1v-1ZM139,290v1h1v-1ZM150,290v1h1v-1ZM238,290v1h2h2h2h2h2h2h2h2h1v-1h-2h-2h-2h-2h-2h-2h-2h-2ZM62,291v1h1v-1ZM137,291v1h1v-1ZM149,291v1h1v-1ZM223,291v1h1v-1ZM61,292v1h1v-1ZM99,292v1h1v-1ZM123,292v1h1v-1ZM134,292v1h2v-1ZM148,292v1h1v-1ZM224,292v1h1v-1ZM100,293v1h1v-1ZM126,293v1h2h2h1v-1h-2h-2ZM147,293v1h1v-1ZM225,293v1h1v-1ZM60,294v1h1v-1ZM113,294v1h1v-1ZM146,294v1h1v-1ZM226,294v1h2v-1ZM59,295v1h1v-1ZM114,295v1h1v-1ZM228,295v1h1v-1ZM58,296v1h1v-1ZM102,296v1h1v-1ZM115,296v1h2v-1ZM143,296v1h1v-1ZM230,296v1h2v-1ZM263,296v1h1v-1ZM118,297v1h1v-1ZM141,297v1h1v-1ZM233,297v1h2v-1ZM59,298v1h2h2h2h2h2h2h2h2h2h2h2v-1h-2h-2h-2h-2h-2h-2h-2h-2h-2h-2ZM83,298v1h2h2h2h2h2h2h2h2h2h2v-1h-2h-2h-2h-2h-2h-2h-2h-2h-2ZM120,298v1h1v-1ZM138,298v1h2v-1ZM165,298v1h2h1v-1h-2ZM204,298v1h2h2h1v-1h-2h-2ZM239,298v1h2v-1ZM242,298v1h2h2h1v-1h-2h-2ZM248,298v1h2v-1ZM251,298v1h2h2h2h2h2v-1h-2h-2h-2h-2ZM122,299v1h2h1v-1h-2ZM134,299v1h2v-1Z"/>
<path fill="#d1f1fa" d="M256,37v1h1v-1ZM262,39v1h1v-1ZM263,40v2v2v2v2v2v2v2v2v2v2v2v2v2v2v2v2v2v2v2v2v2v2v2v2v2v2v2v2v2v2v2v2v2v2v2v2v2v2v2v2v2v2v2v2v2v2v2v2v2v2v2v2v2v2v2v2v2v2v2v2v2v2v2v2v2v2v2v2v2v2v2v1h1v-2h1v-1h-1v-2h1v-1h-1v-2v-2v-2v-2v-2v-2v-2v-2v-2v-2v-2v-2v-2v-2v-2v-2v-2v-2v-2v-2v-2v-2v-2v-2v-2v-2v-2v-2v-2v-2v-2v-2v-2v-2v-2v-2v-2v-2v-2v-2v-2v-2v-2v-2v-2v-2v-2v-2v-2v-2v-2v-2v-2v-2v-2v-2v-2v-2v-2v-2v-2v-2v-2v-2v-2v-2v-2h1v-1h-1v-2ZM258,42v2h1v-1h1v-2h-1v1ZM257,44v1h1v-1ZM256,46v1h1v-1ZM255,47v1h1v-1ZM251,51v2h1v-1h1v-1h1v-2h-1v1h-1v1ZM249,53v1h1v-1ZM250,54v1h1v-1ZM249,55v1h1v-1ZM248,56v1h1v-1ZM247,58v1h1v-1ZM246,59v1h1v-1ZM243,61v2v1h1v-2h1v-1h1v-1h-2v1ZM242,64v1h1v-1ZM234,73v2v1h1v-2h1v-1h1v-1h1v-2h1v-1h1v-1h1v-1h1v-2h-1v1h-1v1h-1v1h-1v1h-1v1h-1v2h-1v1ZM83,66v1h2h2h2h2v-1h-2h-2h-2ZM98,66v1h2v-1ZM101,66v1h2h2h2h1v-1h-2h-2h-2ZM109,66v1h2v-1ZM115,66v1h2h2h2h2h2h2v-1h-2h-2h-2h-2h-2ZM130,66v1h2h2h2h2h2h2h2h1v-1h-2h-2h-2h-2h-2h-2h-2ZM146,66v1h1v-1ZM149,66v1h2h2h2h2h2v-1h-2h-2h-2h-2ZM164,66v1h2h2h2h2h2h1v-1h-2h-2h-2h-2h-2ZM177,66v1h1v-1ZM182,66v1h2h1v-1h-2ZM79,67v1h2h1v-1h-2ZM187,67v1h1v-1ZM66,73v2h1v-1h1v-1h2v-1h1v-1h2v-1h2v-1h-1v-1h-2v1h-2v1h-1v1h-1v1h-1v1ZM77,68v1h1v-1ZM188,68v1h1v-1ZM184,71v1h2h1v-1h1v-2h-2v1h-1v1ZM64,75v2h1v-1h1v-1ZM180,76v1h1v1h1v-2v-1h-1v1ZM233,76v1h1v-1ZM61,78v2v1h1v-2h1v-1h1v-1h-2v1ZM231,77v2v1h1v-2h1v-1ZM177,80v1h2v-1h1v-2h-1v1h-1v1ZM230,80v1h1v-1ZM60,81v2h1v-2ZM227,81v1h1v2h1v-2h1v-1h-2ZM176,82v1h1v-1ZM175,83v1h1v-1ZM174,84v1h1v-1ZM227,84v1h1v-1ZM57,87v2v2v2v2v2v2v2v2v2v2v2v2v2v2v2v2v2v2v2v2v2v2v2v2v2v2v2v2v2v2v2v1h1v-2v-2v-2v-2v-2v-2v-2v-2v-2v-2v-2v-2v-2v-2v-2v-2v-2v-2v-2v-2v-2v-2v-2v-2v-2v-2v-2v-2v-2v-2v-2h1v-2h-1v1ZM172,87v1h1v-1ZM225,87v1h1v-1ZM171,88v1h1v-1ZM173,88v1h1v-1ZM224,88v1h1v-1ZM170,90v1h2h1v-2h-1v1ZM223,89v1h1v-1ZM222,90v2h1v-2ZM169,91v1h1v-1ZM168,92v1h1v-1ZM221,92v1h1v-1ZM167,93v1h1v-1ZM220,93v1h1v-1ZM219,94v2h1v-2ZM174,96v1h2v-2h-1v1ZM165,96v1h1v-1ZM164,98v1h1v-1ZM214,98v1h1v2h1v-2h1v-1h-2ZM162,100v1h1v-1ZM161,101v2h1v-2ZM214,101v1h1v-1ZM213,103v1h1v-1ZM159,104v1h1v-1ZM212,104v1h1v-1ZM158,105v1h1v-1ZM211,105v1h1v-1ZM157,106v2h1v-2ZM156,108v1h1v-1ZM209,108v1h1v-1ZM155,109v1h1v-1ZM208,109v1h1v-1ZM154,110v1h1v-1ZM207,110v1h1v-1ZM153,112v1h1v-1ZM206,112v1h1v-1ZM152,113v1h1v-1ZM205,113v1h1v-1ZM151,114v1h1v-1ZM204,114v1h1v-1ZM200,117v1h1v1h1v-1h1v-1h1v-2h-1v1h-1v1ZM150,116v1h1v-1ZM149,117v1h1v-1ZM148,118v1h1v-1ZM150,118v1h1v-1ZM200,119v1h1v-1ZM147,120v1h1v-1ZM146,121v1h1v-1ZM199,121v1h1v-1ZM145,122v1h1v-1ZM198,122v1h1v-1ZM144,123v1h1v-1ZM197,124v1h1v-1ZM143,125v1h2v-1ZM196,125v1h1v-1ZM140,129v1h2v-2h2v-1h-1v-1h-1v1h-1v2ZM194,126v2h1v-1h1v-1ZM191,129v2v1h1v-1h1v-1h-1v-1ZM193,129v1h1v-1ZM139,130v1h1v-1ZM138,131v2h1v-2ZM137,133v1h1v-1ZM189,133v2h1v-1h1v-1ZM136,134v1h1v-1ZM138,134v1h1v-1ZM134,137v1h2h1v-2h-1v-1h-1v2ZM137,135v1h1v-1ZM183,135v1h1v-1ZM186,136v1h1v1h1v-2h1v-1h-2v1ZM132,139v1h2v-2h-1v1ZM186,138v1h1v-1ZM185,139v1h1v-1ZM184,140v2h1v-2ZM130,142v1h2v-2h-1v1ZM180,142v1h1v-1ZM183,142v1h1v-1ZM128,145v1h2v-2v-1h-1v2ZM182,143v1h1v-1ZM177,147v1h1v2h1v-2h1v-1h1v-1h-1v-1h-1v2ZM181,145v1h1v-1ZM127,146v1h1v-1ZM125,149v1h2v-1h1v-1h-1v-1h-1v2ZM56,150v1h1v-1ZM124,150v1h1v-1ZM177,150v1h1v-1ZM57,151v2v2h1v-2v-2ZM122,152v2h1v-1h1v-2h-1v1ZM175,153v1h1v-1ZM121,154v1h1v-1ZM172,154v1h1v-1ZM174,154v1h1v-1ZM119,156v1h2h1v-1h-1v-1h-1v1ZM173,155v1h1v-1ZM57,156v2v2v2v2v2v2v2h1v-2v-2v-2v-2v-2v-2v-2ZM172,156v2h1v-2ZM171,158v1h1v-1ZM170,159v1h1v-1ZM116,160v1h1v-1ZM169,161v1h1v-1ZM115,162v1h1v-1ZM159,162v2h1v-2ZM168,162v1h1v-1ZM113,164v2h1v-1h2v-1h-1v-1h-1v1ZM167,163v1h1v-1ZM164,165v1h1v1h1v-2v-1h-1v1ZM111,167v1h1v-1ZM164,167v1h1v-1ZM110,168v1h1v-1ZM163,168v1h1v-1ZM109,169v1h1v-1ZM162,170v1h1v-1ZM57,171v2h1v-2ZM161,171v1h1v-1ZM106,173v1h2v-2h-1v1ZM57,174v2v2v2v2v1h1v-2v-2v-2v-2v-1ZM158,174v2h1v-1h1v-1ZM108,175v2h1v-2ZM104,176v1h1v-1ZM157,176v1h1v-1ZM103,177v1h1v-1ZM156,178v1h1v-1ZM155,179v1h1v-1ZM99,182v2h1v2h1v-2v-2v-1h-1v1ZM153,182v1h1v-1ZM152,183v1h1v-1ZM57,184v2v2v2v2v2v2v2v2v2v2v2v2v2v2v2v2v2v2h1v-2v-2v-2v-2v-2v-2v-2v-2v-2v-2v-2v-2v-2v-2v-2v-2v-2v-2ZM98,184v1h1v-1ZM150,184v2v1h1v-2h1v-1ZM97,185v1h1v-1ZM262,185v2v1h1v-2v-1ZM96,186v1h1v-1ZM149,187v1h1v-1ZM95,188v1h1v-1ZM94,189v1h1v-1ZM261,189v1h1v-1ZM93,190v1h1v-1ZM147,190v1h1v-1ZM142,193v2h1v1h1v-2h1v-1h-1v-1h1v-1h-2v2ZM146,191v1h1v-1ZM260,191v2h1v-2ZM92,192v1h1v-1ZM145,192v1h1v-1ZM91,193v1h1v-1ZM256,197v1h1v1h1v-1h1v-2h1v-1h1v-1h-1v-1h-1v2h-1v1h-1v1ZM90,194v1h1v-1ZM142,196v1h1v-1ZM88,197v1h1v-1ZM141,197v1h1v-1ZM84,202v2h2v-2h1v-1h1v-1h1v-1h-1v-1h-1v2h-1v1h-1v1ZM138,200v2h1v-1h1v-1h1v-1h-2v1ZM254,200v1h2h1v-2h-2v1ZM253,201v1h1v-1ZM135,204v2h1v-1h1v-2h1v-1h-2v2ZM251,202v1h1v-1ZM248,204v1h2h1v-2h-1v1ZM83,204v1h1v-1ZM81,206v1h2v-2h-1v1ZM246,205v1h2v-1ZM134,206v2v1h2h2h2v-1h-2h-2h-1v-2ZM244,206v1h2v-1ZM241,207v2h2v-2ZM78,210v2h1v-1h1v-1h2v-2h-2v1h-1v1ZM149,208v1h2h2h1v-1h-2h-2ZM156,208v1h1v-1ZM166,208v1h2h2h2h2v-1h-2h-2h-2ZM186,208v1h1v-1ZM188,208v1h2v-1ZM199,208v1h2h2h2h2v-1h-2h-2h-2ZM216,208v1h2h1v-1h-2ZM220,208v1h2h2v-1h-2ZM233,208v1h2h2h1v-1h-2h-2ZM141,209v1h1v1h2h1v-1h2h2v-1h-2h-2h-2ZM158,209v2h1v-1h2h1v1h1v-1h1v1h1v-1h1v-1h-2h-2h-2ZM174,209v1h2h2h2h2h1v-1h-2h-2h-2h-2ZM191,209v1h2h2h2v1h1v-1h1v-1h-2h-2h-2ZM207,209v1h1v1h2v-1h2h2h2v-1h-2h-2h-2h-2ZM224,209v1h2h2h2h2v-1h-2h-2h-2ZM75,214v1h1v1h1v-2h1v-2h-1v1h-1v1ZM74,215v2h1v-2ZM73,217v1h1v-1ZM70,221v1h2v-1h1v-2v-1h-1v1h-1v2ZM57,221v2v2v2v2v2v1h1v-2v-2v-2v-2v-2v-1ZM69,222v1h1v-1ZM68,223v1h1v-1ZM67,224v1h1v-1ZM66,226v1h1v-1ZM65,227v2h1v-2ZM63,230v1h1v1h1v-2v-1h-1v1ZM62,231v1h1v-1ZM258,231v2h1v-1h1v1h1v-1h1v-1h-2ZM261,298v1h2h1v-1h1v-2v-2v-2h-1v-2v-2v-2v-2v-2v-1h1v-2v-2v-2v-1h-1v-2v-2v-2v-2v-2v-1h1v-1h-1v-2v-2v-2v-2v-2v-2v-2v-1h1v-2v-1h-1v-2v-2v-2v-2v-2v-2v-1h-1v2v2v2v2v2v2v2v2v2v2v2v2v2v2v2v2v2v2v2v2v2v2v2v2v2v2v2v2v2v2v2v2v1h1v1h-1v1ZM61,232v1h1v-1ZM259,233v1h1v-1ZM60,234v1h1v-1ZM258,234v1h1v-1ZM57,235v1h1v-1ZM59,235v1h1v-1ZM256,235v2v2v2v1h1v-2v-2v-2h1v-1ZM58,236v1h1v-1ZM237,248v1h2h2h2h2h2h2h2h2h2h2v-2v-2v-2h-1v2v2v1h-2h-2h-2h-2h-2h-2h-2h-2h-2ZM123,247v1h2h2h1v-2h-2h-1v1ZM129,246v2h2h2v-1h-1v-1h-2ZM56,250v1h1v1h2v-1h-1v-2h2h2h2h2h2h2h2h2h2h2h2h2h2h2h2h2h2h2h2h2h2h2h1v-1h-2h-2h-2h-2h-2h-2h-2h-2h-2h-2h-2h-2h-2h-2h-2h-2h-2h-2h-2h-2h-2h-1v-1h-1v1h-2v2ZM109,247v1h2h1v-1h-2ZM162,248v1h2h2h2h2h2h2h2h2h2h2h2h2h1v-1h-2h-2h-2h-2h-2h-2h-2h-2h-2h-2h-2v-1h-1v1ZM121,248v1h1v-1ZM136,248v1h2v-1ZM270,248v1h2h2h2h1v-1h-2h-2h-2ZM277,249v2v1h1v-2h1v-1h2h1v-1h-2h-2v1ZM118,249v1h1v-1ZM139,249v1h1v-1ZM191,249v1h2v-1ZM232,249v1h2h1v-1h-2ZM268,249v1h1v-1ZM282,249v1h1v-1ZM99,255v2h1v-1h1v-1h2v-2h1v-2v-1h-1v1h-1v2h-1v1h-1v1ZM116,250v1h1v-1ZM141,250v1h1v-1ZM194,250v1h2v-1ZM230,250v1h2v-1ZM115,251v1h1v-1ZM143,251v1h1v-1ZM197,251v1h2v1h2v-1h-1v-1h-2ZM228,251v1h2v-1ZM268,251v1h1v-1ZM113,252v1h1v-1ZM144,252v1h1v-1ZM227,252v1h1v-1ZM268,253v2v1h1v1h1v-2v-2v-1h-1v1ZM57,253v1h1v-1ZM59,253v1h1v-1ZM112,253v1h1v-1ZM161,253v2h1v-2ZM201,253v1h1v-1ZM225,253v1h1v-1ZM111,254v1h1v-1ZM202,254v1h1v-1ZM224,254v1h1v-1ZM279,254v2h1v-2ZM282,254v2v1h1v-2v-1ZM60,255v1h1v-1ZM110,255v1h1v-1ZM203,255v1h1v1h1v1h1v-2h-1v-1ZM221,255v1h1v1h1v-1h1v-1h-2ZM276,255v1h1v-1ZM61,256v1h1v-1ZM109,256v1h1v-1ZM122,257v1h2v1h2v-2h1v-1h-2v1h-2ZM132,256v1h1v-1ZM149,256v1h1v-1ZM273,256v1h1v-1ZM278,256v1h1v-1ZM62,257v1h2h2h2h2h2h2h2h2h2h2h2h2v2h1v-2h1v-1h-2h-2h-2h-2h-2h-2h-2h-2h-2h-2h-2h-2ZM97,258v1h1v1h1v-2v-1h-1v1ZM108,257v1h1v-1ZM135,257v1h1v-1ZM171,257v1h2h2h2h2h2h2h2h2h1v-1h-2h-2h-2h-2h-2h-2h-2h-2ZM238,257v1h2h1v1h2v-1h2h2h2h2h2h2v-1h-2h-2h-2h-2h-2h-2h-2h-2ZM271,257v1h2v-1ZM274,257v2h1v-1h1v-1ZM281,257v1h1v-1ZM120,258v1h1v-1ZM138,258v1h1v-1ZM150,258v1h1v-1ZM161,258v2v2v2v2h1v-2v-2v-2v-2ZM170,258v2v2v2v2v2v2v2v2v2v2v2v2v2v2v2v2v2v2v2v2h1v-2v-2v-2v-2v-2v-2v-2v-2v-2v-2v-2v-2v-2v-2v-2v-2v-2v-2v-2v-2ZM190,258v1h1v-1ZM206,258v1h1v-1ZM234,258v1h1v-1ZM96,259v2h1v-2ZM107,259v1h1v-1ZM118,259v1h1v-1ZM139,259v1h1v-1ZM151,259v1h1v-1ZM192,259v1h2v-1ZM220,259v1h1v-1ZM232,259v1h1v-1ZM85,260v1h1v-1ZM106,260v1h1v-1ZM117,260v1h1v-1ZM194,260v1h2v-1ZM207,260v1h1v2h1v2v1h1v-1h1v-1h-1v-2h-1v-2ZM219,260v1h1v-1ZM227,263v1h1v1h1v-1h1v-1h1v-2h1v-1h-2v1h-1v1h-1v1ZM76,261v1h1v-1ZM84,261v1h1v-1ZM95,261v1h1v-1ZM116,261v1h1v-1ZM152,261v1h1v-1ZM196,261v1h1v-1ZM218,261v2h1v-2ZM247,261v2h1v-2ZM82,262v1h1v-1ZM94,262v2h1v-2ZM105,262v1h1v-1ZM114,263v2h1v-1h1v-2h-1v1ZM142,262v1h1v-1ZM197,262v1h1v-1ZM83,263v1h1v-1ZM143,263v2h1v1h1v-2h-1v-1ZM153,263v1h1v-1ZM198,263v1h1v-1ZM217,263v2h1v-2ZM82,264v1h1v-1ZM93,264v1h1v-1ZM104,264v1h1v-1ZM199,264v1h1v-1ZM226,264v1h1v-1ZM113,265v1h1v-1ZM154,265v1h1v-1ZM91,266v1h1v-1ZM103,266v2v1h1v-2v-1ZM120,266v1h1v-1ZM145,266v1h1v-1ZM199,266v2h1v1h1v-2v-1ZM216,266v1h1v-1ZM225,266v1h1v-1ZM253,272v1h1v1h1v-2v-2v-2v-2h-1v2v2v2ZM79,267v2h1v-1h1v-1ZM90,267v1h1v-1ZM112,267v1h1v-1ZM155,267v2v2h1v-2v-2ZM112,269v1h2h2h2h2h2h2h2h2h2h2h2h2h2h2h2h2h2h1v-2h-1v1h-2h-2h-2h-2h-2h-2h-2h-2h-2h-2h-2h-2h-2h-2h-2h-2ZM224,268v2v2v2v2v2v1h1v2h1v-2v-1h-1v-1h1v-2v-1h-1v-2v-2v-2ZM78,269v1h1v-1ZM89,269v1h1v-1ZM201,269v2v2v1h1v-2v-2v-1ZM210,269v2v2v2v2v2v2v2v2v2v2v2v2v2v2v1h1v-2v-2v-2v-2v-2v-2v-2v-2v-2v-2v-2v-2v-2v-2v-1ZM214,274v1h1v2v2v1h-1v2h1v-1h1v-2v-2v-2v-2v-2v-2h-1v2v2v1ZM88,270v1h1v-1ZM77,271v1h1v-1ZM87,271v2h2v-1h-1v-1ZM102,271v2v2v1h1v-2v-2v-1ZM156,271v2h1v-2ZM76,272v1h1v-1ZM75,273v1h1v-1ZM85,274v1h1v-1ZM161,274v2v2v2v2h1v-2v-2v-2v-2ZM74,275v1h1v-1ZM84,275v1h1v-1ZM73,276v1h1v-1ZM83,276v1h1v-1ZM155,277v1h1v-1ZM82,278v1h1v-1ZM112,278v2v1h1v2h1v-1h1v-1h-1v-1h-1v-1h2h2h2h2h2h2h2h2h2h2h2h2h2h2h2h2h2h2h2h2h2v-1h-2h-2h-2h-2h-2h-2h-2h-2h-2h-2h-2h-2h-2h-2h-2h-2h-2h-2h-2h-2h-2ZM71,279v1h1v-1ZM81,279v2h1v-2ZM61,280v1h2v-1ZM70,280v1h1v-1ZM103,280v1h1v-1ZM69,281v1h1v-1ZM80,281v1h1v-1ZM201,281v2v2v2v2v2h1v-2v-2v-2v-2v-2ZM226,281v2h1v-2ZM147,282v1h2h2h2h1v-1h-2h-2h-2ZM216,282v2h1v-2ZM252,282v2h1v1h2v-2v-1h-2ZM78,283v1h1v-1ZM103,283v1h1v2v1h1v2h1v1h2v-1h-1v-2h-1v-1h-1v-2v-1ZM145,283v1h1v-1ZM154,283v2h1v-2ZM227,283v1h1v-1ZM66,284v2h1v-1h1v-1ZM77,284v1h1v-1ZM114,284v1h1v-1ZM144,284v2h1v-2ZM217,284v1h1v-1ZM228,284v1h1v-1ZM65,286v1h1v-1ZM116,286v1h1v1h1v-1h1v-1h-2ZM143,286v1h1v-1ZM153,286v2h2v-2ZM218,286v1h1v-1ZM230,286v1h1v-1ZM118,288v1h1v1h1v-1h1v-1h-1v-1h-1v1ZM136,289v1h2v1h1v-1h1v-1h2v-1h-1v-1h-2v1h-1v1ZM142,287v1h1v-1ZM231,287v1h1v-1ZM64,288v1h1v-1ZM73,289v1h2h1v-1h-1v-1h-1v1ZM151,289v1h2v-2h-1v1ZM218,288v2h2h1v-1h-1v-1ZM233,288v1h2h1v-1h-2ZM249,289v1h2h2h2v-2h-2h-2v1ZM63,289v1h1v-1ZM84,289v1h1v-1ZM86,289v1h1v-1ZM90,289v1h1v-1ZM236,289v1h2h2h2h1v-1h-2h-2h-2ZM62,290v1h1v-1ZM98,290v1h1v-1ZM108,290v2h1v2h2h1v-1h-1v-1h-1v-1h-1v-1ZM120,290v1h1v-1ZM161,290v2v2v2v2h1v-2v-2v-2v-2ZM221,290v1h1v-1ZM58,292v1h2v1h1v-2h1v-1h-2v1ZM99,291v1h1v-1ZM121,291v1h1v-1ZM136,291v1h1v-1ZM150,291v1h1v-1ZM222,291v1h1v-1ZM100,292v1h1v-1ZM124,292v1h2h2h2h2h2v-1h-2h-2h-2h-2ZM149,292v1h1v-1ZM223,292v1h1v-1ZM101,293v2h1v-2ZM148,293v1h1v-1ZM201,293v2v2h1v-2v-2ZM224,293v2h1v1h1v1h2h2v-1h-2v-1h-2v-1h-1v-1ZM59,294v1h1v-1ZM112,294v1h1v-1ZM144,296v1h2h2v-1h1v-1h-1v-1h-1v1h-2v1ZM58,295v1h1v-1ZM102,295v1h1v-1ZM113,295v1h1v-1ZM103,296v2v1h1v-2v-1ZM114,296v2h1v-2ZM116,297v1h2v-1ZM142,297v1h2v-1ZM230,297v1h2h1v-1h-2ZM57,298v1h2v-1ZM81,298v1h2v-1ZM118,298v1h2v-1ZM140,298v1h1v-1ZM162,298v1h2h1v-1h-2ZM168,298v1h2v-1ZM202,298v1h2v-1ZM209,298v1h1v-1ZM235,298v1h2h2v-1h-2ZM241,298v1h1v-1ZM247,298v1h1v-1ZM250,298v1h1v-1ZM67,299v1h2v-1ZM120,299v1h2v-1ZM136,299v1h2h2v-1h-2ZM166,299v1h2v-1ZM204,299v1h2v1h1v-1h1v-1h-2ZM123,300v1h1v-1ZM125,300v1h2h2h2h2h2v-1h-2h-2h-2h-2Z"/>
</g>
</svg>
