<?xml version="1.0" encoding="iso-8859-1"?><svg version="1.1" id="Capa_1" xmlns="http://www.w3.org/2000/svg" xmlns:xlink="http://www.w3.org/1999/xlink" x="0px" y="0px"
	 viewBox="0 0 512 512" style="enable-background:new 0 0 512 512;" xml:space="preserve"><path style="fill:#FEA832;" d="M452,45.966v391c0,8.399-6.599,15-15,15H15c-8.401,0-15-6.601-15-15v-391c0-8.401,6.599-15,15-15h422
	C445.401,30.966,452,37.565,452,45.966z"/><path style="fill:#FE9923;" d="M452,45.966v391c0,8.399-6.599,15-15,15H226v-421h211C445.401,30.966,452,37.565,452,45.966z"/><path style="fill:#FEDB41;" d="M512,105.966v256l-150,150H75c-8.401,0-15-6.601-15-15v-391c0-8.401,6.599-15,15-15h422
	C505.401,90.966,512,97.565,512,105.966z"/><path style="fill:#FCBF29;" d="M512,105.966v256l-150,150h-76v-421h211C505.401,90.966,512,97.565,512,105.966z"/><path style="fill:#FEA832;" d="M301,406.966c0,8.399-6.599,15-15,15s-15-6.601-15-15c0-8.401,6.599-15,15-15
	S301,398.565,301,406.966z"/><path style="fill:#08469C;" d="M247.68,177.447c-6.899-4.6-8.76-13.901-4.16-20.801l26.719-40.078
	c4.585-6.899,13.886-8.774,20.801-4.16c6.899,4.6,8.76,13.901,4.16,20.801l-26.719,40.078
	C263.957,180.084,254.689,182.093,247.68,177.447z"/><path style="fill:#FE9923;" d="M435.184,489.993l54.844-54.844C504.192,420.985,512,402.147,512,382.108v-20.142H377
	c-8.291,0-15,6.709-15,15v135h20.142C402.181,511.966,421.019,504.158,435.184,489.993z"/><g><path style="fill:#FEA832;" d="M452,226.966c0,8.399-6.599,15-15,15H135c-8.401,0-15-6.601-15-15c0-8.401,6.599-15,15-15h302
		C445.401,211.966,452,218.565,452,226.966z"/><path style="fill:#FEA832;" d="M452,286.966c0,8.399-6.599,15-15,15H135c-8.401,0-15-6.601-15-15c0-8.401,6.599-15,15-15h302
		C445.401,271.966,452,278.565,452,286.966z"/><path style="fill:#FEA832;" d="M332,346.966c0,8.399-7.599,15-16,15H135c-8.401,0-15-6.601-15-15c0-8.401,6.599-15,15-15h181
		C324.401,331.966,332,338.565,332,346.966z"/><path style="fill:#FEA832;" d="M226,421.966h-91c-8.291,0-15-6.709-15-15s6.709-15,15-15h91c8.291,0,15,6.709,15,15
		S234.291,421.966,226,421.966z"/></g><g><path style="fill:#FE9923;" d="M301,406.966c0,8.399-6.599,15-15,15v-30C294.401,391.966,301,398.565,301,406.966z"/><path style="fill:#FE9923;" d="M332,346.966c0,8.399-7.599,15-16,15h-30v-30h30C324.401,331.966,332,338.565,332,346.966z"/><path style="fill:#FE9923;" d="M452,286.966c0,8.399-6.599,15-15,15H286v-30h151C445.401,271.966,452,278.565,452,286.966z"/><path style="fill:#FE9923;" d="M437,241.966H286v-30h151c8.401,0,15,6.599,15,15C452,235.365,445.401,241.966,437,241.966z"/></g><path style="fill:#19DEC1;" d="M370.101,21.865C347.601-0.334,313.299-5.734,286,6.265c-8.401,3.6-16.199,8.701-23.101,15.601
	c-29.099,29.399-29.099,76.8,0,106.199c6.901,6.901,14.7,12.001,23.101,15.601c27.299,12.001,61.601,6.601,84.101-15.601
	C399.2,98.665,399.2,51.265,370.101,21.865z"/><path style="fill:#17CEB4;" d="M370.101,128.065c-22.5,22.202-56.801,27.601-84.101,15.601V6.265
	c27.299-11.999,61.601-6.599,84.101,15.601C399.2,51.265,399.2,98.665,370.101,128.065z"/><g></g><g></g><g></g><g></g><g></g><g></g><g></g><g></g><g></g><g></g><g></g><g></g><g></g><g></g><g></g></svg>
