<svg xmlns="http://www.w3.org/2000/svg" viewBox="0 0 512 512" role="img" aria-labelledby="title description">
  <title id="title">Validando formulários com o plugin jQuery Validade</title>
  <desc id="description">Validation checks form input</desc>
  <circle cx="256" cy="256" r="248" fill="#2D2C50"/>
  <circle cx="246" cy="246" r="205" fill="#EEE8FF" opacity=".14"/>
  <g transform="translate(67 67) scale(3.60)" fill="none" stroke="#F6F0FF" stroke-width="5.5" stroke-linecap="round" stroke-linejoin="round"><rect fill="#EEE8FF" x="17" y="10" width="66" height="82" rx="5"/><path d="m28 34 5 5 9-10m9 5h20m-43 23 5 5 9-10m9 5h20m-43 23 5 5 9-10m9 5h20"/></g>
  <circle cx="397" cy="397" r="87" fill="#FFE0A7" stroke="#2D2C50" stroke-width="11"/>
  <g transform="translate(337 337) scale(1.20)" fill="none" stroke="#F6F0FF" stroke-width="5.5" stroke-linecap="round" stroke-linejoin="round"><rect fill="#EEE8FF" x="6" y="27" width="88" height="48" rx="5"/><path d="M15 39h7m9 0h7m9 0h7m9 0h7m9 0h7M15 51h7m9 0h7m9 0h7m9 0h7m9 0h7M25 63h50"/></g>
</svg>
