<svg xmlns="http://www.w3.org/2000/svg" viewBox="0 0 512 512"><path fill="#ffdf78" d="M490.737 21.263H256l-20.016 67.798 254.753-20.016z"/><path fill="#ffebae" d="M218.837 21.263l-20.016 67.798H256V21.263z"/><path fill="#fe8944" d="M512 69.045H256l-20.016 221.477L256 512h256z"/><path fill="#feb158" d="M218.837 69.045V0H0v512h256V69.045z"/><path d="M316.192 197.341v108.864h30V197.341c0-49.732-40.46-90.192-90.192-90.192L245.992 123 256 137.149c33.19 0 60.192 27.002 60.192 60.192z" fill="#cccdd2"/><path d="M165.808 197.341v108.864h30V197.341c0-33.19 27.002-60.192 60.192-60.192v-30c-49.732 0-90.192 40.46-90.192 90.192z" fill="#f5f5f6"/><path fill="#ffc813" d="M378.182 269.646H256l-20.016 92.687L256 465.432h122.182z"/><path fill="#ffdf78" d="M133.82 269.65H256v195.79H133.82z"/><path d="M271 428.016V385.04c12.277-5.675 20.8-18.091 20.8-32.505 0-19.772-16.028-35.8-35.8-35.8l-10.008 34.934L256 428.016h15z" fill="#ffe6a1"/><path d="M220.2 352.534c0 14.414 8.523 26.83 20.8 32.505v42.976h15V316.734c-19.772 0-35.8 16.028-35.8 35.8z" fill="#fff"/></svg>