<?xml version="1.0" encoding="iso-8859-1"?><svg version="1.1" id="Capa_1" xmlns="http://www.w3.org/2000/svg" xmlns:xlink="http://www.w3.org/1999/xlink" x="0px" y="0px"
	 viewBox="0 0 512 512" style="enable-background:new 0 0 512 512;" xml:space="preserve"><circle style="fill:#FFDC00;" cx="256" cy="256" r="256"/><path style="fill:#FFC000;" d="M512,256c0-17.873-1.838-35.315-5.323-52.155l-85.759-85.759L62.667,413.667l62.26,62.26
	C163.269,498.827,208.093,512,256,512C397.385,512,512,397.385,512,256z"/><g><rect x="194.11" y="118.09" style="fill:#4D4D4D;" width="226.81" height="264.85"/><rect x="194.11" y="316.73" style="fill:#4D4D4D;" width="226.81" height="66.21"/></g><g><rect x="306" y="316.73" style="fill:#333333;" width="114.92" height="66.21"/><rect x="194.11" y="118.09" style="fill:#333333;" width="226.81" height="66.21"/></g><rect x="306" y="118.09" style="fill:#1A1A1A;" width="114.92" height="66.21"/><g><rect x="306" y="184.3" style="fill:#333333;" width="114.92" height="66.21"/><rect x="194.11" y="250.51" style="fill:#333333;" width="226.81" height="66.21"/></g><rect x="306" y="250.51" style="fill:#1A1A1A;" width="114.92" height="66.21"/><g><circle style="fill:#8CC63F;" cx="386.37" cy="151.19" r="13.674"/><circle style="fill:#8CC63F;" cx="386.37" cy="217.41" r="13.674"/><circle style="fill:#8CC63F;" cx="386.37" cy="283.62" r="13.674"/><circle style="fill:#8CC63F;" cx="386.37" cy="349.83" r="13.674"/></g><polygon style="fill:#0074A3;" points="89.442,221.667 62.667,250.333 62.667,413.667 242,413.667 242,221.667 "/><rect x="152.5" y="221.67" style="fill:#005C83;" width="89.5" height="192"/><rect x="92" y="221.67" style="fill:#35CCFF;" width="120.67" height="72"/><rect x="152.5" y="221.67" style="fill:#00BAFF;" width="60.17" height="72"/><rect x="92" y="326" style="fill:#B9EAFF;" width="120.67" height="72"/><rect x="152.5" y="326" style="fill:#35CCFF;" width="60.17" height="72"/><rect x="189.67" y="232" style="fill:#008CC3;" width="11.333" height="49.667"/><g></g><g></g><g></g><g></g><g></g><g></g><g></g><g></g><g></g><g></g><g></g><g></g><g></g><g></g><g></g></svg>
