<?xml version="1.0" encoding="iso-8859-1"?><svg version="1.1" id="Capa_1" xmlns="http://www.w3.org/2000/svg" xmlns:xlink="http://www.w3.org/1999/xlink" x="0px" y="0px"
	 viewBox="0 0 512 512" style="enable-background:new 0 0 512 512;" xml:space="preserve"><rect x="73.02" style="fill:#C8C6CD;" width="30" height="298"/><rect x="32.14" y="283" style="fill:#78777F;" width="111.76" height="83"/><rect x="88.02" style="fill:#AEADB3;" width="15" height="298"/><rect x="88.02" y="283" style="fill:#3C3A41;" width="55.88" height="83"/><g><path style="fill:#00CEB4;" d="M149.546,147.152l-9.552-28.439c5.993-2.013,10.019-7.618,10.019-13.949
		c0-6.338-4.032-11.945-10.034-13.954l9.521-28.449c18.25,6.108,30.513,23.148,30.513,42.403
		C180.014,123.997,167.77,141.031,149.546,147.152z"/><path style="fill:#00CEB4;" d="M167.603,199.678l-9.552-28.439c28.566-9.595,47.76-36.305,47.76-66.465
		c0-30.195-19.222-56.915-47.831-66.489l9.521-28.449c40.858,13.673,68.311,51.826,68.311,94.938
		C235.811,147.836,208.4,185.975,167.603,199.678z"/><rect y="336" style="fill:#00CEB4;" width="512" height="176"/></g><rect x="256" y="336" style="fill:#008878;" width="256" height="176"/><path style="fill:#FF7D3C;" d="M137.76,424.76c0,27.43-22.31,49.74-49.74,49.74c-27.42,0-49.74-22.31-49.74-49.74
	s22.32-49.74,49.74-49.74C115.45,375.02,137.76,397.33,137.76,424.76z"/><g><rect x="244" y="439.5" style="fill:#9CFDFF;" width="50" height="30"/><rect x="165" y="439.5" style="fill:#9CFDFF;" width="50" height="30"/><rect x="323.33" y="439.5" style="fill:#9CFDFF;" width="50" height="30"/><rect x="402.67" y="439.5" style="fill:#9CFDFF;" width="50" height="30"/></g><g></g><g></g><g></g><g></g><g></g><g></g><g></g><g></g><g></g><g></g><g></g><g></g><g></g><g></g><g></g></svg>
