<?xml version="1.0" encoding="iso-8859-1"?>
<!-- Generator: Adobe Illustrator 19.0.0, SVG Export Plug-In . SVG Version: 6.00 Build 0)  -->
<svg version="1.1" id="Capa_1" xmlns="http://www.w3.org/2000/svg" xmlns:xlink="http://www.w3.org/1999/xlink" x="0px" y="0px"
	 viewBox="0 0 491.312 491.312" style="enable-background:new 0 0 491.312 491.312;" xml:space="preserve">
<path style="fill:#FFA64D;" d="M343.668,224l32-24l-40-32l32-24l-64-24l24-32l-96-24l8-24h-40l-96,112l0.016,0.032
	c0.096,0,0.192-0.032,0.288-0.032c4.896,0,9.568,2.08,12.84,5.72L183.668,232c13.256,0,24,10.744,24,24c0,13.256-10.744,24-24,24
	h-16v128l32,32l24-24l40,16v-40h32v-32h40l-16-40l32-8l-16-40l40-8L343.668,224z"/>
<g>
	<path style="fill:#333333;" d="M454.324,283.56c-9.44-14.16-21.088-26.408-34.24-36.664l47.56-47.56l-6.976-5.584
		c-11.416-9.128-24.096-16.424-37.488-21.944l38.504-38.496l-35.928-15.4c-15.264-6.544-31.336-10.8-47.688-12.72
		c12.688-9.296,24.04-20.44,33.464-33.016l10.808-14.4l-39.04-4.88c-12.976-1.624-25.944-2.048-38.84-1.328L365.804,16h-14.136
		c-18.304,0-36.68,1.528-54.76,4.552L310.612,0h-20.584c-34.344,0-67.792,12.112-94.176,34.096
		c-6.536,5.456-12.632,11.512-18.128,17.992l-78.192,92.408c-5.984,1.064-11.424,4.144-15.304,8.984l-23.704,29.64
		c-3.128,3.92-4.856,8.832-4.856,13.84c0,4.904,1.632,9.472,4.392,13.184l-22.952,30.608L51.5,255.144
		C34.052,268.704,23.668,289.856,23.668,312v8h24v46.704l-3.304,9.912c-3.608,10.824-0.832,22.552,7.224,30.616
		c5.576,5.576,13.28,8.768,21.16,8.768h2.424c4.088,0,8.048-0.816,11.784-2.424L137.308,392h22.472
		c0.128,6.728,0.592,13.488,1.536,20.12l1.632,11.416c3.336,23.36,14.368,45.432,31.064,62.128l5.656,5.648l5.656-5.656
		c12.44-12.44,20.736-27.896,24.312-44.704C242.9,465.04,268.164,480,295.668,480h8v-35.096c11.544,7.856,24.12,14.232,37.472,18.68
		l10.528,3.52V456c0-13.768-2.296-27.216-6.472-40h57.08l-15.424-53.992c14.536,3.904,29.576,5.992,44.816,5.992h13.792
		l-6.84-11.968c-8.8-15.4-19.44-29.4-31.512-41.944l52.56-22.528L454.324,283.56z M406.78,237.576
		c-13.216-8.256-27.64-14.616-42.976-18.68l24.928-18.696L358.476,176h5.968c28.224,0,55.96,8.784,79.04,24.872L406.78,237.576z
		 M323.852,352h-22.08l-81.96-86.784l93,59.176L323.852,352z M268.812,384l-66.408-102.176c2.192-1.592,4.12-3.488,5.84-5.576
		l79.424,84.104V384H268.812z M183.668,240c8.816,0,16,7.176,16,16c0,8.816-7.184,16-16,16s-16-7.184-16-16
		C167.668,247.176,174.852,240,183.668,240z M176.716,405.736c-0.64-5.584-1.048-11.216-1.048-16.832v-81.696l24.352,79.144
		l14.76,27.224l-15.112,15.112L176.716,405.736z M215.076,380.872L186.42,287.72c0.232-0.016,0.456-0.04,0.68-0.072l68.568,105.496
		v27.048l-24.496-9.8L215.076,380.872z M222.564,248h39.312l68.464,32.224l10.496,26.24l-18.944,4.736L222.564,248z M333.876,264.2
		L265.46,232h-60.848c-4.688-4.096-10.536-6.8-17.024-7.608l-11.12-12.352l17.136-4.288l-3.872-15.512l-25.376,6.344l-2.16-2.4
		L209.308,176H332.86l29.744,23.8l-18.696,14.024L225.604,184.24l-1.936-0.488l-17.936,4.488l3.872,15.512l14.064-3.504L337.1,228.6
		l24.104,30.136L333.876,264.2z M301.196,127.616l49.992,18.744L332.996,160H206.028L150.9,183.632l-4.168-4.624l63.648-35.352
		L301.196,127.616z M433.652,138.696l-27.264,27.272c-13.592-3.864-27.696-5.968-41.944-5.968h-4.776l24.48-18.36l-51.888-19.456
		c29.48-4.92,59.768-1.328,87.184,10.432L433.652,138.696z M381.316,68.768l11.296,1.416c-12.144,14.064-27.072,25.728-43.632,34.16
		c-6.96,0.368-13.92,1.056-20.84,2.28l-5.12,0.904l18.272-24.352l-36.456-9.112c1-0.264,1.976-0.6,2.976-0.848
		C331.924,67.168,356.66,65.68,381.316,68.768z M289.86,38.12c15.624-3.128,31.536-5.064,47.48-5.792l-12.76,21.264
		c-6.912,1.032-13.8,2.384-20.632,4.096c-9.56,2.384-18.92,5.472-28.048,9.128l-33.912-8.48L250.772,32H227.5
		c16.32-8.856,34.376-14.288,52.992-15.648L262.3,43.632L289.86,38.12z M189.948,62.424c4.376-5.176,9.24-9.976,14.384-14.424
		h24.232l-7.216,21.664l31.648,7.912c-0.288,0.152-0.584,0.288-0.864,0.44l-8.32,4.576l7.72,14.016l8.32-4.576
		c5.648-3.104,11.488-5.848,17.4-8.392l36.784,9.192l-14.056,18.752l-93.696,16.536l-1.32,0.224l-69.2,38.448l-3.928-4.36
		L239.892,103l-7.704-14.016l-111.616,61.392c-0.976-0.856-1.984-1.64-3.072-2.336L189.948,62.424z M73.02,193.128l23.712-29.64
		c3.408-4.28,10.488-4.464,14.144-0.416l58.168,64.632c-5.824,3.024-10.56,7.744-13.608,13.56c-20.112-17.184-43.96-29.56-69.728-36
		l-9.376-2.344c-2.752-0.688-4.664-3.136-4.664-5.96C71.668,195.568,72.148,194.208,73.02,193.128z M134.028,376l-53.384,22.872
		c-1.736,0.752-3.576,1.128-5.472,1.128h-2.424c-3.664,0-7.248-1.48-9.84-4.08c-3.752-3.752-5.04-9.208-3.368-14.24l4.128-12.384
		V304H40.252c2.12-14.528,9.936-27.896,21.816-36.808l13.784-10.328l-17.616-17.616l15.384-20.52l8.208,2.048
		c26.448,6.608,50.64,20.12,70.232,39.048c0.792,6.52,3.496,12.408,7.616,17.12V376H134.028z M199.612,468.08
		c-8.536-10.264-14.8-22.328-18.36-35.176l18.416,18.408l14.464-14.464C211.828,448.248,206.924,458.92,199.612,468.08z
		 M287.668,463.464c-18.552-2.512-35.008-13.688-44.136-30.408l-0.344-0.632l28.48,11.392v-28.08
		c4.928,5.968,10.248,11.576,16,16.712V463.464z M279.58,400h24.088v-22.704l1.224,1.296c17.112,18.12,27.592,41.048,30.16,65.544
		C313.068,434.584,293.86,419.28,279.58,400z M381.06,400h-42.288c-5.608-11.584-12.912-22.392-21.92-32h30.624l-11.56-28.904
		l2.96,1.888c9.408,5.984,19.336,10.936,29.592,14.968L381.06,400z M416.836,351.304c-24.632-2.336-48.36-10.456-69.368-23.832
		l-6.976-4.44l22-5.496l-10.544-26.376C377.956,306.04,400.06,326.464,416.836,351.304z M394.508,302.08
		c-11.368-10-23.784-18.824-37.184-26.256l32.8-6.56l-27.176-33.968c28.824,8.384,54.136,25.536,72.416,49.272L394.508,302.08z"/>
	<rect x="87.668" y="248" style="fill:#333333;" width="16" height="16"/>
</g>
<g>
</g>
<g>
</g>
<g>
</g>
<g>
</g>
<g>
</g>
<g>
</g>
<g>
</g>
<g>
</g>
<g>
</g>
<g>
</g>
<g>
</g>
<g>
</g>
<g>
</g>
<g>
</g>
<g>
</g>
</svg>
