<?xml version="1.0" encoding="iso-8859-1"?><svg xmlns="http://www.w3.org/2000/svg" xmlns:xlink="http://www.w3.org/1999/xlink" version="1.1" id="Capa_1" x="0px" y="0px" viewBox="0 0 125.721 125.721" style="enable-background:new 0 0 125.721 125.721;" xml:space="preserve" width="512px" height="512px"><g><path d="M125.721,88.968c-2.559-3.214-2.942-17.017-3.439-24.78c-0.902-14.018-7.43-19.379-16.592-19.379   c-7.294,0-12.87,3.493-15.31,11.957c-1.886-22.167-12.601-30.739-27.518-30.739c-14.924,0-25.632,8.571-27.525,30.742   c-2.441-8.468-8.013-11.961-15.307-11.961c-9.165,0-15.69,5.361-16.592,19.379C2.942,71.951,2.981,84.355,0,88.968h32.872   c-0.755,4.452-1.829,8.264-3.421,10.726h66.831c-1.474-1.85-2.509-5.819-3.275-10.726H125.721z M94.274,65.126   c0.215-0.064,0.426-0.014,0.648,0.107V63.82l1.385-0.1c5.175,0,9.656-2.194,12.118-5.436c1.782,2.348,4.635,4.109,8.052,4.914   v2.033c0.218-0.122,0.433-0.175,0.644-0.107c0.705,0.215,1.013,1.5,0.684,2.885c-0.315,1.342-1.908,2.273-2.605,2.133   c-1.353,4.381-6.041,9.437-9.505,9.437c-3.561,0-8.128-4.942-9.48-9.437c-0.691,0.157-2.308-0.777-2.616-2.133   C93.265,66.626,93.569,65.334,94.274,65.126z M32.134,68.011c-0.319,1.342-1.911,2.265-2.605,2.129   c-1.353,4.381-6.041,9.437-9.505,9.437c-3.565,0-8.128-4.942-9.484-9.437c-0.694,0.157-2.305-0.773-2.62-2.129   c-0.326-1.389-0.018-2.677,0.687-2.888c0.211-0.064,0.429-0.014,0.648,0.107v-1.414l1.381-0.1c5.175,0,9.656-2.194,12.118-5.436   c1.782,2.348,4.635,4.109,8.049,4.914v2.033c0.218-0.122,0.437-0.175,0.648-0.107C32.149,65.334,32.46,66.626,32.134,68.011z    M83.065,64.725c-0.526,2.244-3.192,3.797-4.348,3.557c-2.255,7.304-10.071,15.74-15.858,15.74c-5.944,0-13.56-8.249-15.826-15.743   c-1.156,0.261-3.84-1.288-4.37-3.554c-0.544-2.305-0.032-4.456,1.145-4.81c0.354-0.1,0.716-0.021,1.077,0.183v-2.355l2.308-0.172   c8.636,0,16.112-3.658,20.21-9.062c2.97,3.919,7.73,6.853,13.428,8.196v3.393c0.361-0.204,0.719-0.283,1.077-0.183   C83.083,60.27,83.602,62.424,83.065,64.725z" fill="#3d3d3d"/></g><g></g><g></g><g></g><g></g><g></g><g></g><g></g><g></g><g></g><g></g><g></g><g></g><g></g><g></g><g></g></svg>
