<?xml version="1.0" encoding="iso-8859-1"?><svg version="1.1" id="Capa_1" xmlns="http://www.w3.org/2000/svg" xmlns:xlink="http://www.w3.org/1999/xlink" x="0px" y="0px"
	 viewBox="0 0 512 512" style="enable-background:new 0 0 512 512;" xml:space="preserve"><path style="fill:#FCBF29;" d="M260.4,180.901c5.7,2.098,9.6,7.798,9.6,14.099v302c0,5.099-2.701,9.901-7.2,12.9
	c-2.401,1.5-5.099,2.1-7.8,2.1c-2.401,0-4.501-0.601-6.599-1.5l-90-45C153.3,462.8,150,457.7,150,452v-65.7l-30-15V422
	c0,5.099-2.701,9.901-7.2,12.9c-4.2,2.701-9.901,2.701-14.399,0.601l-90-45C3.3,387.8,0,382.7,0,377V105c0-1.8,0.3-3.6,1.199-5.4
	c1.37-4.108,4.51-6.757,8.401-8.699l0.899-0.3C13.8,89.7,17.1,89.7,20.4,90.901l81,30.599c0.601,0,1.199,0.3,1.8,0.601l7.5,2.999
	c5.7,2.1,9.3,7.8,9.3,13.801v76.8l30,15v-69.3c0-4.801,2.401-9.3,6.301-12.301c3.9-2.699,9-3.6,13.799-1.8l14.7,5.402L260.4,180.901
	z"/><g><path style="fill:#FEDBAB;" d="M158.291,465.418L90,431.272V322.728l90,45v108.47L158.291,465.418z"/><path style="fill:#FEDBAB;" d="M162.599,160.499l-71.4-26.999C90.3,135.3,90,137.1,90,138.9v95.153l8.401,4.448L180,279.3V167.1
		L162.599,160.499z"/></g><path style="fill:#FED42D;" d="M512,105c0,6.301-3.9,12.001-9.6,14.099l-242,90C258.6,209.7,256.8,210,255,210v-15l-57.9-21.599
	h-0.3L180,167.1l-17.401-6.601l-71.4-26.999l-90-33.9C2.701,95.4,5.7,92.701,9.6,90.901l0.899-0.3l9.901-3.6l229.2-86.1
	c3.6-1.201,7.2-1.201,10.8,0L349.701,33.6L444.5,69.3l57.9,21.601c3.9,1.5,6.601,5.099,8.101,9C511.099,101.7,512,103.2,512,105z"/><polygon style="fill:#FFF5CD;" points="444.5,69.3 180,167.1 162.599,160.499 91.199,133.5 349.701,33.6 "/><path style="fill:#FEA832;" d="M512,105v302c0,6.301-3.9,12.001-9.6,14.099l-242,90C258.6,511.7,256.8,512,255,512V195l255.5-95.099
	C511.099,101.7,512,103.2,512,105z"/><g></g><g></g><g></g><g></g><g></g><g></g><g></g><g></g><g></g><g></g><g></g><g></g><g></g><g></g><g></g></svg>
