<?xml version="1.0" encoding="iso-8859-1"?><svg version="1.1" id="Capa_1" xmlns="http://www.w3.org/2000/svg" xmlns:xlink="http://www.w3.org/1999/xlink" x="0px" y="0px"
	 viewBox="0 0 512 512" style="enable-background:new 0 0 512 512;" xml:space="preserve"><path style="fill:#FD4E26;" d="M512,376c0,5.7-3.3,10.8-8.401,13.5l-241,121c-2.098,0.899-4.199,1.5-6.599,1.5
	s-4.501-0.601-6.599-1.5l-241-121C3.3,386.8,0,381.7,0,376s3.3-10.8,8.401-13.5l121-60h253.198l121,60
	C508.7,365.2,512,370.3,512,376z"/><path style="fill:#FD3018;" d="M512,376c0,5.7-3.3,10.8-8.401,13.5l-241,121c-2.098,0.899-4.199,1.5-6.599,1.5V302.5h126.599l121,60
	C508.7,365.2,512,370.3,512,376z"/><path style="fill:#1DE8F1;" d="M512,256c0,5.7-3.3,10.8-8.401,13.5l-241,120c-2.098,0.899-4.199,1.5-6.599,1.5
	s-4.501-0.601-6.599-1.5l-241-120C3.3,266.8,0,261.7,0,256s3.3-10.8,8.401-13.5l121-60h253.198l121,60
	C508.7,245.2,512,250.3,512,256z"/><path style="fill:#1BD9DE;" d="M512,256c0,5.7-3.3,10.8-8.401,13.5l-241,120c-2.098,0.899-4.199,1.5-6.599,1.5V182.5h126.599l121,60
	C508.7,245.2,512,250.3,512,256z"/><path style="fill:#FCBF29;" d="M503.599,122.5l-241-121C260.501,0.599,258.401,0,256,0s-4.501,0.599-6.599,1.5l-241,121
	C3.3,125.2,0,130.3,0,136s3.3,10.8,8.401,13.5l241,120c2.098,0.899,4.199,1.5,6.599,1.5s4.501-0.601,6.599-1.5l241-120
	C508.7,146.8,512,141.7,512,136S508.7,125.2,503.599,122.5z"/><path style="fill:#FEA832;" d="M262.599,269.5c-2.098,0.899-4.199,1.5-6.599,1.5V0c2.401,0,4.501,0.599,6.599,1.5l241,121
	C508.7,125.2,512,130.3,512,136s-3.3,10.8-8.401,13.5L262.599,269.5z"/><g></g><g></g><g></g><g></g><g></g><g></g><g></g><g></g><g></g><g></g><g></g><g></g><g></g><g></g><g></g></svg>
