<?xml version="1.0" encoding="iso-8859-1"?><svg version="1.1" id="Capa_1" xmlns="http://www.w3.org/2000/svg" xmlns:xlink="http://www.w3.org/1999/xlink" x="0px" y="0px"
	 viewBox="0 0 512 512" style="enable-background:new 0 0 512 512;" xml:space="preserve"><circle style="fill:#FF9451;" cx="256" cy="256" r="256"/><path style="fill:#F7674F;" d="M97,349l162.95,162.95C399.511,509.836,512,396.064,512,256c0-22.793-2.995-44.884-8.584-65.918
	L415,101.667L97,349z"/><polygon style="fill:#E0E0E0;" points="321.839,420.536 190.161,420.536 209.124,322.797 302.876,322.797 "/><polygon style="fill:#C0C0C0;" points="302.876,322.797 256,322.797 256,420.536 321.839,420.536 "/><rect x="97" y="101.67" style="fill:#1A1A1A;" width="318" height="230.37"/><rect x="256" y="101.67" width="159" height="230.37"/><rect x="112.19" y="113.48" style="fill:#35CCFF;" width="287.63" height="223.71"/><rect x="256" y="113.48" style="fill:#00BAFF;" width="143.81" height="223.71"/><rect x="97" y="280.33" style="fill:#FFFFFF;" width="318" height="68.67"/><g><rect x="256" y="280.33" style="fill:#E0E0E0;" width="159" height="68.67"/><circle style="fill:#E0E0E0;" cx="256" cy="307.67" r="14"/></g><path style="fill:#C0C0C0;" d="M256,293.667v28c7.732,0,14-6.268,14-14S263.732,293.667,256,293.667z"/><g><rect x="127" y="128" style="fill:#FFFFFF;" width="74" height="30.5"/><rect x="127" y="172.06" style="fill:#FFFFFF;" width="74" height="94"/><rect x="219" y="128" style="fill:#FFFFFF;" width="74" height="30.5"/></g><rect x="256" y="128" style="fill:#B9EAFF;" width="37" height="30.5"/><rect x="219" y="172.06" style="fill:#FFFFFF;" width="74" height="94"/><g><rect x="256" y="172.06" style="fill:#B9EAFF;" width="37" height="94"/><rect x="310" y="128" style="fill:#B9EAFF;" width="74" height="30.5"/><rect x="310" y="172.06" style="fill:#B9EAFF;" width="74" height="94"/></g><g></g><g></g><g></g><g></g><g></g><g></g><g></g><g></g><g></g><g></g><g></g><g></g><g></g><g></g><g></g></svg>
