<?xml version="1.0" encoding="iso-8859-1"?><svg version="1.1" id="Layer_1" xmlns="http://www.w3.org/2000/svg" xmlns:xlink="http://www.w3.org/1999/xlink" x="0px" y="0px"
	 viewBox="0 0 460 460" style="enable-background:new 0 0 460 460;" xml:space="preserve"><g id="XMLID_1102_"><polygon id="XMLID_1103_" style="fill:#466289;" points="390.721,284.04 366.248,320.465 366.248,430 460,460 460,282.947 	"/><polygon id="XMLID_1104_" style="fill:#BEC8D6;" points="460,180.924 460,282.947 424.806,318.068 390.721,284.04 	"/><polygon id="XMLID_1105_" style="fill:#FA6121;" points="366.248,53.888 366.248,107.776 245,107.776 225,33.888 	"/><polygon id="XMLID_1106_" style="fill:#FB7B46;" points="366.248,0 366.248,53.888 225,53.888 245,0 	"/><polygon id="XMLID_1107_" style="fill:#FCB090;" points="245,140 230,160 215,140 215,0 245,0 	"/><polygon id="XMLID_1108_" style="fill:#233145;" points="314.98,244.16 460,460 230,460 210,242.82 	"/><polygon id="XMLID_1109_" style="fill:#BEC8D6;" points="245,140 314.98,244.16 273.17,285.9 230,242.82 210,191.41 230,140 	"/><polygon id="XMLID_1110_" style="fill:#6B81A1;" points="69.279,284.04 93.753,320.466 93.753,430 0,460 0,282.947 	"/><polygon id="XMLID_1111_" style="fill:#DAE0E7;" points="0,180.924 0,282.947 35.194,318.068 69.279,284.04 	"/><polygon id="XMLID_1112_" style="fill:#354A67;" points="145.02,244.16 0,460 230,460 230,242.82 	"/><polygon id="XMLID_1113_" style="fill:#DAE0E7;" points="215,140 145.02,244.16 186.83,285.9 230,242.82 230,140 	"/></g><g></g><g></g><g></g><g></g><g></g><g></g><g></g><g></g><g></g><g></g><g></g><g></g><g></g><g></g><g></g></svg>
