<?xml version="1.0" encoding="iso-8859-1"?>
<!-- Generator: Adobe Illustrator 19.0.0, SVG Export Plug-In . SVG Version: 6.00 Build 0)  -->
<svg version="1.1" id="Capa_1" xmlns="http://www.w3.org/2000/svg" xmlns:xlink="http://www.w3.org/1999/xlink" x="0px" y="0px"
	 viewBox="0 0 512 512" style="enable-background:new 0 0 512 512;" xml:space="preserve">
<polygon style="fill:#FFDF78;" points="490.737,21.263 256,21.263 235.984,89.061 490.737,69.045 "/>
<polygon style="fill:#FFEBAE;" points="218.837,21.263 198.821,89.061 256,89.061 256,21.263 "/>
<polygon style="fill:#FE8944;" points="512,69.045 256,69.045 235.984,290.522 256,512 512,512 "/>
<polygon style="fill:#FEB158;" points="218.837,69.045 218.837,0 0,0 0,512 256,512 256,69.045 "/>
<path style="fill:#CCCDD2;" d="M316.192,197.341v108.864h30V197.341c0-49.732-40.46-90.192-90.192-90.192L245.992,123L256,137.149
	C289.19,137.149,316.192,164.151,316.192,197.341z"/>
<path style="fill:#F5F5F6;" d="M165.808,197.341v108.864h30V197.341c0-33.19,27.002-60.192,60.192-60.192l0,0v-30l0,0
	C206.268,107.149,165.808,147.609,165.808,197.341z"/>
<polygon style="fill:#FFC813;" points="378.182,269.646 256,269.646 235.984,362.333 256,465.432 378.182,465.432 "/>
<rect x="133.82" y="269.65" style="fill:#FFDF78;" width="122.18" height="195.79"/>
<path style="fill:#FFE6A1;" d="M271,428.016V385.04c12.277-5.675,20.8-18.091,20.8-32.505c0-19.772-16.028-35.8-35.8-35.8
	l-10.008,34.934L256,428.016H271z"/>
<path style="fill:#FFFFFF;" d="M220.2,352.534c0,14.414,8.523,26.83,20.8,32.505v42.976h15V316.734l0,0
	C236.228,316.734,220.2,332.762,220.2,352.534z"/>
<g>
</g>
<g>
</g>
<g>
</g>
<g>
</g>
<g>
</g>
<g>
</g>
<g>
</g>
<g>
</g>
<g>
</g>
<g>
</g>
<g>
</g>
<g>
</g>
<g>
</g>
<g>
</g>
<g>
</g>
</svg>
