<?xml version="1.0" encoding="iso-8859-1"?>
<!-- Generator: Adobe Illustrator 19.0.0, SVG Export Plug-In . SVG Version: 6.00 Build 0)  -->
<svg version="1.1" id="Capa_1" xmlns="http://www.w3.org/2000/svg" xmlns:xlink="http://www.w3.org/1999/xlink" x="0px" y="0px"
	 viewBox="0 0 512 512" style="enable-background:new 0 0 512 512;" xml:space="preserve">
<path style="fill:#E0E0E0;" d="M489.511,50.992H22.488C10.088,50.992,0,61.08,0,73.48V438.52c0,12.401,10.088,22.488,22.488,22.488
	h467.023c12.4,0,22.488-10.088,22.488-22.488V73.48C512,61.08,501.912,50.992,489.511,50.992z"/>
<path style="fill:#C6C5CA;" d="M489.511,50.992h-32.043c12.4,0,22.488,10.088,22.488,22.488V438.52
	c0,12.401-10.089,22.488-22.488,22.488h32.043c12.4,0,22.488-10.088,22.488-22.488V73.48C512,61.08,501.912,50.992,489.511,50.992z"
	/>
<path style="fill:#39A4FA;" d="M273.97,184.345H58.1c-4.14,0-7.496,3.356-7.496,7.496v149.353c0,4.14,3.356,7.496,7.496,7.496
	H273.97c4.141,0,7.496-3.356,7.496-7.496V191.841C281.466,187.7,278.111,184.345,273.97,184.345z"/>
<path style="fill:#546F7A;" d="M489.511,50.992H22.488C10.069,50.992,0,61.061,0,73.48v67.433h512V73.48
	C512,61.061,501.932,50.992,489.511,50.992z"/>
<path style="fill:#475D63;" d="M489.511,50.992h-32.043c12.4,0,22.488,10.088,22.488,22.488v67.433H512V73.48
	C512,61.08,501.912,50.992,489.511,50.992z"/>
<path style="fill:#FF434D;" d="M53.031,107.791c-6.929,0-12.566-5.637-12.566-12.566c0-6.929,5.637-12.566,12.566-12.566
	s12.566,5.637,12.566,12.566C65.596,102.154,59.96,107.791,53.031,107.791z"/>
<path style="fill:#FFD039;" d="M90.629,107.791c-6.929,0-12.566-5.637-12.566-12.566c0-6.929,5.637-12.566,12.566-12.566
	c6.929,0,12.566,5.637,12.566,12.566C103.195,102.154,97.558,107.791,90.629,107.791z"/>
<path style="fill:#00B76C;" d="M128.226,107.791c-6.929,0-12.566-5.637-12.566-12.566c0-6.929,5.637-12.566,12.566-12.566
	s12.566,5.637,12.566,12.566C140.793,102.154,135.156,107.791,128.226,107.791z"/>
<path style="fill:#008950;" d="M278.96,312.623l-73.934-65.969c-2.844-2.537-7.138-2.537-9.981,0l-43.998,39.259
	c-1.594,1.422-2.506,3.457-2.506,5.593c0,2.136,0.912,4.171,2.506,5.593l55.686,49.688c1.373,1.225,3.149,1.903,4.99,1.903h62.245
	c4.141,0,7.496-3.356,7.496-7.496v-22.977C281.466,316.08,280.554,314.045,278.96,312.623z"/>
<path style="fill:#00B76C;" d="M127.834,256.294c-2.844-2.537-7.138-2.537-9.981,0l-67.249,59.705v25.194
	c0,4.14,3.356,7.496,7.496,7.496h173.681L127.834,256.294z"/>
<path style="fill:#FFD039;" d="M156.608,202.938c-13.548,0-24.57,11.022-24.57,24.57c0,13.548,11.022,24.57,24.57,24.57
	c13.548,0,24.569-11.022,24.569-24.57C181.177,213.96,170.156,202.938,156.608,202.938z"/>
<g>
	<path style="fill:#919191;" d="M451.223,199.337H317.858c-4.141,0-7.496-3.356-7.496-7.496s3.355-7.496,7.496-7.496h133.365
		c4.141,0,7.496,3.356,7.496,7.496S455.363,199.337,451.223,199.337z"/>
	<path style="fill:#919191;" d="M451.223,249.688H317.858c-4.141,0-7.496-3.356-7.496-7.496s3.355-7.496,7.496-7.496h133.365
		c4.141,0,7.496,3.356,7.496,7.496C458.719,246.333,455.363,249.688,451.223,249.688z"/>
	<path style="fill:#919191;" d="M451.223,300.041H317.858c-4.141,0-7.496-3.356-7.496-7.496s3.355-7.496,7.496-7.496h133.365
		c4.141,0,7.496,3.356,7.496,7.496C458.719,296.685,455.363,300.041,451.223,300.041z"/>
	<path style="fill:#919191;" d="M451.223,348.69H317.858c-4.141,0-7.496-3.356-7.496-7.496c0-4.14,3.355-7.496,7.496-7.496h133.365
		c4.141,0,7.496,3.356,7.496,7.496C458.719,345.333,455.363,348.69,451.223,348.69z"/>
	<path style="fill:#919191;" d="M451.223,407.112H61.545c-4.14,0-7.496-3.356-7.496-7.496c0-4.14,3.356-7.496,7.496-7.496h389.678
		c4.141,0,7.496,3.356,7.496,7.496C458.719,403.755,455.363,407.112,451.223,407.112z"/>
</g>
<g>
</g>
<g>
</g>
<g>
</g>
<g>
</g>
<g>
</g>
<g>
</g>
<g>
</g>
<g>
</g>
<g>
</g>
<g>
</g>
<g>
</g>
<g>
</g>
<g>
</g>
<g>
</g>
<g>
</g>
</svg>
