<?xml version="1.0" encoding="iso-8859-1"?><svg version="1.1" id="Layer_1" xmlns="http://www.w3.org/2000/svg" xmlns:xlink="http://www.w3.org/1999/xlink" x="0px" y="0px"
	 viewBox="0 0 512 512" style="enable-background:new 0 0 512 512;" xml:space="preserve"><circle style="fill:#FFDA44;" cx="200.911" cy="256" r="155.544"/><path style="fill:#FF9811;" d="M200.911,100.456c85.905,0,155.544,69.64,155.544,155.544s-69.64,155.544-155.544,155.544"/><path style="fill:#FFE98F;" d="M200.91,105.504l37.265,30.751l9.185,7.579l11.854,1.137l48.115,4.612l4.612,48.112l1.137,11.855
	l7.579,9.185l30.751,37.267l-30.751,37.267l-7.579,9.185l-1.137,11.854l-4.613,48.115l-48.114,4.612l-11.854,1.137l-9.185,7.579
	l-37.263,30.745l-37.265-30.751l-9.185-7.579l-11.855-1.137l-48.115-4.612l-4.612-48.112l-1.137-11.854l-7.579-9.186L50.415,256
	l30.751-37.266l7.579-9.185l1.137-11.854l4.613-48.116l48.114-4.612l11.854-1.137l9.185-7.579L200.91,105.504 M200.911,55.089
	l-62.014,51.171l-80.051,7.674l-7.675,80.052L0,256l51.171,62.017l7.672,80.05l80.052,7.674l62.016,51.171l62.014-51.171
	l80.05-7.672l7.675-80.052L401.823,256l-51.173-62.017l-7.674-80.05l-80.052-7.674L200.911,55.089L200.911,55.089z"/><polygon style="fill:#FFDA44;" points="350.65,193.983 342.978,113.934 262.926,106.261 200.911,55.089 200.911,105.504 
	238.176,136.254 247.361,143.833 259.215,144.97 307.33,149.58 311.942,197.694 313.078,209.548 320.657,218.733 351.407,256 
	320.657,293.267 313.078,302.452 311.942,314.305 307.33,362.421 259.216,367.031 247.362,368.168 238.177,375.747 200.911,406.496 
	200.911,406.496 200.911,456.911 262.926,405.74 342.977,398.068 350.65,318.017 401.823,256 "/><circle style="fill:#FF5023;" cx="200.911" cy="256" r="92.108"/><circle style="fill:#78B9EB;" cx="343.494" cy="256" r="168.506"/><path style="fill:#5A8BB0;" d="M343.494,87.494C436.558,87.494,512,162.937,512,256s-75.442,168.506-168.506,168.506"/><g><circle style="fill:#1E2E3B;" cx="421.266" cy="320.81" r="38.886"/><circle style="fill:#1E2E3B;" cx="446.788" cy="230.478" r="25.52"/></g><g><circle style="fill:#3C5D76;" cx="233.316" cy="236.557" r="19.443"/><circle style="fill:#3C5D76;" cx="291.646" cy="178.228" r="25.924"/></g><g></g><g></g><g></g><g></g><g></g><g></g><g></g><g></g><g></g><g></g><g></g><g></g><g></g><g></g><g></g></svg>
