<?xml version="1.0" encoding="iso-8859-1"?><svg version="1.1" id="Layer_1" xmlns="http://www.w3.org/2000/svg" xmlns:xlink="http://www.w3.org/1999/xlink" x="0px" y="0px"
	 viewBox="0 0 512 512" style="enable-background:new 0 0 512 512;" xml:space="preserve"><path style="fill:#E6AF78;" d="M438.593,230.434l-32.79-9.368c-3.434-0.981-5.802-4.12-5.802-7.692V200h-48v13.373
	c0,3.572-2.368,6.711-5.802,7.692l-32.791,9.369C303.103,233.378,296,242.795,296,253.511V352h128c17.673,0,32-14.327,32-32v-66.489
	C456,242.795,448.896,233.378,438.593,230.434z"/><path style="fill:#707487;" d="M438.593,230.434l-21.282-6.08C408.958,238.49,393.608,248,376,248s-32.959-9.511-41.312-23.646
	l-21.282,6.081C303.103,233.378,296,242.795,296,253.511V352h128c17.673,0,32-14.327,32-32v-66.489
	C456,242.795,448.896,233.378,438.593,230.434z"/><path style="fill:#D29B6E;" d="M376,224c9.234,0,17.99-1.995,25.919-5.515c-1.183-1.407-1.919-3.177-1.919-5.112V200h-48v13.373
	c0,1.936-0.737,3.706-1.92,5.112C358.009,222.005,366.765,224,376,224z"/><path style="fill:#5A4146;" d="M320,112v5.614c0,6.879,1.109,13.713,3.284,20.239L336,176h24V88h-16C330.745,88,320,98.745,320,112z
	"/><path style="fill:#694B4B;" d="M429.538,128.619L416,176l-64-56c-8.837,0-16-7.163-16-16l0,0c0-13.255,10.745-24,24-24h56
	c8.837,0,16,7.163,16,16v15.036C432,116.983,431.171,122.901,429.538,128.619z"/><path style="fill:#F0C087;" d="M376,208L376,208c-26.51,0-48-21.49-48-48v-9.373c0-4.243,1.686-8.313,4.686-11.314l14.507-14.507
	c3.072-3.072,7.273-4.838,11.615-4.701c25.573,0.807,48.209,6.285,60.582,18.37c3.029,2.958,4.61,7.097,4.61,11.331V160
	C424,186.51,402.51,208,376,208z"/><path style="fill:#E6AF78;" d="M352,152.612c0-9.229,7.75-16.564,16.96-15.977c16.15,1.03,40.115,3.729,54.818,10.802
	c-0.48-3.375-1.93-6.561-4.388-8.962c-12.374-12.085-35.009-17.563-60.583-18.37h-0.001l0,0c-4.341-0.137-8.542,1.63-11.613,4.702
	l-14.506,14.506c-3.001,3-4.687,7.07-4.687,11.314V160c0,21.89,14.667,40.321,34.7,46.092C356.032,197.865,352,187.423,352,176
	V152.612z"/><g><path style="fill:#5B5D6E;" d="M328,277.348c0-6.365-2.529-12.47-7.029-16.971l-20.593-20.593
		c-2.752,3.934-4.377,8.67-4.377,13.726V352h32v-74.652H328z"/><path style="fill:#5B5D6E;" d="M451.623,239.785l-20.593,20.593c-4.501,4.501-7.029,10.605-7.029,16.97V312c0,4.418-3.582,8-8,8
		h-32v32h40c17.673,0,32-14.327,32-32v-66.489C456,248.455,454.375,243.719,451.623,239.785z"/></g><g><rect x="24" y="360" style="fill:#E6AF78;" width="464" height="24"/><path style="fill:#E6AF78;" d="M16,360v72c0,4.418,3.578,8,8,8s8-3.582,8-8v-72H16z"/><path style="fill:#E6AF78;" d="M480,360v72c0,4.418,3.578,8,8,8s8-3.582,8-8v-72H480z"/></g><g><rect x="16" y="360" style="fill:#D29B6E;" width="16" height="24"/><rect x="480" y="360" style="fill:#D29B6E;" width="16" height="24"/></g><path style="fill:#F0C087;" d="M504,368H8c-4.422,0-8-3.582-8-8s3.578-8,8-8h496c4.422,0,8,3.582,8,8S508.422,368,504,368z"/><path style="fill:#AFB9D2;" d="M376,336h40c4.418,0,8,3.582,8,8l0,0c0,4.418-3.582,8-8,8h-40V336z"/><path style="fill:#C7CFE2;" d="M288,272h96c4.418,0,8,3.582,8,8v64c0,4.418-3.582,8-8,8h-96c-4.418,0-8-3.582-8-8v-64
	C280,275.582,283.582,272,288,272z"/><path style="fill:#FFFFFF;" d="M336,320L336,320c-4.422,0-8-3.582-8-8s3.578-8,8-8l0,0c4.422,0,8,3.582,8,8S340.422,320,336,320z"/><path style="fill:#00C3FF;" d="M214.593,235.027l-26.844-7.67c-6.937-1.982-11.689-8.361-11.603-15.575L176.19,208H128v3.931
	c0,7.144-4.736,13.422-11.604,15.384l-26.989,7.711C79.103,237.971,72,247.388,72,258.104V328c0,13.255,10.745,24,24,24h112
	c13.255,0,24-10.745,24-24v-69.896C232,247.388,224.896,237.971,214.593,235.027z"/><g><path style="fill:#00AAF0;" d="M76.377,244.377c-2.752,3.934-4.377,8.67-4.377,13.726V328c0,13.255,10.745,24,24,24h8v-80
		L76.377,244.377z"/><path style="fill:#00AAF0;" d="M227.623,244.377c2.752,3.934,4.377,8.67,4.377,13.726V328c0,13.255-10.745,24-24,24h-8v-80
		L227.623,244.377z"/><path style="fill:#00AAF0;" d="M151.995,231.999c14.054,0,27.098-1.664,38.433-3.877l-2.679-0.765
		c-6.937-1.982-11.689-8.361-11.603-15.575L176.19,208H128v3.931c0,7.144-4.736,13.422-11.604,15.384l-2.825,0.807
		C124.903,230.335,137.944,231.999,151.995,231.999z"/></g><path style="fill:#694B4B;" d="M151.998,215.999c28.181,0,52.391-7.164,64.237-11.397c4.098-1.464,6.299-5.996,4.819-10.089
	c-6.652-18.395-11.914-49.548-13.057-65.829C205.805,97.457,182.925,71.999,152.001,72c-30.928,0-53.808,25.458-56,56.686
	c-1.143,16.28-6.404,47.433-13.057,65.829c-1.48,4.092,0.721,8.624,4.819,10.089C99.61,208.836,123.819,216,151.998,215.999z"/><path style="fill:#7F8499;" d="M104,440L104,440c-4.418,0-8-3.582-8-8v-40h16v40C112,436.418,108.418,440,104,440z"/><rect x="96" y="384" style="fill:#707487;" width="16" height="32"/><path style="fill:#7F8499;" d="M200,440L200,440c-4.418,0-8-3.582-8-8v-40h16v40C208,436.418,204.418,440,200,440z"/><rect x="192" y="384" style="fill:#707487;" width="16" height="32"/><path style="fill:#959CB5;" d="M184,264h-64c-13.255,0-24,10.745-24,24v104c0,4.418,3.582,8,8,8h96c4.418,0,8-3.582,8-8V288
	C208,274.745,197.255,264,184,264z"/><path style="fill:#5A4146;" d="M120.399,208.127c5.741-20.44,10.282-55.054,11.269-73.144c1.58-28.973,15.632-53.408,35.759-60.705
	C162.571,72.822,157.418,72,152.001,72c-30.928,0-53.807,25.458-56,56.686c-1.143,16.28-6.404,47.433-13.056,65.829
	c-1.48,4.092,0.721,8.624,4.819,10.089c7.047,2.519,18.534,6.049,32.563,8.516C120.011,211.504,119.928,209.805,120.399,208.127z"/><g></g><g></g><g></g><g></g><g></g><g></g><g></g><g></g><g></g><g></g><g></g><g></g><g></g><g></g><g></g></svg>
