<?xml version="1.0" encoding="iso-8859-1"?><svg version="1.1" id="Capa_1" xmlns="http://www.w3.org/2000/svg" xmlns:xlink="http://www.w3.org/1999/xlink" x="0px" y="0px"
	 viewBox="0 0 512 512" style="enable-background:new 0 0 512 512;" xml:space="preserve"><path style="fill:#91E0FF;" d="M273.647,35.201c-131.828,0-238.353,106.523-238.353,238.399c0,131.856,106.504,238.4,238.353,238.4
	c100.519,0,185.893-61.935,221.076-149.004c3.977-9.844-3.276-20.619-13.903-20.619H370.698c-4.356,0-8.498,1.895-11.346,5.192
	c-21.587,24.985-52.825,39.314-85.705,39.314c-42.634,0-81.665-24.111-100.981-62.088c-0.805-2.28-2.035-8.259,6.053-8.259
	c0,0-0.004-0.007-0.006-0.012h316.571c7.568,0,13.951-5.641,14.882-13.154c1.218-9.82,1.834-19.836,1.834-29.771
	C512,141.746,405.498,35.201,273.647,35.201z M368.685,230.662H178.652c-9.007,0-6.233-7.622-5.802-8.688
	c19.414-37.781,58.347-61.674,100.772-61.674c42.696,0,81.781,24.176,101.072,62.243
	C375.385,224.621,376.705,230.662,368.685,230.662z"/><g><path style="fill:#51CAF3;" d="M273.647,35.201V160.3c42.686,0.009,81.76,24.183,101.047,62.243
		c0.691,2.078,2.01,8.119-6.009,8.119h-95.038v85.863h221.637c7.568,0,13.951-5.641,14.882-13.154
		c1.218-9.82,1.834-19.836,1.834-29.771C512,141.746,405.498,35.201,273.647,35.201z"/><path style="fill:#51CAF3;" d="M471.697,140.747c-7.158-10.639-15.226-20.759-24.154-30.258
		c4.259-28.758-0.52-51.277-14.097-64.856c-41.43-41.438-164.775,1.075-275.701,112.044
		C47.235,268.187,4.136,391.836,45.723,433.431C59.3,447.01,81.814,451.79,110.567,447.53c9.498,8.929,19.615,16.999,30.252,24.159
		C100.562,482.7,53.907,484.045,24.518,454.65c-62.066-62.099,0.426-206.591,112.022-318.183
		C251.818,21.14,394.205-36.025,454.662,24.423C479.515,49.282,485.474,90.409,471.697,140.747z"/></g><path style="fill:#3FA0E1;" d="M454.662,24.423C417.167-13.066,348.157-5.305,273.647,33.5v34.106
	c70.693-40.277,132.731-49.048,159.8-21.974c13.577,13.579,18.355,36.098,14.096,64.856c8.928,9.5,16.996,19.619,24.154,30.258
	C485.474,90.409,479.515,49.282,454.662,24.423z"/><path style="fill:#51CAF3;" d="M494.723,362.996c3.977-9.844-3.277-20.619-13.904-20.619H370.698c-4.356,0-8.498,1.895-11.346,5.192
	c-21.587,24.985-52.825,39.314-85.705,39.314V512C374.166,512,459.54,450.066,494.723,362.996z"/><g></g><g></g><g></g><g></g><g></g><g></g><g></g><g></g><g></g><g></g><g></g><g></g><g></g><g></g><g></g></svg>
