<?xml version="1.0" encoding="iso-8859-1"?><svg version="1.1" id="Capa_1" xmlns="http://www.w3.org/2000/svg" xmlns:xlink="http://www.w3.org/1999/xlink" x="0px" y="0px"
	 viewBox="0 0 512 512" style="enable-background:new 0 0 512 512;" xml:space="preserve"><path style="fill:#FF1426;" d="M479.195,39.932C439.468,16.906,393.958,2.796,345.421,0.373l-15,9.635l-20.016,90.879
	l20.016,101.847l98.342-75.452L479.195,39.932z"/><path style="fill:#FF515E;" d="M46.5,297.616l-13.32,15.001c1.07,21.341,4.407,42.093,9.754,62.031l97.453-26.112L330.42,202.735
	V10.008l-15-9.635c-43.258,2.158-84.113,13.595-120.611,32.356L187.5,49.5l-18.647-1.727c-35.259,22.88-65.395,53.016-88.275,88.275
	L84.584,155l-19.049,7.004c-18.719,36.416-30.147,77.17-32.342,120.319L46.5,297.616z"/><g><path style="fill:#FFC9CC;" d="M157.497,282.616H33.182c-0.248,4.97-0.377,9.97-0.377,15s0.127,10.031,0.376,15h124.316
		L157.497,282.616L157.497,282.616z"/><path style="fill:#FFC9CC;" d="M177.788,192.172L80.59,136.055c-5.433,8.373-10.466,17.028-15.053,25.95l97.25,56.147
		L177.788,192.172z"/><path style="fill:#FFC9CC;" d="M251.648,131.178l-56.837-98.446c-8.922,4.586-17.577,9.619-25.95,15.053l56.807,98.393
		L251.648,131.178z"/></g><path style="fill:#FF8891;" d="M345.421,0.375c-4.969-0.248-9.97-0.375-15-0.375l-10.008,56.429l10.008,56.429h15V0.375z"/><path style="fill:#FFC9CC;" d="M315.421,0.377v112.481h15V0C325.391,0,320.39,0.129,315.421,0.377z"/><path style="fill:#FF515E;" d="M428.763,127.282c-28.949-16.779-62.542-26.396-98.342-26.396L295,248l102.268-66.166
	L428.763,127.282z"/><path style="fill:#FF8891;" d="M133.692,297.616c0,17.605,2.338,34.671,6.696,50.919l60.89-16.316l129.143-99.093v-132.24
	C221.944,100.887,133.692,189.139,133.692,297.616z"/><path style="fill:#E0E3E6;" d="M330.421,163.941L310.405,267l20.016,164.291c0,44.574,36.135,80.709,80.709,80.709h52.965V328.575
	l-10.008-15.001l10.008-15v-0.96C464.096,223.789,404.248,163.941,330.421,163.941z"/><path style="fill:#F5F5F6;" d="M196.746,297.616c0,11.968,1.582,23.566,4.532,34.604v131.208c30.751,0,56.721-20.424,65.116-48.443
	c19.014,10.395,40.829,16.307,64.026,16.307v-267.35C256.594,163.941,196.746,223.789,196.746,297.616z"/><rect x="383.38" y="298.57" style="fill:#C7C5CA;" width="80.72" height="30"/><g></g><g></g><g></g><g></g><g></g><g></g><g></g><g></g><g></g><g></g><g></g><g></g><g></g><g></g><g></g></svg>
