<?xml version="1.0" encoding="iso-8859-1"?><svg version="1.1" id="Layer_1" xmlns="http://www.w3.org/2000/svg" xmlns:xlink="http://www.w3.org/1999/xlink" x="0px" y="0px"
	 viewBox="0 0 512 512" style="enable-background:new 0 0 512 512;" xml:space="preserve"><path style="fill:#FFA46E;" d="M35.251,340.434c-0.495-0.021-0.992-0.038-1.493-0.038C15.114,340.396,0,355.509,0,374.154
	s15.114,33.758,33.758,33.758c0.501,0,0.997-0.016,1.493-0.038l144.861-4.369v-58.703L35.251,340.434z"/><path style="fill:#FF8048;" d="M231.807,346.362l-51.694-1.559c-3.661,9.076-5.695,18.978-5.695,29.351s2.035,20.274,5.695,29.352
	l51.694-1.56V346.362z"/><path style="fill:#08A37B;" d="M253.187,419.165h58.264v-90.022h-58.264c-24.858,0-45.011,20.153-45.011,45.011
	C208.176,399.012,228.328,419.165,253.187,419.165z"/><path style="fill:#AB15A4;" d="M393.846,256v236.308c65.255,0,118.154-52.899,118.154-118.154S459.101,256,393.846,256z"/><path style="fill:#D23ACB;" d="M393.846,256c-5.706,0-11.336,0.253-16.879,0.73v0.234l-78.769,117.196l78.769,117.417
	c5.543,0.477,11.173,0.73,16.879,0.73c46.61,0,84.396-52.899,84.396-118.154S440.456,256,393.846,256z"/><path style="fill:#12F8BC;" d="M399.473,432.751c0-29.295-22.505-29.295-22.505-58.591c0-29.299,22.505-29.299,22.505-58.599
	c0-29.3-22.505-29.299-22.505-58.599v-0.234c-75.954,6.532-135.033,56.608-135.033,117.424c0,60.817,59.079,110.892,135.033,117.424
	v-0.234C376.967,462.047,399.473,462.047,399.473,432.751z"/><g><circle style="fill:#08A37B;" cx="295.385" cy="357.275" r="8.44"/><circle style="fill:#08A37B;" cx="329.143" cy="391.033" r="8.44"/></g><path style="fill:#FF8048;" d="M478.242,104.088c-0.501,0-0.997,0.016-1.493,0.038l-25.002,0.754v65.933l25.002,0.754
	c0.495,0.021,0.992,0.038,1.493,0.038c18.645,0,33.758-15.114,33.758-33.758S496.886,104.088,478.242,104.088z"/><path style="fill:#FFA46E;" d="M478.242,137.846c0-16.15-11.344-29.643-26.496-32.966l-171.553,5.174v55.585l171.553,5.174
	C466.898,167.489,478.242,153.996,478.242,137.846z"/><path style="fill:#840C7F;" d="M258.813,92.835h-58.264v90.022h58.264c24.858,0,45.011-20.153,45.011-45.011
	S283.672,92.835,258.813,92.835z"/><path style="fill:#AB15A4;" d="M118.154,19.692V256c83.898,0,151.912-52.899,151.912-118.154S202.052,19.692,118.154,19.692z"/><path style="fill:#D23ACB;" d="M135.027,20.897L45.011,137.839l90.016,116.957c57.261-8.19,101.28-57.425,101.28-116.95
	S192.288,29.086,135.027,20.897z"/><path style="fill:#12F8BC;" d="M135.033,137.839c0-29.295-22.505-29.295-22.505-58.591c0-29.213,22.374-29.302,22.5-58.352
	c-5.512-0.788-11.144-1.204-16.873-1.204C52.899,19.692,0,72.591,0,137.846S52.899,256,118.154,256
	c5.73,0,11.362-0.416,16.873-1.205c-0.126-29.051-22.5-29.141-22.5-58.358C112.527,167.138,135.033,167.138,135.033,137.839z"/><g></g><g></g><g></g><g></g><g></g><g></g><g></g><g></g><g></g><g></g><g></g><g></g><g></g><g></g><g></g></svg>
