<?xml version="1.0" encoding="iso-8859-1"?><svg version="1.1" id="Capa_1" xmlns="http://www.w3.org/2000/svg" xmlns:xlink="http://www.w3.org/1999/xlink" x="0px" y="0px"
	 viewBox="0 0 512 512" style="enable-background:new 0 0 512 512;" xml:space="preserve"><path style="fill:#896748;" d="M0.003,30.007h59.999V482c0,16.569-13.431,30-30,30l0,0c-16.569,0-30-13.431-30-30
	C0.004,482,0.004,30.007,0.003,30.007z"/><path style="fill:#73553A;" d="M30.003,512c16.569,0,30-13.433,30-30V30.007h-30C30.003,30.007,30.003,512,30.003,512z"/><path style="fill:#00EED0;" d="M504.796,2.108c-4.2-2.701-9.901-2.701-14.399-0.601l-20.101,9.901
	c-14.099,7.2-30,8.699-44.999,4.199c-63.299-18.3-126.698-4.499-168.097,36.9L256,53.706l-1.199-1.199
	c-41.399-41.399-104.799-55.2-168.097-36.9c-15,4.501-30.901,3.001-44.999-4.199L21.602,1.507c-4.499-2.1-10.199-2.1-14.399,0.601
	c-4.499,2.999-7.2,7.798-7.2,12.9v89.999c0,74.398,60.6,134.998,134.998,134.998h22.8c38.698,0,75.098-17.701,98.198-47.099
	c23.101,29.399,59.499,47.099,98.198,47.099h22.8c74.398,0,134.998-60.6,134.998-134.998V15.008
	C511.996,9.906,509.295,5.107,504.796,2.108z M226.3,123.605l-10.501,21.299c-10.8,21.601-33.698,35.1-57.998,35.1h-22.8
	c-41.399,0-74.999-33.599-74.999-74.999v-12c0-8.101,6.301-14.7,14.399-15c9.901-0.3,19.801-2.1,29.101-4.799
	c12.599-3.6,25.499-5.4,37.799-5.4c19.499,0,48.398,4.799,71.198,27.299l11.1,11.1C228.1,110.706,229.299,117.905,226.3,123.605z
	 M451.996,105.006c0,41.399-33.599,74.999-74.999,74.999h-22.8c-24.3,0-47.198-13.5-57.998-35.1l-10.501-21.299
	c-2.999-5.7-1.8-12.9,2.701-17.401l11.1-11.1c22.8-22.5,51.699-27.299,71.198-27.299c12.301,0,25.201,1.8,37.799,5.4
	c9.3,2.699,19.2,4.499,29.101,4.799c8.099,0.3,14.399,6.899,14.399,15V105.006z"/><path style="fill:#00CCB2;" d="M504.796,2.108c-4.2-2.701-9.901-2.701-14.399-0.601l-20.101,9.901
	c-14.099,7.2-30,8.699-44.999,4.199c-63.299-18.3-126.698-4.499-168.097,36.9L256,53.706v139.198
	c23.101,29.399,59.499,47.099,98.198,47.099h22.8c74.398,0,134.998-60.6,134.998-134.998V15.007
	C511.996,9.906,509.295,5.107,504.796,2.108z M451.996,105.006c0,41.399-33.599,74.999-74.999,74.999h-22.8
	c-24.3,0-47.198-13.5-57.998-35.1l-10.501-21.299c-2.999-5.7-1.8-12.9,2.701-17.401l11.1-11.1
	c22.8-22.5,51.699-27.299,71.198-27.299c12.301,0,25.201,1.8,37.799,5.4c9.3,2.699,19.2,4.499,29.101,4.799
	c8.099,0.3,14.399,6.899,14.399,15V105.006z"/><g></g><g></g><g></g><g></g><g></g><g></g><g></g><g></g><g></g><g></g><g></g><g></g><g></g><g></g><g></g></svg>
