<?xml version="1.0" encoding="iso-8859-1"?><svg version="1.1" id="Capa_1" xmlns="http://www.w3.org/2000/svg" xmlns:xlink="http://www.w3.org/1999/xlink" x="0px" y="0px"
	 viewBox="0 0 512 512" style="enable-background:new 0 0 512 512;" xml:space="preserve"><circle style="fill:#590F38;" cx="256" cy="256" r="256"/><path style="fill:#3F0929;" d="M512,256c0-2.615-0.052-5.218-0.129-7.814l-106.86-106.86l-5.875,9.481l-64.31-64.31L111.5,239.42
	l71.5,71.27v10.421l-60.5,0.555l-18.167-12.333l-14.578,41.734l161.393,160.871c1.615,0.03,3.229,0.062,4.851,0.062
	C397.385,512,512,397.385,512,256z"/><path style="fill:#35CCFF;" d="M111.5,340c-6.065,0-11-4.935-11-11s4.935-11,11-11s11,4.935,11,11S117.565,340,111.5,340z
	 M179.5,406.5c-6.065,0-11-4.935-11-11s4.935-11,11-11s11,4.935,11,11S185.565,406.5,179.5,406.5z M332.5,406.5
	c-6.065,0-11-4.935-11-11s4.935-11,11-11s11,4.935,11,11S338.565,406.5,332.5,406.5z M263.188,302.5H322v63.834
	c-11.941,4.312-20.5,15.757-20.5,29.166c0,17.093,13.906,31,31,31s31-13.907,31-31c0-13.78-9.041-25.483-21.5-29.505V339.5h29.334
	c4.312,11.94,15.757,20.5,29.166,20.5c17.094,0,31-13.907,31-31s-13.906-31-31-31c-13.78,0-25.484,9.041-29.505,21.5H342v-37h-79
	v-45h-20v45h-73v37h-28.995C136.984,307.041,125.28,298,111.5,298c-17.094,0-31,13.907-31,31s13.906,31,31,31
	c13.409,0,24.854-8.56,29.166-20.5H170v26.495c-12.459,4.021-21.5,15.725-21.5,29.505c0,17.093,13.906,31,31,31s31-13.907,31-31
	c0-13.409-8.559-24.854-20.5-29.166V302.5h53.188v91.834c-11.941,4.312-20.5,15.757-20.5,29.166c0,17.093,13.906,31,31,31
	s31-13.907,31-31c0-13.78-9.041-25.483-21.5-29.505V302.5z M255,434.5c-6.065,0-11-4.935-11-11s4.935-11,11-11s11,4.935,11,11
	S261.065,434.5,255,434.5z M400.5,340c-6.065,0-11-4.935-11-11s4.935-11,11-11s11,4.935,11,11S406.565,340,400.5,340z"/><path style="fill:#00BAFF;" d="M400.5,298c-13.78,0-25.484,9.041-29.505,21.5H342v-37h-79v-45h-9.5v175.115
	c0.492-0.068,0.99-0.115,1.5-0.115c6.065,0,11,4.935,11,11s-4.935,11-11,11c-0.51,0-1.008-0.047-1.5-0.115v20.11
	c0.063,0,0.125,0.005,0.188,0.005c17.094,0,31-13.907,31-31c0-13.78-9.041-25.483-21.5-29.505V302.5H322v63.834
	c-11.941,4.312-20.5,15.757-20.5,29.166c0,17.093,13.906,31,31,31s31-13.907,31-31c0-13.78-9.041-25.483-21.5-29.505V339.5h29.334
	c4.312,11.94,15.757,20.5,29.166,20.5c17.094,0,31-13.907,31-31S417.594,298,400.5,298z M343.5,395.5c0,6.065-4.935,11-11,11
	s-11-4.935-11-11s4.935-11,11-11S343.5,389.435,343.5,395.5z M400.5,340c-6.065,0-11-4.935-11-11s4.935-11,11-11s11,4.935,11,11
	S406.565,340,400.5,340z"/><path style="fill:#FFFFFF;" d="M345.26,261.606c41.413,0,74.984-33.572,74.984-74.984c0-39.214-30.106-71.377-68.463-74.684
	c-13.789-31.317-45.091-53.185-81.506-53.185c-37.645,0-69.832,23.367-82.848,56.388c-7.158-2.27-14.778-3.503-22.688-3.503
	c-41.413,0-74.984,33.572-74.984,74.984s33.572,74.984,74.984,74.984H345.26z"/><path style="fill:#E0E0E0;" d="M351.782,111.937c-13.789-31.317-45.091-53.185-81.506-53.185c-5.736,0-11.342,0.549-16.776,1.586
	v201.267h91.76c41.413,0,74.984-33.571,74.984-74.984C420.245,147.408,390.138,115.245,351.782,111.937z"/><g></g><g></g><g></g><g></g><g></g><g></g><g></g><g></g><g></g><g></g><g></g><g></g><g></g><g></g><g></g></svg>
