<?xml version="1.0" encoding="iso-8859-1"?>
<!-- Generator: Adobe Illustrator 19.0.0, SVG Export Plug-In . SVG Version: 6.00 Build 0)  -->
<svg version="1.1" id="Layer_1" xmlns="http://www.w3.org/2000/svg" xmlns:xlink="http://www.w3.org/1999/xlink" x="0px" y="0px"
	 viewBox="0 0 512 512" style="enable-background:new 0 0 512 512;" xml:space="preserve">
<g>
	<polygon style="fill:#BDC3C7;" points="406.069,105.931 300.138,105.931 300.138,0 	"/>
	<polygon style="fill:#659C35;" points="229.517,406.069 512,406.069 512,194.207 229.517,194.207 	"/>
	<polygon style="fill:#ECF0F1;" points="229.517,406.069 229.517,194.207 406.069,194.207 406.069,105.931 300.138,105.931 
		300.138,0 0,0 0,512 406.069,512 406.069,406.069 	"/>
	<g>
		<path style="fill:#FFFFFF;" d="M423.724,379.586c-24.338,0-44.138-19.8-44.138-44.138c0-4.873,3.946-8.828,8.828-8.828
			c4.882,0,8.828,3.955,8.828,8.828c0,14.601,11.882,26.483,26.483,26.483c14.601,0,26.483-11.882,26.483-26.483
			s-11.882-26.483-26.483-26.483c-24.338,0-44.138-19.8-44.138-44.138c0-24.338,19.8-44.138,44.138-44.138
			c24.338,0,44.138,19.8,44.138,44.138c0,4.873-3.946,8.828-8.828,8.828c-4.882,0-8.828-3.955-8.828-8.828
			c0-14.601-11.882-26.483-26.483-26.483c-14.601,0-26.483,11.882-26.483,26.483c0,14.601,11.882,26.483,26.483,26.483
			c24.338,0,44.138,19.8,44.138,44.138S448.062,379.586,423.724,379.586"/>
		<path style="fill:#FFFFFF;" d="M308.966,370.759c-19.474,0-35.31-15.837-35.31-35.31c0-4.873,3.946-8.828,8.828-8.828
			s8.828,3.955,8.828,8.828c0,9.737,7.918,17.655,17.655,17.655s17.655-7.918,17.655-17.655V229.517
			c0-4.873,3.946-8.828,8.828-8.828c4.882,0,8.828,3.955,8.828,8.828v105.931C344.276,354.922,328.439,370.759,308.966,370.759"/>
	</g>
</g>
<g>
</g>
<g>
</g>
<g>
</g>
<g>
</g>
<g>
</g>
<g>
</g>
<g>
</g>
<g>
</g>
<g>
</g>
<g>
</g>
<g>
</g>
<g>
</g>
<g>
</g>
<g>
</g>
<g>
</g>
</svg>
