<?xml version="1.0" encoding="iso-8859-1"?><svg version="1.1" id="Capa_1" xmlns="http://www.w3.org/2000/svg" xmlns:xlink="http://www.w3.org/1999/xlink" x="0px" y="0px"
	 viewBox="0 0 512 512" style="enable-background:new 0 0 512 512;" xml:space="preserve"><path style="fill:#19DDC0;" d="M267.101,5.103c-2.699-3.3-6.899-5.099-11.1-5.099c-4.201,0-8.401,1.8-11.1,5.099
	c-1.5,1.5-33.899,40.4-33.899,86.899s32.4,83.398,33.899,84.898c2.699,3.301,6.899,5.101,11.1,5.101c4.201,0,8.401-1.8,11.1-5.101
	c1.5-1.5,33.899-38.398,33.899-84.898S268.6,6.603,267.101,5.103z"/><path style="fill:#17CDB3;" d="M301,92.003c0,46.499-32.4,83.398-33.899,84.898c-2.699,3.301-6.899,5.101-11.1,5.101V0.004
	c4.2,0,8.401,1.8,11.1,5.099C268.6,6.603,301,45.504,301,92.003z"/><path style="fill:#FC003A;" d="M406.998,511.995c-3.574,0-7.163-1.274-10.005-3.823c-1.436-1.289-34.994-31.786-34.994-71.176
	s33.559-69.887,34.994-71.176c5.684-5.098,14.326-5.098,20.01,0c1.436,1.289,34.994,31.786,34.994,71.176
	s-33.559,69.887-34.994,71.176C414.161,510.72,410.572,511.995,406.998,511.995z"/><path style="fill:#FC3C65;" d="M105.003,511.995c-3.574,0-7.163-1.274-10.005-3.823c-1.436-1.289-34.994-31.786-34.994-71.176
	s33.558-69.887,34.994-71.176c5.684-5.098,14.326-5.098,20.01,0c1.436,1.289,34.994,31.786,34.994,71.176
	s-33.559,69.887-34.994,71.176C112.166,510.72,108.577,511.995,105.003,511.995z"/><g><path style="fill:#19DDC0;" d="M160.651,207.474c-2.446,0-4.893-0.601-7.09-1.787c-1.831-0.981-44.896-24.492-60.834-68.305
		c-15.952-43.798,1.934-89.5,2.695-91.419c1.582-3.97,4.79-7.075,8.804-8.525c3.984-1.479,8.481-1.157,12.217,0.879
		c1.831,0.981,44.896,24.492,60.834,68.29l0,0c15.952,43.812-1.934,89.515-2.695,91.434c-1.582,3.97-4.79,7.075-8.804,8.525
		C164.123,207.181,162.38,207.474,160.651,207.474z"/><path style="fill:#19DDC0;" d="M94.559,280.319c-1.494,0-3.003-0.22-4.512-0.688c-17.871-5.64-43.021-16.919-61.303-38.715
		c-29.954-35.698-28.782-84.77-28.724-86.835c0.146-4.263,2.08-8.276,5.361-11.016c3.267-2.754,7.515-4.058,11.777-3.354
		c2.051,0.293,50.58,7.646,80.536,43.373c12.51,14.897,21.152,33.793,25.664,56.132c1.641,8.13-3.618,16.04-11.733,17.681
		c-1.538,0.308-3.018,0.352-4.512,0.22c2.373,3.633,3.164,8.247,1.758,12.715C106.848,276.233,100.93,280.319,94.559,280.319z"/></g><g><path style="fill:#17CDB3;" d="M417.442,280.319c-6.372,0-12.29-4.087-14.312-10.488c-1.406-4.468-0.615-9.082,1.758-12.715
		c-1.436,0.132-2.974,0.088-4.512-0.22c-8.115-1.641-13.374-9.551-11.733-17.681c4.512-22.339,13.154-41.234,25.664-56.132
		c29.955-35.727,78.485-43.08,80.536-43.373c4.175-0.703,8.511,0.601,11.777,3.354c3.281,2.739,5.215,6.753,5.361,11.016
		c0.059,2.065,1.23,51.137-28.74,86.834c-18.267,21.797-43.417,33.075-61.288,38.715
		C420.445,280.099,418.936,280.319,417.442,280.319z"/><path style="fill:#17CDB3;" d="M351.349,207.474c-1.729,0-3.472-0.293-5.127-0.908c-4.014-1.45-7.222-4.556-8.804-8.525
		c-0.762-1.919-18.647-47.621-2.695-91.434c15.938-43.798,59.003-67.309,60.834-68.29c3.75-2.036,8.232-2.358,12.217-0.879
		c4.014,1.45,7.222,4.556,8.804,8.525c0.762,1.919,18.647,47.621,2.695,91.434c-15.938,43.798-59.003,67.309-60.834,68.29
		C356.242,206.874,353.796,207.474,351.349,207.474z"/></g><path style="fill:#E6974A;" d="M451.997,346.998c0,8.399-6.599,15-15,15h-59.999c-8.401,0-15-6.601-15-15
	C361.999,289.099,313.9,242,256.001,242s-105.998,47.099-105.998,104.998c0,8.399-6.599,15-15,15H75.004c-8.401,0-15-6.601-15-15
	c0-107.399,88.597-194.997,195.997-194.997S451.997,239.599,451.997,346.998z"/><g><path style="fill:#CE7937;" d="M451.997,346.998c0,8.399-6.599,15-15,15h-59.999c-8.401,0-15-6.601-15-15
		C361.999,289.099,313.9,242,256.001,242v-89.998C363.399,152.002,451.997,239.599,451.997,346.998z"/><path style="fill:#CE7937;" d="M105.003,391.997c-24.814,0-44.999-20.186-44.999-44.999c0-24.814,20.186-44.999,44.999-44.999
		s44.999,20.186,44.999,44.999C150.003,371.812,129.817,391.997,105.003,391.997z"/></g><path style="fill:#BF6429;" d="M406.998,391.997c-24.814,0-44.999-20.186-44.999-44.999c0-24.814,20.186-44.999,44.999-44.999
	s44.999,20.186,44.999,44.999C451.997,371.812,431.812,391.997,406.998,391.997z"/><g></g><g></g><g></g><g></g><g></g><g></g><g></g><g></g><g></g><g></g><g></g><g></g><g></g><g></g><g></g></svg>
