<?xml version="1.0" encoding="iso-8859-1"?><svg version="1.1" id="Capa_1" xmlns="http://www.w3.org/2000/svg" xmlns:xlink="http://www.w3.org/1999/xlink" x="0px" y="0px"
	 viewBox="0 0 512 512" style="enable-background:new 0 0 512 512;" xml:space="preserve"><path style="fill:#DFEAEF;" d="M489.035,510.359H44.771c-12.683,0-22.965-10.282-22.965-22.965V43.131
	c0-12.683,10.282-22.965,22.965-22.965h444.264c12.683,0,22.965,10.282,22.965,22.965v444.264
	C512,500.078,501.718,510.359,489.035,510.359z"/><path style="fill:#BFCFD6;" d="M489.035,20.166h-54.921c12.683,0,22.965,10.282,22.965,22.965V483.74
	c0,5.404-4.381,9.785-9.785,9.785H44.771c-12.683,0-22.965-10.282-22.965-22.965v16.835c0,12.683,10.282,22.965,22.965,22.965
	h444.264c12.683,0,22.965-10.282,22.965-22.965V470.56V43.131C512,30.448,501.718,20.166,489.035,20.166z"/><g><circle style="fill:#A7AEEE;" cx="97.91" cy="389.51" r="21.449"/><circle style="fill:#A7AEEE;" cx="97.91" cy="459.12" r="21.449"/><circle style="fill:#A7AEEE;" cx="168.77" cy="389.51" r="21.449"/><circle style="fill:#A7AEEE;" cx="168.77" cy="459.12" r="21.449"/><circle style="fill:#A7AEEE;" cx="252.14" cy="108.09" r="21.06"/><circle style="fill:#A7AEEE;" cx="348.41" cy="108.09" r="21.06"/></g><circle style="fill:#FC9F3D;" cx="444.69" cy="108.09" r="21.06"/><path style="fill:#435256;" d="M422.314,42.176H290.365c-2.51,0-4.545-2.035-4.545-4.545V6.185c0-2.51,2.035-4.545,4.545-4.545
	h131.949c2.51,0,4.545,2.035,4.545,4.545v31.447C426.859,40.142,424.824,42.176,422.314,42.176z"/><path style="fill:#2D3B3D;" d="M422.314,1.641h-50.233v23.541c0,2.51-2.035,4.544-4.545,4.544H285.82v7.906
	c0,2.51,2.034,4.545,4.544,4.545h131.949c2.51,0,4.545-2.035,4.545-4.545V6.185C426.859,3.675,424.824,1.641,422.314,1.641z"/><g><path style="fill:#435256;" d="M240.704,42.176h-31.447c-2.51,0-4.545-2.035-4.545-4.545V6.185c0-2.51,2.035-4.545,4.545-4.545
		h31.447c2.51,0,4.545,2.035,4.545,4.545v31.447C245.249,40.142,243.214,42.176,240.704,42.176z"/><path style="fill:#435256;" d="M38.281,470.553H4.86c-2.684,0-4.86-2.176-4.86-4.86v-74.812c0-2.684,2.176-4.86,4.86-4.86h33.421
		c2.684,0,4.86,2.176,4.86,4.86v74.812C43.141,468.377,40.965,470.553,38.281,470.553z"/></g><path style="fill:#2D3B3D;" d="M38.281,386.022H16.71c2.684,0,4.86,2.176,4.86,4.86v74.812c0,2.684-2.176,4.86-4.86,4.86h21.57
	c2.684,0,4.86-2.176,4.86-4.86v-74.812C43.141,388.198,40.965,386.022,38.281,386.022z"/><circle style="fill:#9EBECC;" cx="348.41" cy="252.1" r="86.43"/><path style="fill:#86AEBC;" d="M348.414,165.669L348.414,165.669v172.857l0,0c47.733,0,86.429-38.695,86.429-86.429
	C434.843,204.364,396.147,165.669,348.414,165.669z"/><path style="fill:#FFFFFF;" d="M409.435,240.109c-9.517-8.286-36.573-3.128-51.253,0.494c2.983-18.984,12.556-34.908,18.467-43.251
	c2.181-3.078,0.476-7.383-3.22-8.132c-11.256-2.282-30.979-5.065-37.004,1.856c-8.285,9.517-3.128,36.573,0.494,51.253
	c-18.984-2.983-34.908-12.556-43.251-18.467c-3.078-2.181-7.383-0.476-8.132,3.22c-2.282,11.256-5.065,30.979,1.856,37.004
	c9.517,8.285,36.573,3.128,51.253-0.494c-2.983,18.984-12.556,34.908-18.467,43.251c-2.181,3.078-0.476,7.383,3.22,8.132
	c11.256,2.282,30.979,5.065,37.004-1.856c8.285-9.517,3.128-36.573-0.494-51.253c18.984,2.983,34.908,12.556,43.251,18.467
	c3.078,2.181,7.383,0.476,8.132-3.22C413.574,265.857,416.356,246.134,409.435,240.109z"/><circle style="fill:#A7AEEE;" cx="444.69" cy="108.09" r="21.06"/><path style="fill:#2D3B3D;" d="M240.704,1.641h-14.379c2.51,0,4.544,2.035,4.544,4.544v18.379c0,2.851-2.311,5.162-5.162,5.162
	h-20.995v7.906c0,2.51,2.035,4.545,4.545,4.545h31.446c2.51,0,4.545-2.035,4.545-4.545v-7.906V6.185
	C245.249,3.675,243.214,1.641,240.704,1.641z"/><path style="fill:#53BBF3;" d="M217.144,376.324c0,4.359,3.533,7.891,7.891,7.891h246.757c4.359,0,7.891-3.533,7.891-7.891
	c0-4.359-3.533-7.891-7.891-7.891H225.035C220.677,368.433,217.144,371.966,217.144,376.324z"/><path style="fill:#359EE0;" d="M471.792,384.216c4.359,0,7.891-3.533,7.891-7.891c0-4.359-3.532-7.891-7.891-7.891h-14.713v15.782
	L471.792,384.216L471.792,384.216z"/><path style="fill:#53BBF3;" d="M225.035,428.901h246.757c4.359,0,7.891-3.533,7.891-7.891c0-4.359-3.533-7.891-7.891-7.891H225.035
	c-4.359,0-7.891,3.533-7.891,7.891C217.144,425.369,220.677,428.901,225.035,428.901z"/><path style="fill:#359EE0;" d="M471.792,428.901c4.359,0,7.891-3.533,7.891-7.891s-3.532-7.891-7.891-7.891h-14.713v15.782
	L471.792,428.901L471.792,428.901z"/><circle style="fill:#DFEAEF;" cx="345.65" cy="252.21" r="21.06"/><g><path style="fill:#4A5A5E;" d="M64.835,175.88h13.682v-15.782H64.835c-4.359,0-7.891,3.532-7.891,7.891
		C56.944,172.347,60.477,175.88,64.835,175.88z"/><path style="fill:#4A5A5E;" d="M64.835,209.165h13.682v-15.782H64.835c-4.359,0-7.891,3.532-7.891,7.891
		C56.944,205.633,60.477,209.165,64.835,209.165z"/><path style="fill:#4A5A5E;" d="M64.835,142.594h13.682v-15.782H64.835c-4.359,0-7.891,3.533-7.891,7.891
		S60.477,142.594,64.835,142.594z"/><path style="fill:#4A5A5E;" d="M64.835,275.736h13.682v-15.782H64.835c-4.359,0-7.891,3.533-7.891,7.891
		S60.477,275.736,64.835,275.736z"/><path style="fill:#4A5A5E;" d="M64.835,242.451h13.682v-15.782H64.835c-4.359,0-7.891,3.533-7.891,7.891
		S60.477,242.451,64.835,242.451z"/><path style="fill:#4A5A5E;" d="M64.835,109.308h13.682V93.526H64.835c-4.359,0-7.891,3.533-7.891,7.891
		C56.944,105.776,60.477,109.308,64.835,109.308z"/><path style="fill:#4A5A5E;" d="M142.906,76.023h13.682c4.359,0,7.891-3.533,7.891-7.891s-3.533-7.891-7.891-7.891h-13.682V76.023z"
		/><path style="fill:#4A5A5E;" d="M64.835,76.023h13.682V60.24H64.835c-4.359,0-7.891,3.533-7.891,7.891S60.477,76.023,64.835,76.023z
		"/><path style="fill:#4A5A5E;" d="M156.588,193.383h-13.682v15.782h13.682c4.359,0,7.891-3.533,7.891-7.891
		C164.479,196.916,160.947,193.383,156.588,193.383z"/><path style="fill:#4A5A5E;" d="M156.588,126.812h-13.682v15.782h13.682c4.359,0,7.891-3.533,7.891-7.891
		C164.479,130.344,160.947,126.812,156.588,126.812z"/><path style="fill:#4A5A5E;" d="M156.588,93.526h-13.682v15.782h13.682c4.359,0,7.891-3.533,7.891-7.891
		C164.479,97.058,160.947,93.526,156.588,93.526z"/><path style="fill:#4A5A5E;" d="M78.518,293.239H64.835c-4.359,0-7.891,3.533-7.891,7.891c0,4.359,3.533,7.891,7.891,7.891h13.682
		L78.518,293.239L78.518,293.239z"/><path style="fill:#4A5A5E;" d="M156.588,160.097h-13.682v15.782h13.682c4.359,0,7.891-3.533,7.891-7.891
		C164.479,163.63,160.947,160.097,156.588,160.097z"/><path style="fill:#4A5A5E;" d="M156.588,293.239h-13.682v15.782h13.682c4.359,0,7.891-3.532,7.891-7.891
		C164.479,296.772,160.947,293.239,156.588,293.239z"/><path style="fill:#4A5A5E;" d="M156.588,259.953h-13.682v15.782h13.682c4.359,0,7.891-3.533,7.891-7.891
		S160.947,259.953,156.588,259.953z"/><path style="fill:#4A5A5E;" d="M156.588,226.669h-13.682v15.782h13.682c4.359,0,7.891-3.533,7.891-7.891
		S160.947,226.669,156.588,226.669z"/></g><path style="fill:#53BBF3;" d="M76.456,318.303V61.691c0-4.298,3.484-7.782,7.782-7.782h52.948c4.298,0,7.782,3.484,7.782,7.782
	v256.612c0,4.298-3.484,7.782-7.782,7.782H84.238C79.94,326.085,76.456,322.601,76.456,318.303z"/><path style="fill:#359EE0;" d="M137.186,53.909h-26.474v272.176h26.474c4.298,0,7.782-3.484,7.782-7.782V61.691
	C144.968,57.393,141.484,53.909,137.186,53.909z"/><path style="fill:#53BBF3;" d="M225.035,473.587h246.757c4.359,0,7.891-3.533,7.891-7.891c0-4.359-3.533-7.891-7.891-7.891H225.035
	c-4.359,0-7.891,3.533-7.891,7.891C217.144,470.055,220.677,473.587,225.035,473.587z"/><path style="fill:#359EE0;" d="M471.792,473.587c4.359,0,7.891-3.533,7.891-7.891c0-4.359-3.532-7.891-7.891-7.891h-14.713v15.782
	L471.792,473.587L471.792,473.587z"/><g></g><g></g><g></g><g></g><g></g><g></g><g></g><g></g><g></g><g></g><g></g><g></g><g></g><g></g><g></g></svg>
