<?xml version="1.0" encoding="iso-8859-1"?>
<!-- Generator: Adobe Illustrator 19.0.0, SVG Export Plug-In . SVG Version: 6.00 Build 0)  -->
<svg version="1.1" id="Capa_1" xmlns="http://www.w3.org/2000/svg" xmlns:xlink="http://www.w3.org/1999/xlink" x="0px" y="0px"
	 viewBox="0 0 512 512" style="enable-background:new 0 0 512 512;" xml:space="preserve">
<path style="fill:#19DEC1;" d="M512,45v75l-30,31H30L0,120V45C0,20.099,20.099,0,45,0h422C491.901,0,512,20.099,512,45z"/>
<path style="fill:#17CEB4;" d="M512,45v75l-30,31H256V0h211C491.901,0,512,20.099,512,45z"/>
<path style="fill:#E5E5E5;" d="M512,120v347c0,24.899-20.099,45-45,45H45c-24.901,0-45-20.101-45-45V120H512z"/>
<path style="fill:#D9D9D9;" d="M512,120v347c0,24.899-20.099,45-45,45H256V120H512z"/>
<g>
	<circle style="fill:#57555C;" cx="75" cy="75" r="15"/>
	<circle style="fill:#57555C;" cx="135" cy="75" r="15"/>
	<circle style="fill:#57555C;" cx="196" cy="75" r="15"/>
</g>
<path style="fill:#19DEC1;" d="M226,332H75c-8.291,0-15-6.709-15-15V197c0-8.291,6.709-15,15-15h151c8.291,0,15,6.709,15,15v120
	C241,325.291,234.291,332,226,332z"/>
<g>
	<path style="fill:#AEADB3;" d="M437,332H286c-8.291,0-15-6.709-15-15s6.709-15,15-15h151c8.291,0,15,6.709,15,15
		S445.291,332,437,332z"/>
	<path style="fill:#AEADB3;" d="M437,272H286c-8.291,0-15-6.709-15-15s6.709-15,15-15h151c8.291,0,15,6.709,15,15
		C452,265.291,445.291,272,437,272z"/>
</g>
<path style="fill:#C8C6CD;" d="M452,377c0,8.399-6.599,15-15,15H75c-8.401,0-15-6.601-15-15c0-8.401,6.599-15,15-15h362
	C445.401,362,452,368.599,452,377z"/>
<path style="fill:#AEADB3;" d="M437,392H256v-30h181c8.401,0,15,6.599,15,15C452,385.399,445.401,392,437,392z"/>
<path style="fill:#C8C6CD;" d="M452,437c0,8.399-6.599,15-15,15H75c-8.401,0-15-6.601-15-15c0-8.401,6.599-15,15-15h362
	C445.401,422,452,428.599,452,437z"/>
<path style="fill:#AEADB3;" d="M452,437c0,8.399-6.599,15-15,15H256v-30h181C445.401,422,452,428.599,452,437z"/>
<g>
</g>
<g>
</g>
<g>
</g>
<g>
</g>
<g>
</g>
<g>
</g>
<g>
</g>
<g>
</g>
<g>
</g>
<g>
</g>
<g>
</g>
<g>
</g>
<g>
</g>
<g>
</g>
<g>
</g>
</svg>
