<?xml version="1.0" encoding="iso-8859-1"?>
<!-- Generator: Adobe Illustrator 19.0.0, SVG Export Plug-In . SVG Version: 6.00 Build 0)  -->
<svg version="1.1" id="Capa_1" xmlns="http://www.w3.org/2000/svg" xmlns:xlink="http://www.w3.org/1999/xlink" x="0px" y="0px"
	 viewBox="0 0 512 512" style="enable-background:new 0 0 512 512;" xml:space="preserve">
<path style="fill:#A4D9F5;" d="M467,346H165c-24.814,0-45-20.186-45-45V91c0-24.814,20.186-45,45-45h302c24.814,0,45,20.186,45,45
	v210C512,325.814,491.814,346,467,346z"/>
<path style="fill:#B758CE;" d="M407,406H105c-24.814,0-45-20.186-45-45V151c0-24.814,20.186-45,45-45h302c24.814,0,45,20.186,45,45
	v210C452,385.814,431.814,406,407,406z"/>
<path style="fill:#FE9923;" d="M375.872,178.426l-45.714,15.862L220.983,304.49l18.804,11.301l-2.914,27.085l96.173,96.171
	l43.759,13.758C384.954,444.657,390,433.407,390,421V211C390,198.159,384.529,186.63,375.872,178.426z"/>
<path style="fill:#FEA832;" d="M14.128,178.426C5.471,186.63,0,198.159,0,211v210c0,12.407,5.046,23.657,13.195,31.805l39.619-9.618
	l95.937-94.062l1.462-33.334l17.466-12.652L58.821,193.257L14.128,178.426z"/>
<path style="fill:#FFCC33;" d="M216.313,309.487c-11.741,11.849-30.886,11.849-42.627,0l-23.474,6.304L13.195,452.805
	C21.343,460.954,32.593,466,45,466h300c12.407,0,23.657-5.046,31.805-13.195L239.788,315.791L216.313,309.487z"/>
<path style="fill:#FEDB41;" d="M216.313,339.487l159.558-161.061C367.804,170.774,356.975,166,345,166H45
	c-11.975,0-22.804,4.774-30.872,12.426l159.558,161.061C185.427,351.336,204.573,351.336,216.313,339.487z"/>
<g>
</g>
<g>
</g>
<g>
</g>
<g>
</g>
<g>
</g>
<g>
</g>
<g>
</g>
<g>
</g>
<g>
</g>
<g>
</g>
<g>
</g>
<g>
</g>
<g>
</g>
<g>
</g>
<g>
</g>
</svg>
