<?xml version="1.0" encoding="iso-8859-1"?><svg xmlns="http://www.w3.org/2000/svg" xmlns:xlink="http://www.w3.org/1999/xlink" version="1.1" id="Capa_1" x="0px" y="0px" viewBox="0 0 497 497" style="enable-background:new 0 0 497 497;" xml:space="preserve" width="512" height="512"><g><g><g><rect x="162.585" style="fill:#B3E59F;" width="168.83" height="497"/></g><rect x="293.415" style="fill:#95D6A4;" width="38" height="497"/><g><path style="fill:#FF8086;" d="M37.971,0C17,0,0,17,0,37.971v421.058C0,480,17,497,37.971,497h127.614V0H37.971z"/></g><rect x="128.585" style="fill:#E5646E;" width="37" height="497"/><g><path style="fill:#C3DDFF;" d="M458.497,0H329.096v497h129.401C479.762,497,497,480,497,459.029V37.971     C497,17,479.762,0,458.497,0z"/></g><path style="fill:#A4CCFF;" d="M458.497,0h-38C441.762,0,459,17,459,37.971v421.058C459,480,441.762,497,420.497,497h38    C479.762,497,497,480,497,459.029V37.971C497,17,479.762,0,458.497,0z"/></g><g><ellipse style="fill:#FFFFFF;" cx="82.5" cy="421.277" rx="24.5" ry="24.468"/></g><g><ellipse style="fill:#FFFFFF;" cx="248.5" cy="421.277" rx="24.5" ry="24.468"/></g><g><ellipse style="fill:#FFFFFF;" cx="412.5" cy="421.277" rx="24.5" ry="24.468"/></g><g><g><path style="fill:#857E87;" d="M36.5,236.016v51.92c0,5.523,4.477,10,10,10h72c5.523,0,10-4.477,10-10v-51.92H36.5z"/></g><g><path style="fill:#FFFFFF;" d="M119.245,54.25H46.5c-5.523,0-10,4.477-10,10v171.766h92V63.505     C128.5,58.394,124.356,54.25,119.245,54.25z"/></g></g><g><g><path style="fill:#FFFFFF;" d="M284.5,54.25h-72c-5.523,0-10,4.477-10,10v171.766h92V64.25     C294.5,58.728,290.023,54.25,284.5,54.25z"/></g><g><path style="fill:#857E87;" d="M202.5,236.016v51.92c0,5.523,4.477,10,10,10h72c5.523,0,10-4.477,10-10v-51.92H202.5z"/></g></g><g><g><path style="fill:#FFFFFF;" d="M448.5,54.25h-72c-5.523,0-10,4.477-10,10v171.766h92V64.25     C458.5,58.728,454.023,54.25,448.5,54.25z"/></g><g><path style="fill:#857E87;" d="M366.5,236.016v51.92c0,5.523,4.477,10,10,10h72c5.523,0,10-4.477,10-10v-51.92H366.5z"/></g></g><g><g><path style="fill:#9B959D;" d="M97.5,107.938h-30c-4.142,0-7.5-3.357-7.5-7.5s3.358-7.5,7.5-7.5h30c4.142,0,7.5,3.357,7.5,7.5     S101.642,107.938,97.5,107.938z"/></g><g><path style="fill:#9B959D;" d="M97.5,152.469h-30c-4.142,0-7.5-3.357-7.5-7.5s3.358-7.5,7.5-7.5h30c4.142,0,7.5,3.357,7.5,7.5     S101.642,152.469,97.5,152.469z"/></g><g><path style="fill:#9B959D;" d="M97.5,197h-30c-4.142,0-7.5-3.357-7.5-7.5s3.358-7.5,7.5-7.5h30c4.142,0,7.5,3.357,7.5,7.5     S101.642,197,97.5,197z"/></g></g><g><g><path style="fill:#9B959D;" d="M427.5,107.938h-30c-4.142,0-7.5-3.357-7.5-7.5s3.358-7.5,7.5-7.5h30c4.142,0,7.5,3.357,7.5,7.5     S431.642,107.938,427.5,107.938z"/></g><g><path style="fill:#9B959D;" d="M427.5,152.469h-30c-4.142,0-7.5-3.357-7.5-7.5s3.358-7.5,7.5-7.5h30c4.142,0,7.5,3.357,7.5,7.5     S431.642,152.469,427.5,152.469z"/></g><g><path style="fill:#9B959D;" d="M427.5,197h-30c-4.142,0-7.5-3.357-7.5-7.5s3.358-7.5,7.5-7.5h30c4.142,0,7.5,3.357,7.5,7.5     S431.642,197,427.5,197z"/></g></g><g><g><path style="fill:#9B959D;" d="M263.5,107.938h-30c-4.142,0-7.5-3.357-7.5-7.5s3.358-7.5,7.5-7.5h30c4.142,0,7.5,3.357,7.5,7.5     S267.642,107.938,263.5,107.938z"/></g><g><path style="fill:#9B959D;" d="M263.5,152.469h-30c-4.142,0-7.5-3.357-7.5-7.5s3.358-7.5,7.5-7.5h30c4.142,0,7.5,3.357,7.5,7.5     S267.642,152.469,263.5,152.469z"/></g><g><path style="fill:#9B959D;" d="M263.5,197h-30c-4.142,0-7.5-3.357-7.5-7.5s3.358-7.5,7.5-7.5h30c4.142,0,7.5,3.357,7.5,7.5     S267.642,197,263.5,197z"/></g></g></g></svg>
