<?xml version="1.0" encoding="iso-8859-1"?>
<!-- Generator: Adobe Illustrator 19.0.0, SVG Export Plug-In . SVG Version: 6.00 Build 0)  -->
<svg version="1.1" id="Layer_1" xmlns="http://www.w3.org/2000/svg" xmlns:xlink="http://www.w3.org/1999/xlink" x="0px" y="0px"
	 viewBox="0 0 512 512" style="enable-background:new 0 0 512 512;" xml:space="preserve">
<g>
	<polygon style="fill:#E57E25;" points="0,406.069 512,406.069 512,194.207 0,194.207 	"/>
	<g>
		<path style="fill:#ECF0F1;" d="M282.483,379.586c-4.882,0-8.828-3.955-8.828-8.828V229.517c0-4.873,3.946-8.828,8.828-8.828
			s8.828,3.955,8.828,8.828v141.241C291.31,375.631,287.364,379.586,282.483,379.586"/>
		<path style="fill:#ECF0F1;" d="M291.31,291.31h26.483c9.737,0,17.655-7.918,17.655-17.655V256c0-9.737-7.918-17.655-17.655-17.655
			H291.31V291.31z M317.793,308.966h-35.31c-4.882,0-8.828-3.955-8.828-8.828v-70.621c0-4.873,3.946-8.828,8.828-8.828h35.31
			c19.474,0,35.31,15.837,35.31,35.31v17.655C353.103,293.129,337.267,308.966,317.793,308.966L317.793,308.966z"/>
		<path style="fill:#ECF0F1;" d="M44.138,361.931h8.872c24.311,0,44.094-19.783,44.094-44.103v-35.381
			c0-24.32-19.783-44.103-44.094-44.103h-8.872V361.931z M53.01,379.586H35.31c-4.882,0-8.828-3.955-8.828-8.828V229.517
			c0-4.873,3.946-8.828,8.828-8.828H53.01c34.048,0,61.749,27.701,61.749,61.758v35.381
			C114.759,351.885,87.058,379.586,53.01,379.586L53.01,379.586z"/>
		<path style="fill:#ECF0F1;" d="M176.552,379.586h-44.138c-4.882,0-8.828-3.955-8.828-8.828V229.517
			c0-4.873,3.946-8.828,8.828-8.828h44.138c4.882,0,8.828,3.955,8.828,8.828s-3.946,8.828-8.828,8.828h-35.31v123.586h35.31
			c4.882,0,8.828,3.955,8.828,8.828C185.379,375.631,181.433,379.586,176.552,379.586"/>
		<path style="fill:#ECF0F1;" d="M176.552,308.966h-44.138c-4.882,0-8.828-3.955-8.828-8.828c0-4.873,3.946-8.828,8.828-8.828
			h44.138c4.882,0,8.828,3.955,8.828,8.828C185.379,305.011,181.433,308.966,176.552,308.966"/>
		<path style="fill:#ECF0F1;" d="M256,379.586h-52.966c-4.882,0-8.828-3.955-8.828-8.828V229.517c0-4.873,3.946-8.828,8.828-8.828
			s8.828,3.955,8.828,8.828v132.414H256c4.882,0,8.828,3.955,8.828,8.828C264.828,375.631,260.882,379.586,256,379.586"/>
		<path style="fill:#ECF0F1;" d="M476.69,379.586c-4.882,0-8.828-3.955-8.828-8.828V264.828c0-4.873,3.946-8.828,8.828-8.828
			c4.882,0,8.828,3.955,8.828,8.828v105.931C485.517,375.631,481.571,379.586,476.69,379.586"/>
		<path style="fill:#ECF0F1;" d="M370.759,379.586c-4.882,0-8.828-3.955-8.828-8.828V229.517c0-4.873,3.946-8.828,8.828-8.828
			c4.882,0,8.828,3.955,8.828,8.828v141.241C379.586,375.631,375.64,379.586,370.759,379.586"/>
		<path style="fill:#ECF0F1;" d="M450.207,379.586c-4.882,0-8.828-3.955-8.828-8.828V229.517c0-4.873,3.946-8.828,8.828-8.828
			c4.882,0,8.828,3.955,8.828,8.828v141.241C459.034,375.631,455.089,379.586,450.207,379.586"/>
		<path style="fill:#ECF0F1;" d="M450.207,308.966h-79.448c-4.882,0-8.828-3.955-8.828-8.828c0-4.873,3.946-8.828,8.828-8.828
			h79.448c4.882,0,8.828,3.955,8.828,8.828C459.034,305.011,455.089,308.966,450.207,308.966"/>
		<path style="fill:#ECF0F1;" d="M485.517,229.517c0,4.873-3.946,8.828-8.828,8.828c-4.882,0-8.828-3.955-8.828-8.828
			s3.946-8.828,8.828-8.828C481.571,220.69,485.517,224.644,485.517,229.517"/>
	</g>
	<polygon style="fill:#BDC3C7;" points="459.034,105.931 353.103,105.931 353.103,0 	"/>
	<g>
		<polygon style="fill:#ECF0F1;" points="459.034,194.207 459.034,105.931 353.103,105.931 353.103,0 52.966,0 52.966,194.207 		"/>
		<polygon style="fill:#ECF0F1;" points="52.966,512 459.034,512 459.034,406.069 52.966,406.069 		"/>
	</g>
</g>
<g>
</g>
<g>
</g>
<g>
</g>
<g>
</g>
<g>
</g>
<g>
</g>
<g>
</g>
<g>
</g>
<g>
</g>
<g>
</g>
<g>
</g>
<g>
</g>
<g>
</g>
<g>
</g>
<g>
</g>
</svg>
