<?xml version="1.0" encoding="iso-8859-1"?>
<!-- Generator: Adobe Illustrator 19.0.0, SVG Export Plug-In . SVG Version: 6.00 Build 0)  -->
<svg version="1.1" id="Capa_1" xmlns="http://www.w3.org/2000/svg" xmlns:xlink="http://www.w3.org/1999/xlink" x="0px" y="0px"
	 viewBox="0 0 512 512" style="enable-background:new 0 0 512 512;" xml:space="preserve">
<rect x="7.515" y="31.562" style="fill:#F3F1F1;" width="496.971" height="448.877"/>
<rect x="7.515" y="31.562" style="fill:#E6E3E2;" width="32.063" height="448.877"/>
<rect x="7.515" y="31.562" style="fill:#C4A0DE;" width="496.971" height="64.125"/>
<rect x="7.515" y="31.562" style="fill:#AE85CC;" width="32.063" height="64.125"/>
<path style="fill:#A89C9A;" d="M280.047,432.344h-48.094c-13.281,0-24.047-10.766-24.047-24.047l0,0
	c0-13.281,10.766-24.047,24.047-24.047h48.094c13.281,0,24.047,10.766,24.047,24.047l0,0
	C304.094,421.578,293.328,432.344,280.047,432.344z"/>
<path style="fill:#9B8E8B;" d="M288.063,416.313h-48.094c-13.281,0-24.047-10.766-24.047-24.047l0,0
	c0-0.661,0.034-1.315,0.086-1.963c-4.968,4.406-8.102,10.832-8.102,17.994l0,0c0,13.281,10.766,24.047,24.047,24.047h48.094
	c12.62,0,22.961-9.723,23.961-22.084C299.763,414.024,294.182,416.313,288.063,416.313z"/>
<rect x="127.75" y="191.875" style="fill:#CDC6C5;" width="256.501" height="160.313"/>
<polygon style="fill:#FFC44F;" points="317.041,276.963 351.049,401.657 385.056,367.649 441.736,424.329 464.407,401.657 
	407.727,344.978 441.736,310.97 "/>
<polygon style="fill:#FFB357;" points="384.25,344.172 360.537,364.88 334.633,281.76 317.041,276.963 351.049,401.657 
	385.056,367.649 441.736,424.329 453.071,412.993 "/>
<path d="M504.485,24.047H7.515C3.365,24.047,0,27.412,0,31.562v448.877c0,4.15,3.365,7.515,7.515,7.515h496.971
	c4.15,0,7.515-3.365,7.515-7.515V31.562C512,27.412,508.635,24.047,504.485,24.047z M15.029,472.924V103.202h50.265
	c4.15,0,7.515-3.365,7.515-7.515c0-4.15-3.365-7.515-7.515-7.515H15.029V39.076h481.941v49.096H100.028
	c-4.15,0-7.515,3.365-7.515,7.515c0,4.15,3.365,7.515,7.515,7.515h396.942v369.722H15.029z"/>
<path d="M280.047,376.736h-48.094c-17.403,0-31.562,14.159-31.562,31.562s14.159,31.562,31.562,31.562h48.094
	c17.403,0,31.562-14.159,31.562-31.562S297.45,376.736,280.047,376.736z M280.047,424.83h-48.094
	c-9.116,0-16.532-7.417-16.532-16.532s7.416-16.532,16.532-16.532h48.094c9.116,0,16.532,7.417,16.532,16.532
	S289.163,424.83,280.047,424.83z"/>
<path d="M439.358,71.139h1.002c4.15,0,7.515-3.365,7.515-7.515s-3.365-7.515-7.515-7.515h-1.002c-4.15,0-7.515,3.365-7.515,7.515
	S435.208,71.139,439.358,71.139z"/>
<path d="M471.421,71.139h1.002c4.15,0,7.515-3.365,7.515-7.515s-3.365-7.515-7.515-7.515h-1.002c-4.15,0-7.515,3.365-7.515,7.515
	S467.271,71.139,471.421,71.139z"/>
<path d="M406.294,71.139h1.002c4.15,0,7.515-3.365,7.515-7.515s-3.365-7.515-7.515-7.515h-1.002c-4.15,0-7.515,3.365-7.515,7.515
	S402.143,71.139,406.294,71.139z"/>
<path d="M418.355,344.978l28.694-28.694c4.01-4.01,2.123-11.075-3.336-12.564l-51.947-14.168v-97.678
	c0-4.15-3.365-7.515-7.515-7.515H127.75c-4.15,0-7.515,3.365-7.515,7.515v160.313c0,4.15,3.365,7.515,7.515,7.515h204.068
	l11.981,43.932c1.489,5.46,8.554,7.346,12.564,3.336l28.694-28.694l51.365,51.365c2.895,2.895,7.732,2.895,10.627,0l22.671-22.671
	c2.935-2.935,2.935-7.693,0-10.627L418.355,344.978z M135.264,344.673V199.389h241.472v86.064l-57.718-15.741
	c-5.506-1.502-10.729,3.721-9.227,9.227l17.927,65.733H135.264z M441.736,413.702l-51.365-51.365c-2.895-2.896-7.732-2.895-10.627,0
	l-24.852,24.851l-27.14-99.514l99.514,27.14l-24.851,24.852c-2.935,2.935-2.935,7.693,0,10.627l51.365,51.365L441.736,413.702z"/>
<path d="M127.75,167.327h160.313c4.15,0,7.515-3.365,7.515-7.515s-3.365-7.515-7.515-7.515H127.75c-4.15,0-7.515,3.365-7.515,7.515
	S123.599,167.327,127.75,167.327z"/>
<path d="M312.11,167.327h80.157c4.15,0,7.515-3.365,7.515-7.515s-3.365-7.515-7.515-7.515H312.11c-4.15,0-7.515,3.365-7.515,7.515
	S307.959,167.327,312.11,167.327z"/>
<g>
</g>
<g>
</g>
<g>
</g>
<g>
</g>
<g>
</g>
<g>
</g>
<g>
</g>
<g>
</g>
<g>
</g>
<g>
</g>
<g>
</g>
<g>
</g>
<g>
</g>
<g>
</g>
<g>
</g>
</svg>
